<svg xmlns="http://www.w3.org/2000/svg" width="188" height="368" fill="none"><path fill="#008CD1" d="M146.14 188.8c42.67 18.95-22.32 88.38-87.48 43.73C19.45 206 32.42 135.4 85.21 128.76c52.79-6.63-8.06 29.37 60.93 60.03Z"/><path fill="#0069AB" d="M137.48 208.65c-10.6 19.57-79.3 14.16-86.25-15.2-6.95-29.35 30.75-38.15 47.8-14.6 10.6 14.6 49.04 10.24 38.45 29.8Z" opacity=".3"/><path fill="#000" fill-opacity=".15" d="M101.33 225.44c-8.56-7.3-8.56-19.13 0-26.43 8.56-7.3 22.43-7.3 30.99 0 1.74 1.5-13.67 11.15-13.39 11.64.29.5 19.28-2.97 19.6-1.02.91 5.6-1.16 11.5-6.21 15.81-8.56 7.3-22.43 7.3-31 0Z"/><path fill="#5D9948" d="M104.05 221.98c-7.76-6.63-7.76-17.36 0-23.98 7.76-6.62 20.35-6.62 28.11 0 1.59 1.35-12.4 10.11-12.14 10.56.26.44 17.49-2.7 17.78-.93.83 5.09-1.05 10.44-5.64 14.35-7.76 6.62-20.35 6.62-28.11 0Z"/><path fill="#81B64C" d="M103.95 194.31c8.06-6.54 20.78-6.43 28.7.32.18.15.27.37.26.58 0 .17-.1 1.66-.43 2.73-.32 1.07-1.05.34-1.36.07-7.37-6.28-19.29-6.2-26.8-.12l-.35.3c-7.09 6.16-6.85 14.1.56 20.42l.36.29c7.51 6.09 19.42 5.99 26.8-.3l.4-.35c4.1-3.71 5.73-8.64 4.97-13.3l.74-.12.73-.12c.85 5.19-1.55 12.85-6 16.89l-.44.38c-7.92 6.76-20.64 6.86-28.7.32l-.39-.32c-8.11-6.92-7.55-20.43.57-27.35l.38-.32Zm33.73 9.78c.4-.07.79.21.85.62l-1.47.24c-.07-.4.2-.8.62-.86Z"/><path fill="#5D9948" d="M101.36 199.93c8.35-9.97 22.32-8.54 29.45-3.1.75.55.99-.4.76-.77-.22-.37-4.56-4.61-13.95-4.61-10.14 0-15.06 5.4-16.26 8.48Z" opacity=".5"/><path fill="#45753C" d="M123.73 196.55c-.94-.37-6.1 8.97-5.6 9.26.48.29 6.57-8.71 5.6-9.26ZM106.57 199.74c-.49.88 8.16 7.2 8.46 6.75.3-.44-7.8-7.64-8.46-6.75ZM102.96 210.06c.31.96 10.83-1.03 10.7-1.55-.1-.52-10.9.46-10.7 1.55ZM111.79 218.96c.98.24 4.52-8.4 4.02-8.58-.5-.18-5.05 8.16-4.02 8.58ZM129.09 216.1c.56-.83-9.72-6.44-10.07-6.03-.34.41 9.32 6.85 10.07 6.03Z" opacity=".5"/><path fill="#000" fill-opacity=".15" d="M71.59 223.16c-3.96-3.38-3.96-8.85 0-12.23a11.41 11.41 0 0 1 14.34 0c.8.69-6.33 5.16-6.2 5.38.14.23 8.92-1.37 9.07-.47a7.89 7.89 0 0 1-2.87 7.32 11.41 11.41 0 0 1-14.34 0Z"/><path fill="#5D9948" d="M72.85 221.55a7.06 7.06 0 0 1 0-11.1 10.36 10.36 0 0 1 13 0c.74.63-5.73 4.69-5.61 4.9.12.2 8.09-1.25 8.22-.44a7.16 7.16 0 0 1-2.6 6.64 10.36 10.36 0 0 1-13.01 0Z"/><path fill="#81B64C" d="M72.8 208.75a10.71 10.71 0 0 1 13.28.15c.08.07.12.17.12.27 0 .08-.05.77-.2 1.26-.15.5-.48.16-.63.03-3.4-2.9-8.92-2.87-12.4-.05l-.16.13c-3.28 2.86-3.17 6.53.26 9.45l.17.14a10.02 10.02 0 0 0 12.4-.14l.18-.16c1.9-1.72 2.65-4 2.3-6.16l.34-.05.34-.06c.4 2.4-.72 5.95-2.78 7.82l-.2.18a10.71 10.71 0 0 1-13.28.14l-.18-.14c-3.75-3.2-3.49-9.46.27-12.66l.17-.15Zm15.6 4.53c.2-.03.37.1.4.28l-.68.12a.35.35 0 0 1 .29-.4Z"/><path fill="#5D9948" d="M71.6 211.35c3.87-4.61 10.33-3.95 13.63-1.43.35.25.46-.18.35-.36-.1-.17-2.1-2.13-6.46-2.13-4.68 0-6.96 2.5-7.51 3.92Z" opacity=".5"/><path fill="#45753C" d="M81.96 209.79c-.44-.17-2.82 4.15-2.6 4.28.23.14 3.04-4.03 2.6-4.28ZM74.01 211.26c-.22.41 3.78 3.33 3.92 3.13.14-.2-3.6-3.54-3.92-3.13ZM72.34 216.04c.15.44 5.01-.48 4.96-.72-.05-.24-5.05.21-4.96.72ZM76.43 220.16c.45.1 2.1-3.89 1.86-3.97-.23-.09-2.34 3.77-1.86 3.97ZM84.43 218.83c.26-.38-4.5-2.98-4.65-2.79-.16.2 4.3 3.17 4.65 2.8Z" opacity=".5"/><path fill="#000" fill-opacity=".15" d="M74.05 176.27a14.2 14.2 0 0 1 18.68 3.36c4.3 5.7 2.9 13.43-3.1 17.27-1.24.79-6.52-9.03-6.9-8.94-.37.1.18 11.12-1.23 11.05-4.06-.2-8.02-2.1-10.56-5.47a11.76 11.76 0 0 1 3.11-17.27Z"/><path fill="#5D9948" d="M74.58 194.03c-4.81-4.1-4.81-10.75 0-14.85 4.8-4.1 12.6-4.1 17.42 0 1.75 1.5 3.11 3.7 3.48 5.97.52 3.15-.64 6.46-3.48 8.88-.67.57-1.4 1.06-2.17 1.47-.9.5-6.48-9.72-6.9-9.6-.43.13 1.77 11.18.62 11.2-3.24.06-6.5-.96-8.97-3.07Z"/><path fill="#81B64C" d="M92.3 177.1c-4.91-4.2-12.79-4.26-17.79-.2l-.23.2c-5.03 4.28-5.38 12.65-.35 16.94l.23.2a14.15 14.15 0 0 0 10.31 2.9c.44 0 .33-2.26-.2-2.26-3.27.22-6.63-.7-9.17-2.75l-.22-.19c-4.6-3.91-4.74-8.83-.35-12.65l.22-.18c4.65-3.77 12.03-3.82 16.6.07 2.23 2.3 3.85 4.37 3.85 7.43 0 3.05-4.71 6.81-5.64 7.06-.93.25-.39 3.29.73 2.78 4.15-1.7 6-6.04 6-7.98V185c0-3.5-2.01-5.82-4-7.9Z"/><path fill="#5D9948" d="M72.91 180.37c5.18-6.18 13.83-5.28 18.24-1.92.47.34.62-.24.48-.47-.14-.23-2.83-2.86-8.65-2.86-6.27 0-9.32 3.35-10.07 5.25Z" opacity=".5"/><path fill="#45753C" d="M86.77 178.28c-.58-.22-3.77 5.56-3.47 5.74.3.18 4.07-5.4 3.47-5.74ZM76.14 180.26c-.3.54 5.05 4.45 5.24 4.18.18-.28-4.83-4.73-5.24-4.18ZM73.9 186.65c.2.6 6.71-.64 6.64-.96-.07-.32-6.75.28-6.64.96ZM79.37 192.16c.6.15 2.8-5.2 2.5-5.31-.32-.11-3.14 5.05-2.5 5.31ZM91.17 189.92c.35-.52-6.03-4-6.24-3.74-.21.26 5.77 4.25 6.24 3.74ZM89.84 183.46c-.15-.38-4.83 1.29-4.77 1.5.07.2 4.88-1.07 4.77-1.5Z" opacity=".5"/><path fill="#009FD9" fill-rule="evenodd" d="M85.2 128.76c52.8-6.63-8.05 29.37 60.94 60.03 42.67 18.97-22.32 88.39-87.48 43.74C19.45 206 32.42 135.4 85.21 128.76Zm14.76 42.2c-5.03-16.1 10.57-41.92-14.3-37.81-21.78 3.58-9.22 18.31-30.87 27.92-21.65 9.61-16.66 44.2-5.13 49.33 11.53 5.12 8.26 21.6 25.86 25.13 17.6 3.52 13.57-2.02 37.71-1.51 24.14.5 38.82-6.54 36.51-28.47-2.31-21.92-44.76-18.5-49.78-34.6Z" clip-rule="evenodd"/><path fill="#008CD1" d="M66.4 141.58c-3.06-2.84-22.28 15.62-17.28 16.7 7.92 1.7 21-13.42 17.28-16.7ZM91.82 241.25c.67 4.12 33.91 1.91 29.94-1.92-3.97-3.83-30.87-2.95-29.94 1.92ZM114.06 179.1c5.06.71-2.45-18.9-9.45-16.66-7 2.23.18 15.34 9.45 16.66Z"/><path fill="#0069AB" d="M85.81 159.3c11-.21 12.28-16.09-2-15.53-14.29.56-9 15.75 2 15.54Z" opacity=".2"/><path fill="#008CD1" d="M105.03 159.3c5-.62 2.28-7.37-.95-6.52-3.24.84-4.07 7.13.95 6.51ZM56.67 226.4c-3.86-.85-10.33-12.92-7.3-11.57 3.03 1.34 11.16 12.42 7.3 11.57Z"/><path fill="#5D9948" d="M152.22 219.88c-.14-10.3-8.47-17.31-8.4-10.22 2.52 1.23 7.43 17.77 8.34 17.69.9-.09.81-4.63.06-7.47Z"/><path fill="#45753C" d="M158.28 199.93c-8.4.76-9.53 19.06-7.32 28.75 1.58 1.18 5.82 2.47 7.2-1.68s-2.48-17.15.12-27.07ZM29.45 152.03c8.4.76 9.53 19.06 7.32 28.76-1.58 1.17-5.82 2.47-7.2-1.68s2.47-17.16-.12-27.08Z"/><path fill="#45753C" d="M173.07 203.37c-8.05-2.04-18.55 14.28-21.55 23.84.83 1.58 4.03 4.14 7.44.8 3.4-3.33 6.61-16.44 14.11-24.64ZM14.65 155.47c8.05-2.04 18.55 14.28 21.55 23.84-.83 1.59-4.03 4.15-7.43.81-3.4-3.33-6.62-16.44-14.12-24.65ZM38.17 202.67c-4.82 10.66-13.34-15.88-10.72-19.22 2.61-3.35 13.14 13.86 10.72 19.22Z"/><path fill="#5D9948" d="M38.17 202.67c-4.82 10.66-13.34-15.88-10.72-19.22 2.61-3.35 13.14 13.86 10.72 19.22Z"/><path fill="#45753C" d="M48.35 227.08c-5.66 11.25-13.87-26.74-10.9-29.74 2.98-3 13.75 24.07 10.9 29.74Z"/><path fill="#45753C" d="M48.35 227.08c-5.66 11.25-13.87-26.74-10.9-29.74 2.98-3 13.75 24.07 10.9 29.74ZM36.97 186.8c-3.14 6.03-8.67-13-6.97-14.69 1.7-1.67 8.54 11.65 6.97 14.69Z"/><path fill="#45753C" d="M36.97 186.8c-3.14 6.03-8.67-13-6.97-14.69 1.7-1.67 8.54 11.65 6.97 14.69Z"/><path fill="#45753C" d="M36.56 191.72c-2.58 9.27-13.03-17.44-11.31-20.15 1.71-2.72 12.6 15.48 11.3 20.15Z"/><path fill="#5D9948" d="M36.56 191.72c-2.58 9.27-13.03-17.44-11.31-20.15 1.71-2.72 12.6 15.48 11.3 20.15Z"/><path fill="#45753C" d="M40.83 216.03c-3.68 12.05-18.18-24.01-15.75-27.47 2.43-3.46 17.6 21.4 15.75 27.47Z"/><path fill="#45753C" d="M40.83 216.03c-3.68 12.05-18.18-24.01-15.75-27.47 2.43-3.46 17.6 21.4 15.75 27.47Z"/><path fill="#45753C" d="M40.83 216.03c-3.68 12.05-18.18-24.01-15.75-27.47 2.43-3.46 17.6 21.4 15.75 27.47Z"/><path fill="#45753C" d="M40.83 216.03c-3.68 12.05-18.18-24.01-15.75-27.47 2.43-3.46 17.6 21.4 15.75 27.47Z"/><path fill="#45753C" d="M40.99 221.58c-1.57 10.6-15.73-10.6-14.27-14.21 1.46-3.6 15.05 8.89 14.27 14.21Z"/><path fill="#5D9948" d="M40.99 221.58c-1.57 10.6-15.73-10.6-14.27-14.21 1.46-3.6 15.05 8.89 14.27 14.21Z"/><path fill="#45753C" d="M52.91 231.8c-7.84 6.88-7.87-17.42-4.36-19.2 3.52-1.78 8.3 15.73 4.36 19.2Z"/><path fill="#5D9948" d="M52.91 231.8c-7.84 6.88-7.87-17.42-4.36-19.2 3.52-1.78 8.3 15.73 4.36 19.2Z"/><path fill="#45753C" d="M60.34 140.28c-7.85 6.9-7.88-17.4-4.36-19.19 3.52-1.78 8.3 15.73 4.36 19.2Z"/><path fill="#5D9948" d="M60.34 140.28c-7.85 6.9-7.88-17.4-4.36-19.19 3.52-1.78 8.3 15.73 4.36 19.2Z"/><path fill="#45753C" d="M72.07 242.8c-7.6 4 2.83-17.94 5.67-18.56 2.84-.62-1.85 16.53-5.67 18.55Z"/><path fill="#5D9948" d="M72.07 242.8c-7.6 4 2.83-17.94 5.67-18.56 2.84-.62-1.85 16.53-5.67 18.55Z"/><path fill="#45753C" d="M76.48 131.22c-7.6 4.02 2.84-17.93 5.68-18.55 2.84-.62-1.86 16.53-5.68 18.55Z"/><path fill="#5D9948" d="M76.48 131.22c-7.6 4.02 2.84-17.93 5.68-18.55 2.84-.62-1.86 16.53-5.68 18.55Z"/><path fill="#45753C" d="M43.25 225.84c-2.13 6.63-10.5-7.33-9.1-9.55 1.4-2.22 10.16 6.22 9.1 9.55Z"/><path fill="#45753C" d="M43.25 225.84c-2.13 6.63-10.5-7.33-9.1-9.55 1.4-2.22 10.16 6.22 9.1 9.55ZM58.34 234.96c-9.06 4.13-4.26-15.42-.46-16.22 3.8-.8 5.01 14.13.46 16.22Z"/><path fill="#45753C" d="M58.34 234.96c-9.06 4.13-4.26-15.42-.46-16.22 3.8-.8 5.01 14.13.46 16.22ZM65.13 137c-9.05 4.13-4.25-15.42-.45-16.21 3.8-.8 5 14.13.45 16.21Z"/><path fill="#45753C" d="M65.13 137c-9.05 4.13-4.25-15.42-.45-16.21 3.8-.8 5 14.13.45 16.21ZM64.2 238.45c-9.32 2.54-3.1-13.42.73-13.7 3.83-.29 3.94 12.41-.74 13.7Z"/><path fill="#5D9948" d="M64.2 238.45c-9.32 2.54-3.1-13.42.73-13.7 3.83-.29 3.94 12.41-.74 13.7Z"/><path fill="#45753C" d="M69.75 133.66c-9.3 2.54-3.1-13.42.74-13.7 3.83-.29 3.94 12.42-.74 13.7Z"/><path fill="#5D9948" d="M69.75 133.66c-9.3 2.54-3.1-13.42.74-13.7 3.83-.29 3.94 12.42-.74 13.7Z"/><path fill="#45753C" d="M47.36 229.02c-3.21 5.68-8.24-8.66-6.53-10.44 1.71-1.78 8.15 7.57 6.53 10.44Z"/><path fill="#5D9948" d="M47.36 229.02c-3.21 5.68-8.24-8.66-6.53-10.44 1.71-1.78 8.15 7.57 6.53 10.44Z"/><path fill="#45753C" d="M56.25 141.75c-3.22 5.69-8.24-8.66-6.53-10.43 1.7-1.78 8.14 7.57 6.53 10.43Z"/><path fill="#5D9948" d="M56.25 141.75c-3.22 5.69-8.24-8.66-6.53-10.43 1.7-1.78 8.14 7.57 6.53 10.43Z"/><path fill="#45753C" d="M54.03 144.96c-4 4.25-5.66-3.98-3.78-5.44 1.89-1.46 5.8 3.3 3.78 5.44ZM85.36 129.57c-5.56 1.8-3.05-6.21-.7-6.59 2.36-.37 3.49 5.69.7 6.6Z"/><path fill="#45753C" d="M89.42 129.24c-5.56 1.8-3.05-6.21-.7-6.58 2.36-.38 3.5 5.68.7 6.58ZM107.66 135.01c-1.8-5.55 6.22-3.05 6.59-.7.37 2.36-5.68 3.5-6.59.7Z"/><path fill="#45753C" d="M107.8 138.86c-1.8-5.56 6.21-3.05 6.59-.7.37 2.35-5.69 3.49-6.6.7Z"/><path fill="#45753C" d="M107.67 142.7c-1.8-5.56 6.21-3.05 6.59-.7.37 2.36-5.69 3.5-6.6.7Z"/><path fill="#45753C" d="M108.57 146.97c-1.8-5.55 6.21-3.04 6.59-.69.37 2.35-5.69 3.49-6.6.7Z"/><path fill="#45753C" d="M108.58 150.96c-1.32-5.56 4.67-3.04 4.94-.69.27 2.35-4.27 3.48-4.94.7Z"/><path fill="#45753C" d="M109.1 155.05c-1.33-5.56 4.67-3.05 4.94-.7.27 2.36-4.28 3.5-4.95.7Z"/><path fill="#45753C" d="M110.41 159.13c-2.2-4.29 4.1-3.38 4.75-1.5.64 1.86-3.64 3.65-4.75 1.5Z"/><path fill="#45753C" d="M112.17 162.18c-2.2-4.29 4.1-3.38 4.74-1.5.64 1.86-3.64 3.65-4.74 1.5Z"/><path fill="#45753C" d="M113.56 165.57c-2.2-4.28 4.1-3.38 4.74-1.5.65 1.86-3.63 3.65-4.74 1.5Z"/><path fill="#45753C" d="M115.48 168.59c-2.2-4.29 4.1-3.38 4.74-1.51.65 1.87-3.64 3.66-4.74 1.5Z"/><path fill="#45753C" d="M118.08 171.28c-2.2-4.28 4.1-3.37 4.74-1.5.65 1.87-3.63 3.66-4.74 1.5Z"/><path fill="#45753C" d="M120.2 174.05c-2.2-4.28 4.09-3.37 4.73-1.5.65 1.87-3.63 3.66-4.74 1.5Z"/><path fill="#45753C" d="M123.09 176.12c-2.2-4.28 4.1-3.38 4.74-1.5.64 1.86-3.64 3.66-4.74 1.5Z"/><path fill="#45753C" d="M126.23 179.3c-3.45-3.35 2.8-4.5 4-2.94 1.22 1.57-2.27 4.63-4 2.95Z"/><path fill="#45753C" d="M129.5 181.1c-3.45-3.36 2.8-4.51 4-2.94 1.22 1.56-2.27 4.63-4 2.94Z"/><path fill="#45753C" d="M132.7 183.55c-3.45-3.35 2.8-4.5 4.01-2.94s-2.27 4.63-4 2.94Z"/><path fill="#45753C" d="M136.27 185.52c-3.45-3.36 2.8-4.51 4.01-2.95 1.21 1.57-2.27 4.63-4 2.95Z"/><path fill="#45753C" d="M140.23 187.36c-3.45-3.36 2.8-4.51 4-2.95 1.22 1.57-2.27 4.64-4 2.95ZM75.8 242.5c-3.44-3.37 2.8-4.52 4.02-2.95 1.2 1.56-2.28 4.63-4.01 2.94Z"/><path fill="#45753C" d="M143.62 188.85c-3.45-3.35 2.8-4.5 4-2.94 1.22 1.56-2.27 4.63-4 2.94ZM79.2 243.99c-3.45-3.36 2.8-4.51 4-2.95 1.22 1.57-2.27 4.64-4 2.95Z"/><path fill="#45753C" d="M147.41 191.4c-3.87-4.13 2.57-4.93 3.96-3.04 1.39 1.89-2.01 5.11-3.96 3.04ZM83 246.53c-3.88-4.12 2.56-4.93 3.95-3.04 1.39 1.9-2.01 5.11-3.96 3.04Z"/><path fill="#45753C" d="M151.67 193.96c-3.87-4.13 2.57-4.93 3.96-3.04 1.39 1.89-2.01 5.11-3.96 3.04Z"/><path fill="#45753C" d="M154.64 197.4c-3.87-4.12 2.57-4.92 3.95-3.03 1.4 1.89-2 5.1-3.95 3.04Z"/><path fill="#45753C" d="M157.65 200.43c-3.87-4.12 2.57-4.93 3.96-3.04 1.38 1.9-2.02 5.11-3.96 3.04Z"/><path fill="#45753C" d="M158.76 204.3c-3.87-4.12 2.57-4.93 3.96-3.04 1.39 1.9-2.01 5.12-3.96 3.04ZM128.27 244.01c-4.1-4.18 3.02-5.29 4.47-3.36 1.45 1.94-2.41 5.46-4.47 3.36Z"/><path fill="#45753C" d="M123.46 245.98c-4.1-4.18 3.02-5.29 4.47-3.36 1.45 1.93-2.41 5.46-4.47 3.36Z"/><path fill="#45753C" d="M118.64 247.94c-4.1-4.18 3.03-5.28 4.48-3.35 1.45 1.93-2.42 5.45-4.48 3.35Z"/><path fill="#45753C" d="M113.83 249.32c-4.1-4.18 3.02-5.29 4.48-3.36 1.45 1.94-2.42 5.46-4.48 3.36ZM159.37 208c-3.87-4.13 2.57-4.94 3.95-3.05 1.4 1.9-2 5.12-3.95 3.04Z"/><path fill="#45753C" d="M158.98 212.05c-3.33-6.18 3.32-5.02 4.45-2.31 1.14 2.7-2.78 5.42-4.45 2.31ZM93.48 128.92c-5.55 1.79-3.04-6.22-.69-6.6 2.36-.37 3.49 5.7.7 6.6ZM51.12 148.04c-4 4.25-5.66-3.98-3.78-5.44 1.89-1.46 5.8 3.3 3.78 5.44Z"/><path fill="#45753C" d="M48.79 152.06c-4 4.25-5.67-3.98-3.78-5.44 1.88-1.46 5.79 3.3 3.78 5.44Z"/><path fill="#45753C" d="M46.3 155.97c-4.01 4.25-5.67-3.98-3.78-5.44 1.88-1.46 5.79 3.3 3.77 5.44Z"/><path fill="#45753C" d="M43.7 160.15c-4 4.25-5.67-3.98-3.78-5.44 1.88-1.46 5.79 3.3 3.78 5.44Z"/><path fill="#45753C" d="M41.47 164.6c-4 4.25-5.66-3.98-3.77-5.44 1.88-1.46 5.79 3.3 3.77 5.44Z"/><path fill="#45753C" d="M40.16 170.17c-5.3 5.46-7.23-4.87-4.75-6.76 2.48-1.9 7.42 4.02 4.75 6.76ZM68.9 241.27c-5.97 4.05-2.58-15.45-.08-16.22 2.5-.76 3.1 14.18.09 16.22Z"/><path fill="#45753C" d="M68.9 241.27c-5.97 4.05-2.58-15.45-.08-16.22 2.5-.76 3.1 14.18.09 16.22ZM73.8 132.39c-5.98 4.05-2.58-15.45-.09-16.22 2.5-.77 3.1 14.18.1 16.22Z"/><path fill="#45753C" d="M73.8 132.39c-5.98 4.05-2.58-15.45-.09-16.22 2.5-.77 3.1 14.18.1 16.22ZM75.37 244.37c-6.57.59 2.11-13.4 4.6-12.92 2.47.49-1.3 12.62-4.6 12.92Z"/><path fill="#5D9948" d="M75.37 244.37c-6.57.59 2.11-13.4 4.6-12.92 2.47.49-1.3 12.62-4.6 12.92Z"/><path fill="#45753C" d="M79.35 131.04c-6.1-1.2 2.52-10.33 4.8-9.3 2.26 1.03-1.73 9.9-4.8 9.3Z"/><path fill="#5D9948" d="M79.35 131.04c-6.1-1.2 2.52-10.33 4.8-9.3 2.26 1.03-1.73 9.9-4.8 9.3Z"/><path fill="#D9D9D9" d="M122.67 161c-.9-1 .5-10 2.2-13 1.5-1.7 7.71-6.5 10.51-6.71 2.8-.2 19 8.42 19.7 10.42.7 2 3.3 13.78 1.8 15.48-1.5 1.7-15.42 7.88-17.12 7.78-1.7-.1-16.19-12.96-17.09-13.96Z"/><path fill="#F8F8F8" d="M126.38 149.37c0-.63 7.99-6.54 9-6.54 1.56 0 17.2 8.86 17.93 9.69.4.47-6.35 7.64-6.95 7.94-.6.3-9.63-.16-10.3-.24-1.55-.2-9.68-10.22-9.68-10.85Z" opacity=".5"/><path fill="#F8F8F8" d="M155.91 166.3c.3-.59-1.5-10.44-2.24-10.86-.18-.12-3.39 2.93-6.52 5.98-.89.87-6.4 9.5-6.46 9.72-.13.48-.48 2.51.15 2.51.62 0 14.77-6.75 15.07-7.34Z"/><path fill="#BEBDB9" d="M123.5 160.19c.05.5 15 13.52 15.81 13.22.38.13.15-1.88 0-2.6-.06-.3-4.08-9.35-4.85-10-4.04-4.78-8.96-10.42-9.2-10.47-.42-.1-1.83 9.34-1.77 9.85Z"/><path fill="#E9E9E9" d="M140.14 169.26c-.63 0-4.04-7.61-3.6-7.92.38-.27 8.41.31 8.64.42.22.11-4.42 7.5-5.04 7.5Z"/><path fill="#5D9948" d="M103.5 132.03c-.98 3.42 13.86 4.18 14.98-1.73 1.13-5.91-13.76-4.5-14.97 1.73Z"/><path fill="#81B64C" d="M93 124.22c-.31 4.52 3.8 7.47 6.6 6.32.01-2.72-.24-8.42-1.3-9.48-1.3-1.34-5-1.37-5.3 3.16Z"/><path fill="#5D9948" d="M97.75 123.64c-.2-7 4.37-12.82 7.4-12.6 2.56.15 2.87 3.59.96 8.08-1.91 4.48-4.2 12.47-5.58 12.8-1.36.34-2.6-1.28-2.78-8.28Z"/><path fill="#81B64C" d="M113.88 123.2c-6.9 3.62-8.93 10.6-11.84 9.46-2.9-1.14.08-12 7.9-17.24 7.84-5.23 10.84 4.18 3.94 7.79ZM108.86 235.9c-.13 6.83-3.83 14.06-7.1 14.5-5.02 0-8.15-8.51-7.05-14.77 1.1-6.26 3.5-9.61 5.2-9.61 1.71 0 2.48.55 2.88.55.4 0 1.14-.55 2.66-.55 1.52 0 3.54 3.04 3.41 9.87Z"/><path fill="#5D9948" d="M103.75 247.8c10.8-10.32 15.34 8.77 13.27 10.97-2.03 1.99-25.18-4.36-13.27-10.97Z"/><path fill="#5D9948" d="M87.26 242.84c8.97-1.36 13.48 4.86 13.92 7.93 0 .42-.95 1.5-4.73 2.5-4.73 1.25-18.83 1.28-20.24 0-1.42-1.27 2.09-9.07 11.05-10.43ZM142.21 134.68c-3.41-.16-7.48.3-5.5 3.1 3.28.66 10.02 1.58 10.74-.06.9-2.05-1.82-2.88-5.24-3.04Z"/><path fill="#81B64C" d="M143.27 149.37c6.85-1.25 7.59-9.85 6.2-11.06-.88-1.04-7.34-1.54-10.58-1.56-3.23-.03-6.71 1.98-7.97 4.74-1.25 2.76 7.18 7.6 12.35 7.88Z"/><path fill="#5D9948" d="M125.09 150.27c1.04-1.1-.18-5.87 3.74-7.5l3.96 3.91c-.94.22-2.9.93-3.34 2.07-.54 1.42 2.01 2.75.55 3.3-1.47.55-1.21-2.84-2.27-1.56-1.05 1.29 2.04 3.91-.36 4.33-2.4.43-.14-4.02-1.25-4.09-1.12-.06-1.04 3.23-2.52 2.16-1.48-1.07.45-1.5 1.49-2.62Z"/><path fill="#FFA459" d="M136.51 148.06c-2.74 2.3-7.89-.45-8.02-3.2 1.26-3.4 13.67 2.47 11.9 3.65-1.76 1.18-2.75-1.38-3.88-.45Z"/><path fill="#81B64C" d="M125.1 144.99c-2.59-2.53 4.97-8.74 9.14-6.86 3.78 1.74 4.35 3.78 3.75 6.31-.6 2.54-10.3 3.07-12.9.55Z"/><path fill="#81B64C" d="M138.7 156.83c7.6-1.86 9.9-7.87 4.3-10.6-1.9-.73-5.88-1.94-6.6-1-.9 1.16 2.29 3.15 5.15 4.21.78.67.24 4.05-1.88 3.87-2.12-.18-3.68-2.83-4.23-1.03-.55 1.8 3.3 1.14 1.77 2.18-1.53 1.03-5.45-1.87-5.63.52-.19 2.4 5.03.05 5.26 1.03.22.97-5.59 1.57-3.53 3.46 2.05 1.9 3.17-2.06 5.38-2.64Z"/><path fill="#FFA459" d="M133.3 159.47c2.06 1.9 3.18-2.06 5.4-2.64 1.18-.3 2.19-3.42.97-3.52-2.12-.18-3.68-2.83-4.23-1.03-.54 1.8 3.3 1.14 1.77 2.18-1.53 1.03-5.45-1.87-5.63.52-.19 2.4 5.03.05 5.26 1.03.22.97-5.59 1.57-3.53 3.46ZM154.7 153.88c1.67-.7-2.1-3.2.54-5.21.33-.9-6.24-1.35-6.45-.54-.2.8 1.75-.11 1.98 1.08.24 1.2-3.16.15-2.66 1.7.5 1.54 2.99-.89 3.4.16.43 1.06-4.83 2.42-2.7 3.94 2.11 1.53 2.44-3.27 3.8-3.06 1.38.21.43 2.63 2.1 1.93Z"/><path fill="#81B64C" d="M152.41 142.13c-.18-.7-.94-2.19-2.5-2.63-.56.15-1.76.92-2.18 2.87-.68 4.32 4.38 7.22 7.03 7 2.65-.23 1.1-9.78-.67-9.52-1.41.22-1.7 1.6-1.68 2.28Z"/><path fill="#FFA459" d="M123.6 152.89c-1.48-1.07.45-1.5 1.49-2.62.36-.39.45-1.24.58-2.25.12-1.41 4.11-.15 3.78.72-.54 1.43 2.01 2.76.54 3.31-1.46.55-1.2-2.84-2.26-1.56-1.05 1.29 2.04 3.91-.36 4.33-2.4.43-.14-4.02-1.25-4.09-1.12-.07-1.04 3.23-2.52 2.16Z"/><circle cx="129.32" cy="139.09" r="2.38" fill="#312E2B" transform="rotate(4.78 129.32 139.09)"/><circle cx="129.84" cy="138.68" r=".83" fill="#F1F1F1" transform="rotate(4.78 129.84 138.68)"/><circle cx="134.45" cy="141.77" r="2.33" fill="#312E2B" transform="rotate(4.78 134.45 141.77)"/><circle cx="135.37" cy="141.14" r=".71" fill="#F1F1F1" transform="rotate(4.78 135.37 141.14)"/><ellipse cx="148.72" cy="142.69" fill="#5D9948" rx=".54" ry="2.41" transform="rotate(6.54 148.72 142.7)"/><path fill="#5D9948" d="M142.26 148.55c-2.48-.2-4.85-2.06-5.31-2.99-.46-.93 2.4 2 6.22 1.54 3.81-.45 3.94-2.58 3.8-1.02-.12 1.57-2.23 2.67-4.71 2.47ZM130.08 146.01c2.77.06 5.58-.3 6.2-1 .6-.7-2.86.46-7.06-.23-4.2-.7-4.1-2.42-4.12-1.16-.03 1.26 2.2 2.33 4.98 2.39Z"/><ellipse cx="153.04" cy="143.9" fill="#5D9948" rx=".3" ry="1.26" transform="rotate(-17.49 153.04 143.9)"/><ellipse cx="143.29" cy="148.28" fill="#81B64C" rx="1.86" ry="1.75" transform="rotate(6.54 143.3 148.28)"/><path fill="#000" fill-opacity=".15" d="M74.73 153.84c-5.93 4.13-1.98 6.22 3.13 5.03-2.43 2.99 1.4 3.5 6.3 1.65-.52 1.52 5.48-.28 8.36-3.87.27-.03 1.02-.42 1.89-1.7 1.08-1.61 2.19-4.83 1.46-5.3.03-1.56-1.8-4.02-2.85-4.4.33-1.33-3.2-1.56-5.66-1.83-1.97-.22-2.98.36-3.23.68-2.74-.3-10.88 2.63-7.32 4.03-5.71 2.62-6.12 5.26-2.08 5.7Z"/><path fill="#FA466A" d="M85.24 142.96c2.6-5.08 7.46-3.12 8.46.56 2.83-2.46 5.48-.11 5.47 3.63 1.8-.8 2.42 3.65-1 6.58.08.18-.06.79-1.36 1.73-1.63 1.18-5.45 2.84-6.46 2.5-2.12.48-6.4 0-7.46-.56-1.64.6-3.76-1.63-5.39-3.15-1.3-1.22-1.02-2.05-.72-2.3-1.81-1.7-1.98-7.87 1.76-5.96.64-4.5 4.03-5.53 6.7-3.03Z"/><path fill="#ED2456" d="m80.3 147-1.49-.9c.08-.98.65-3.12 2.31-3.94-.69 1.2-1.95 3.68-1.46 4 .49.32.63.7.64.84ZM77.2 151.25c-.44-1.02-1.17-3.48-.64-5.19-.56.29-.82 1.57-.68 3.09.12 1.2.8 2.29 1.13 2.68.35-.1 1.23-.1 1.99.71 1.02.46 3.19.97 4.15 1.17-.32-.35-1.2-1.3-2.16-2.3-.97-1.01-.32-2.08.13-2.48a1.97 1.97 0 0 1-.3-1.5c-3.26-.92-3.75.79-2.54 1.27 1.2.48 1.28.87.24.98-.82.08-1.23 1.08-1.32 1.57Z"/><path fill="#ED2456" d="M79.3 153.56c-1.1-1.27-1.83-1.62-2.35-1.43-.1.23-.14.87.56 1.62.88.94 3.26 3.46 4.96 3.47-.56-.2-.52-.74-.43-.98l-.45.13c-.4-.52-1.4-1.8-2.28-2.81ZM87.55 156.01c-1.67-1.07-2.8-.9-4.92.07-.2.18-.41.65.26 1.04 1.18.86 7.17.92 7.8.63.63-.3.2-1.32-.5-1.3.36.38-.1 1-.15.98-.05-.01-.81-.34-2.49-1.42ZM94.07 156.12c-.52-.15.2-1.56 1-2.55a15.48 15.48 0 0 0-3.83 3.15c.06.1.13.46-.11 1.01 1.21-.19 3.2-1.22 4.03-1.71-.19.08-.67.22-1.09.1Z"/><path fill="#ED2456" d="M97.98 153.35c.69-1.57 1.93-4.96 1.45-5.98-.13-.24-2.58.97-3.79 1.6.03.21-.06.82-.7 1.63 1.07 1.55-1.65 3.05-3.14 3.6.18.1.84.2 2.02-.07 2.02-1.6 3.62-1.18 4.16-.78ZM95.86 142.74c1.5-.02 2.77 2.41 2.72 4.67l-2.95 1.18a5.09 5.09 0 0 0-2.12-3.57c.18-1.32 1.3-2.26 2.35-2.28Z"/><path fill="#ED2456" d="M92.94 149.34c1.06.26 1.65.83 1.8 1.09 1.05-2.9-3.4-7.19-4.5-5 1.2 1.25 1.02 3.18.78 3.99l.42-.1c-.01-.7.11-2.08.74-2.06.79.03 1.06.64.76 2.08ZM87.7 155.15c.53-1.27 1.92-4.15 3.18-5.44-.55.7-1.24 5.41-.54 4.88.7-.53 3.22-2.6 4.42-3.91.22.5.2 1.37-.73 2.03a52.5 52.5 0 0 1-5.2 2.95c-.23-.13-.85-.39-1.13-.5ZM84.62 152.8c-.78-.07-.8-4.03-2.28-4.04-1.9.2-1.63 1.76-.96 2.52.67.76 2.32 2.57 3.55 3.7a5.2 5.2 0 0 1 2.06.07c.06-.02.08-.2-.27-.84-.94-.3-1.27-1.47-1.3-1.58-.02-.08-.02.22-.8.16Z"/><path fill="#ED2456" d="M81.2 147.7c0-.93 1.15-2.63 3.49-3.75.1.21.11.77-.78 1.33-1.1.7-1.85 2.6-1.7 2.5l1.27-.73c-.11.19-.36.75-.47 1.51-.73-.2-1.41.13-1.66.32a3.04 3.04 0 0 1-.15-1.19ZM84.15 146.76c.47-.1 1.53-.18 1.95.18-.08.63-.16 2.14.24 3.17a18.62 18.62 0 0 1-2.2-3.35ZM89.17 151.7c.02-.13 0-.45-.26-.63-.63.38-1.99-.5-2.12-.9-.2-.02-1.53.54-1.36 1.69a3.1 3.1 0 0 0 1.42 2.16c.41.27.4.74.33.94l.33.07 1.66-3.32Z"/><path fill="#ED2456" d="M89.36 151.2a4.6 4.6 0 0 1 1.36-1.66c.9-3.52-1.57-5.34-3.16-4.49-1.6.85-1.39 3.56-.88 4.95 1-.36 2.42.11 2.68 1.2ZM85.11 143.18l-1.11-.8c-.67.48-1.99 1.77-1.86 3.06a7.34 7.34 0 0 1 2.87-1.85l.1-.4Z"/><path fill="#ED2456" d="M93.29 144.76c.02-.4.22-.86.32-1.04l-.83.16c-.37-1.19-1.64-3.59-3.66-3.66-2.01-.07-3.41 2.16-3.86 3.28 1.2-.27 2.17.76 2.51 1.3a2.5 2.5 0 0 1 2.36.47c.73-1.8 1.9-1.65 3.16-.5Z"/><path fill="#FF949D" d="M97.7 153.53c-.98-.3-2.14-.3-2.6.72-.44 1.02 3.45-.49 2.6-.72ZM95.1 147.6c-1.26-2.63-3.36-3.97-3.96-3.22-.25.31 1.72-.28 3.61 3.23.8 1.46.55.37.36-.02ZM93.67 149.84c-.98-.3-2.15-.29-2.6.73-.44 1.02 3.45-.5 2.6-.73ZM85.13 151.79c-.16-.65-1.17-2.86-1.47-2.85-.3.01.52 1.46.82 2.87.18.85.8.62.65-.02ZM100.15 147.89c-.4.03-1.15 4.48-.52 3.49.62-1 .93-3.53.52-3.5ZM87.13 155.3c-.13.33 3.28 2.16 2.7 1.4-.6-.77-2.58-1.71-2.7-1.4ZM79.45 153.06c-.27.26 2.76 3.66 2.41 2.63-.34-1.02-2.15-2.9-2.41-2.63Z"/><path fill="#000" fill-opacity=".15" d="M57.52 167.4c-3.6 2.5-1.2 3.76 1.9 3.04-1.48 1.81.84 2.12 3.8 1-.31.92 3.32-.17 5.06-2.34.17-.02.62-.26 1.15-1.03.66-.98 1.32-2.92.89-3.21.01-.95-1.1-2.43-1.73-2.67.2-.8-1.94-.94-3.43-1.1-1.19-.13-1.8.22-1.96.4-1.65-.17-6.58 1.6-4.42 2.45-3.46 1.59-3.7 3.19-1.26 3.46Z"/><path fill="#FA466A" d="M63.88 160.81c1.57-3.07 4.51-1.89 5.12.34 1.7-1.49 3.31-.07 3.3 2.2 1.1-.48 1.47 2.2-.6 3.98.05.11-.03.48-.82 1.05-.99.71-3.3 1.72-3.91 1.52-1.28.28-3.88 0-4.52-.35-1 .36-2.27-.99-3.26-1.9-.79-.74-.62-1.25-.44-1.4-1.1-1.03-1.2-4.76 1.07-3.6.39-2.72 2.44-3.35 4.06-1.84Z"/><path fill="#ED2456" d="m60.89 163.26-.9-.55c.04-.59.39-1.89 1.4-2.38-.42.72-1.19 2.22-.89 2.42.3.2.38.42.39.5ZM59 165.83c-.25-.62-.7-2.1-.37-3.14-.34.17-.5.95-.41 1.87.06.73.48 1.38.68 1.62.2-.06.74-.06 1.2.43.62.28 1.93.58 2.51.7l-1.3-1.39c-.6-.6-.2-1.25.08-1.5a1.2 1.2 0 0 1-.19-.9c-1.97-.56-2.27.47-1.54.77.73.29.78.52.15.59-.5.05-.74.65-.8.95Z"/><path fill="#ED2456" d="M60.29 167.23c-.67-.77-1.11-.98-1.43-.87-.06.14-.09.53.34.98.53.57 1.97 2.1 3 2.1-.34-.12-.31-.44-.26-.59l-.27.08c-.24-.31-.85-1.09-1.38-1.7ZM65.28 168.71c-1.01-.65-1.7-.55-2.98.04-.12.11-.25.4.15.63.72.53 4.35.56 4.73.38.38-.17.12-.8-.31-.78.22.23-.06.6-.09.6-.03-.02-.49-.21-1.5-.87ZM69.22 168.78c-.31-.1.12-.95.6-1.55a9.37 9.37 0 0 0-2.31 1.91c.04.07.08.28-.07.61a8.99 8.99 0 0 0 2.44-1.03c-.11.05-.4.13-.66.06Z"/><path fill="#ED2456" d="M71.6 167.1c.4-.95 1.16-3 .87-3.62-.08-.14-1.56.59-2.3.97.02.13-.03.5-.42.99.65.93-1 1.84-1.9 2.18.1.05.5.12 1.22-.05 1.22-.97 2.2-.72 2.52-.47ZM70.3 160.68c.92-.02 1.68 1.46 1.66 2.82l-1.8.72a3.08 3.08 0 0 0-1.28-2.16c.11-.8.79-1.37 1.43-1.38Z"/><path fill="#ED2456" d="M68.54 164.67c.64.16 1 .5 1.1.66.63-1.76-2.07-4.35-2.74-3.02.74.75.62 1.92.47 2.41l.26-.06c0-.42.07-1.26.45-1.24.48.01.64.38.46 1.25ZM65.37 168.2c.32-.78 1.16-2.52 1.92-3.3-.33.42-.75 3.27-.32 2.95.42-.32 1.95-1.58 2.67-2.37.13.3.12.83-.44 1.24-.56.4-2.37 1.41-3.14 1.78-.15-.08-.52-.24-.7-.3ZM63.5 166.76c-.47-.03-.49-2.43-1.38-2.44-1.15.12-.98 1.07-.58 1.53.41.46 1.4 1.56 2.15 2.24.53-.1 1.05-.01 1.25.04.03-.01.04-.12-.17-.51-.57-.18-.77-.91-.78-.96-.02-.04-.01.14-.49.1Z"/><path fill="#ED2456" d="M61.43 163.68c0-.56.7-1.6 2.11-2.27.07.13.07.47-.46.8-.68.43-1.13 1.58-1.04 1.52l.77-.44c-.06.11-.22.45-.28.91-.45-.12-.86.08-1 .2-.04-.06-.1-.28-.1-.72ZM63.22 163.11c.28-.05.92-.1 1.18.11-.05.38-.1 1.3.14 1.92a11.27 11.27 0 0 1-1.32-2.03ZM66.26 166.1c.01-.08 0-.27-.16-.38-.38.23-1.2-.3-1.28-.54-.12-.01-.93.32-.83 1.02.1.7.55 1.1.86 1.3.25.17.24.45.2.57l.2.05 1-2.02Z"/><path fill="#ED2456" d="M66.37 165.8c.17-.41.67-.93.83-1 .54-2.14-.95-3.24-1.92-2.72-.96.51-.84 2.15-.53 2.99.6-.21 1.47.07 1.62.73ZM63.8 160.95l-.67-.5c-.4.3-1.2 1.08-1.13 1.86a4.45 4.45 0 0 1 1.74-1.12l.06-.24Z"/><path fill="#ED2456" d="M68.75 161.9c.01-.25.14-.52.2-.63l-.5.1c-.23-.72-1-2.17-2.22-2.22-1.22-.04-2.07 1.3-2.34 1.98.72-.15 1.31.47 1.52.8.34-.14.95-.12 1.43.28.44-1.1 1.14-1 1.91-.3Z"/><path fill="#000" fill-opacity=".15" d="M159.37 176.32c-4.67-.4-13.57 2.8-14.4 4.04-.84 1.25-1.18 3.36-.59 3.84 1.9.9 8.23 2.45 9.7 2.4 3.22-.1 7.54-3.8 8.44-4.34.9-.54 1.51-5.55-3.15-5.94Z"/><path fill="url(#a)" d="M159.33 170.19c-3.86-.62-11.22 4.37-11.91 6.31-.7 1.95-.97 5.26-.48 6 1.56 1.4 6.56 3.61 7.78 3.54 2.65-.16 7.56-3.92 8.31-4.76.75-.85.16-10.48-3.7-11.1Z"/><path fill="#F6F4EF" d="M158.84 171.24c-3.34-.54-8.14 2.99-9.3 4.58-1.17 1.59-.56 3.14 5.98.42 1.95-.81 7.62-4.32 3.32-5Z" opacity=".5"/><path fill="url(#b)" d="M162.31 175.65c-.51-2.35-5.67 1.57-5.06 2.47 1.78 2.62-.55 6.8 1.78 5.47a14 14 0 0 0 3.43-2.52c.36-.4.39-2.95-.15-5.42Z"/><path fill="#605D71" d="M154.7 185.48c2.65-.16 2.87-4.47 1.87-6.54-1.87-3.87-6.06 2.61-8.56-2-.69 1.95-1.13 4.42-.64 5.17 1.56 1.4 6.1 3.45 7.32 3.37Z" opacity=".3"/><path fill="url(#c)" d="M134.52 231.74c.9-2.92 5.72-5.57 8.17-6.31 2.97-.85 12.3 1.9 13.79 3.18 1.48 1.27 2.97 7.21 2.97 10.24 0 3.02-3.81 9.77-6.25 10.46-2.44.7-11.28 1.9-13.77 1-2.5-.9-6.72-4.94-7.67-6.95-1.97-4.35 2.23-10.24 2.76-11.62Z"/><path fill="url(#d)" d="M156.56 229.84c1.05 2.2 2.2 6.71 2.2 8.96 0 1.95-1.66 5.52-3.45 7.83-.86 1.1-3.68-7.22-4.24-8.23-.3-.54 1.44-2.58 3-4.56 1.44-1.86 2.3-4.41 2.49-4Z" opacity=".2"/><path fill="#605D71" d="M132.37 243.13c-1.95-4.33 2.23-11.11 3.06-10.06 2 3.5 6.32 4.38 5.4 5.42-.94 1.04-2.96 5.54-2.96 9.5.1 2.01-5.01-3.83-5.5-4.86Z" opacity=".5"/><path fill="#B2A9AE" d="M152.3 248.6c-2.21.63-10.61 2.37-12.99.9-2.37-1.48 1.3-11.07 2.67-11 1.37.06 6.9-.38 7.71-.76.82-.39 4.81 10.24 2.6 10.86Z" opacity=".5"/><path fill="#FEFDF8" d="M135.5 230.98c.53-1.18 4.67-4.3 7.07-5.03 2.93-.83-6.4 3.96-6 5.43.4 1.47 2.58 4.19 5.58 4.99 2.53.67 6.28.18 8.09 0 .53-.06 5.36-6.13 5.23-6.77-.12-.63-8.49-3.04-8.32-3.28.28-.21 8.1 1.56 8.8 2.91.73 1.35-4.23 7.26-5.48 7.84-1.24.57-7.3.78-8.49.43-3.76-1.12-7-5.34-6.48-6.52Z" opacity=".8"/><path fill="#45753C" d="M141.14 245.46c2.93-3.7 4.4.81 4.91 4.2l8.1 1.03c-4.42.66-11.85 3.06-13.97.24-7.2 1.9-10.75-1.95-9.54-8.6.7-3.9 3.95 1.3 5.74 4.89 0 0-.8-2.28.45-6.48 1.25-4.2 3.4 1.4 4.31 4.72Z"/><path fill="#5D9948" d="M151.38 248.64c-.6-3.43 1.3-6.85 5.3-4.21-.17-3.5.11-9.57 2.66-5.92 2.02 2.9 2.47 5.2 2.42 6.45.67-4.09 2.24-10.22 4.04-6.9 1.93 3.54 1.4 5.58.9 6.16-.48 2.53-1.37 3.2-4.78 3.33-.57 2.06-1.38 2.54-3.59 2.5-1.48 3.35-7.17 5.23-13.19 2.18l6.24-3.59Z"/><g filter="url(#e)"><path fill="#fff" stroke="#F8F8F8" stroke-width=".25" d="M113.86 100.85c-.2-.17-.53-.22-.93-.2-.8.04-1.94.35-3.07.65a10 10 0 0 0-2.33-1.02 1.72 1.72 0 0 0-1.03.05c-.32.14-.57.41-.73.81-.16.4-.13.69.07.86.2.17.53.22.93.2.78-.05 1.9-.35 3-.64.82.44 1.67.9 2.38 1.04.36.07.72.08 1.03-.06.33-.14.58-.41.74-.82.16-.4.14-.7-.06-.87Z"/><path fill="#fff" stroke="#F8F8F8" stroke-width=".25" d="M112.07 98.86c-.34.03-.65.21-.91.45-.53.48-1 1.28-1.45 2.06-1.1.28-2.22.58-2.9.92-.36.18-.62.38-.7.62-.07.25.08.5.43.77.36.25.72.36 1.07.32.35-.04.65-.22.91-.46.51-.47.97-1.25 1.41-2 1.13-.3 2.28-.6 2.98-.95.35-.18.61-.39.68-.63.07-.25-.08-.5-.44-.77a1.52 1.52 0 0 0-1.08-.33Z"/><path fill="#fff" stroke="#F8F8F8" stroke-width=".25" d="M107.77 99.63a.9.9 0 0 0 .15.39c.16.25.44.5.76.75.3.24.66.49 1.02.73a17 17 0 0 0-.38 1.07c-.1.37-.18.72-.16 1 0 .15.04.3.11.4.07.13.18.22.32.28.27.11.66.09 1.2-.06.52-.15.86-.33 1.02-.56a.56.56 0 0 0 .1-.39.89.89 0 0 0-.16-.39c-.17-.24-.45-.5-.77-.75l-.97-.69c.14-.38.29-.77.39-1.12a3 3 0 0 0 .16-1.01.88.88 0 0 0-.12-.4.65.65 0 0 0-.32-.27c-.28-.1-.68-.09-1.21.06-.54.15-.88.34-1.04.57a.57.57 0 0 0-.1.39Z"/><path fill="#F7C631" stroke="#E3AA24" stroke-width=".51" d="M109.75 100.5c-.47.11-.85.33-1.1.6-.24.25-.33.52-.27.74.05.23.24.43.58.55.33.13.77.16 1.24.05.46-.11.85-.33 1.09-.59.24-.26.33-.52.28-.75-.06-.22-.25-.43-.58-.55a2.22 2.22 0 0 0-1.24-.05Z"/></g><g filter="url(#f)"><path fill="#F7C631" stroke="#FAD541" stroke-width=".25" d="M138.13 101.54c-.25-.17-.66-.22-1.15-.21-1 .02-2.4.31-3.8.6a16.07 16.07 0 0 0-3.05-1.07c-.46-.08-.89-.1-1.25.03a1.32 1.32 0 0 0-.83.8c-.09.2-.11.38-.08.53.03.15.11.27.24.35.25.17.66.21 1.16.2a25.1 25.1 0 0 0 3.7-.6l.01.01c1.1.46 2.2.93 3.12 1.1.46.08.9.09 1.26-.04a1.34 1.34 0 0 0 .83-.81c.08-.21.11-.39.08-.54a.54.54 0 0 0-.24-.35Z"/><path fill="#F7C631" stroke="#FAD541" stroke-width=".25" d="M136.34 98.83c-.4.08-.78.31-1.14.62a16.1 16.1 0 0 0-2.17 2.55c-1.37.47-2.75.93-3.63 1.4-.44.25-.78.5-.92.78a.51.51 0 0 0-.02.42c.05.14.17.28.36.41a1.41 1.41 0 0 0 1.18.26c.38-.08.76-.3 1.12-.61a16 16 0 0 0 2.12-2.5c1.4-.47 2.82-.95 3.71-1.44.45-.24.79-.5.92-.77a.52.52 0 0 0 .01-.43 1 1 0 0 0-.36-.42 1.45 1.45 0 0 0-1.19-.27Z"/><path fill="#F7C631" stroke="#FAD541" stroke-width=".25" d="M130.86 98.93c-.14.3-.06.65.13.99.2.34.5.7.87 1.08.35.37.77.75 1.18 1.13-.1.5-.2 1-.26 1.46-.07.5-.1.96-.05 1.34.05.38.19.7.49.89.3.18.7.2 1.25.04.53-.15.87-.37 1-.67.13-.3.04-.65-.15-.98-.2-.35-.5-.71-.87-1.09-.34-.35-.74-.7-1.13-1.07.1-.52.21-1.05.28-1.53a5 5 0 0 0 .04-1.34c-.06-.38-.2-.7-.5-.89-.3-.18-.72-.19-1.26-.03-.55.15-.89.37-1.02.67Z"/><ellipse cx="1.13" cy=".74" fill="#FCE26A" rx="1.13" ry=".74" transform="scale(-1 1) rotate(13.11 -507.26 -533.7)"/></g><g filter="url(#g)"><path fill="#F7C631" stroke="#FAD541" stroke-width=".25" d="M130.68 257.13c-.69.02-1.68.22-2.64.42-.75-.32-1.5-.63-2.12-.75a1.82 1.82 0 0 0-.9.02.96.96 0 0 0-.61.6.69.69 0 0 0-.06.38c.02.11.09.2.18.26.18.12.48.16.83.15a17.6 17.6 0 0 0 2.58-.41c.76.32 1.53.65 2.18.76.31.06.63.06.9-.03a1 1 0 0 0 .6-.6.7.7 0 0 0 .07-.39.4.4 0 0 0-.18-.26c-.18-.12-.48-.16-.83-.15Z"/><path fill="#F7C631" stroke="#FAD541" stroke-width=".25" d="M129.4 255.83c-.5.43-1.02 1.11-1.52 1.78-.94.32-1.9.65-2.52.98-.31.17-.56.36-.66.55-.04.1-.05.21-.01.32.04.1.13.2.26.3.13.1.27.16.42.2.15.02.3.02.44-.01.29-.06.56-.23.81-.44.5-.42 1-1.09 1.48-1.74.97-.33 1.96-.66 2.58-1 .31-.17.56-.36.65-.56.05-.1.06-.2.02-.31a.73.73 0 0 0-.27-.3 1.07 1.07 0 0 0-.87-.2 1.9 1.9 0 0 0-.81.43Z"/><path fill="#F7C631" stroke="#FAD541" stroke-width=".25" d="M126.46 256.2c.14.24.36.5.61.76s.53.52.81.78l-.18 1c-.05.34-.07.67-.03.94.03.27.14.51.36.65.22.13.52.14.9.03.38-.1.63-.26.72-.49.1-.22.04-.47-.1-.72a4 4 0 0 0-.62-.76c-.23-.24-.5-.49-.77-.73.08-.36.15-.72.2-1.06.04-.34.06-.67.02-.94-.04-.27-.14-.5-.37-.64-.22-.14-.53-.14-.91-.03-.38.1-.63.26-.73.49-.1.23-.04.48.1.72Z"/><ellipse cx=".79" cy=".52" fill="#FCE26A" rx=".79" ry=".52" transform="scale(-1 1) rotate(13.11 -1183.15 -431.92)"/></g><g fill="#FA466A" stroke="#FF788A" stroke-width=".25" filter="url(#h)"><path d="M143.2 267.76c-.23-.03-.5-.02-.8 0l-.9.12c-.16-.17-.3-.34-.46-.49a2.27 2.27 0 0 0-.52-.4.8.8 0 0 0-.6-.08 1.1 1.1 0 0 0-.58.48c-.17.24-.23.45-.15.6.07.15.27.22.49.25.22.02.5.01.8-.02.27-.02.56-.06.85-.1.16.18.32.36.48.51.17.17.34.31.53.4a.8.8 0 0 0 .6.07c.23-.07.42-.24.58-.48.17-.25.23-.45.16-.6-.07-.16-.27-.23-.49-.26Z"/><path d="M141.29 266.55c-.07.2-.09.44-.08.7 0 .23.03.49.06.74-.28.18-.56.37-.8.55-.28.2-.53.39-.7.57-.15.19-.26.39-.18.56.07.16.3.27.64.34.35.07.65.06.88-.05.24-.1.37-.3.44-.5s.08-.45.07-.7c0-.23-.03-.47-.06-.71.3-.2.6-.39.85-.57.28-.2.52-.4.68-.59.17-.18.26-.38.19-.55-.08-.17-.3-.28-.66-.34a1.47 1.47 0 0 0-.88.04.82.82 0 0 0-.45.5Z"/></g><defs><radialGradient id="a" cx="0" cy="0" r="1" gradientTransform="matrix(0 11.4398 -11.6595 0 155 174.76)" gradientUnits="userSpaceOnUse"><stop offset=".65" stop-color="#DAD2CE"/><stop offset="1" stop-color="#817B89"/></radialGradient><radialGradient id="b" cx="0" cy="0" r="1" gradientTransform="matrix(0 9.169 -13.4746 0 153.13 176.55)" gradientUnits="userSpaceOnUse"><stop offset=".5" stop-color="#DAD2CE"/><stop offset=".9" stop-color="#F7F4EF"/></radialGradient><radialGradient id="c" cx="0" cy="0" r="1" gradientTransform="matrix(0 18.2375 -19.7918 0 145.34 232.65)" gradientUnits="userSpaceOnUse"><stop offset=".65" stop-color="#DAD2CE"/><stop offset="1" stop-color="#817B89"/></radialGradient><radialGradient id="d" cx="0" cy="0" r="1" gradientTransform="matrix(0 17.3788 -18.86 0 145.34 232.9)" gradientUnits="userSpaceOnUse"><stop offset=".5" stop-color="#DAD2CE"/><stop offset=".9" stop-color="#F7F4EF"/></radialGradient><filter id="e" width="8.63" height="8.06" x="105.53" y="98.42" color-interpolation-filters="sRGB" filterUnits="userSpaceOnUse"><feFlood flood-opacity="0" result="BackgroundImageFix"/><feColorMatrix in="SourceAlpha" result="hardAlpha" values="0 0 0 0 0 0 0 0 0 0 0 0 0 0 0 0 0 0 127 0"/><feOffset dy="2.03"/><feComposite in2="hardAlpha" operator="out"/><feColorMatrix values="0 0 0 0 0 0 0 0 0 0 0 0 0 0 0 0 0 0 0.15 0"/><feBlend in2="BackgroundImageFix" result="effect1_dropShadow_4986_333229"/><feBlend in="SourceGraphic" in2="effect1_dropShadow_4986_333229" result="shape"/></filter><filter id="f" width="10.7" height="10.1" x="127.82" y="98.02" color-interpolation-filters="sRGB" filterUnits="userSpaceOnUse"><feFlood flood-opacity="0" result="BackgroundImageFix"/><feColorMatrix in="SourceAlpha" result="hardAlpha" values="0 0 0 0 0 0 0 0 0 0 0 0 0 0 0 0 0 0 127 0"/><feOffset dy="2.03"/><feComposite in2="hardAlpha" operator="out"/><feColorMatrix values="0 0 0 0 0 0 0 0 0 0 0 0 0 0 0 0 0 0 0.15 0"/><feBlend in2="BackgroundImageFix" result="effect1_dropShadow_4986_333229"/><feBlend in="SourceGraphic" in2="effect1_dropShadow_4986_333229" result="shape"/></filter><filter id="g" width="7.62" height="7.81" x="124.21" y="254.79" color-interpolation-filters="sRGB" filterUnits="userSpaceOnUse"><feFlood flood-opacity="0" result="BackgroundImageFix"/><feColorMatrix in="SourceAlpha" result="hardAlpha" values="0 0 0 0 0 0 0 0 0 0 0 0 0 0 0 0 0 0 127 0"/><feOffset dy="2.03"/><feComposite in2="hardAlpha" operator="out"/><feColorMatrix values="0 0 0 0 0 0 0 0 0 0 0 0 0 0 0 0 0 0 0.15 0"/><feBlend in2="BackgroundImageFix" result="effect1_dropShadow_4986_333229"/><feBlend in="SourceGraphic" in2="effect1_dropShadow_4986_333229" result="shape"/></filter><filter id="h" width="4.83" height="5.33" x="139.02" y="265.84" color-interpolation-filters="sRGB" filterUnits="userSpaceOnUse"><feFlood flood-opacity="0" result="BackgroundImageFix"/><feColorMatrix in="SourceAlpha" result="hardAlpha" values="0 0 0 0 0 0 0 0 0 0 0 0 0 0 0 0 0 0 127 0"/><feOffset dy="1"/><feComposite in2="hardAlpha" operator="out"/><feColorMatrix values="0 0 0 0 0 0 0 0 0 0 0 0 0 0 0 0 0 0 0.15 0"/><feBlend in2="BackgroundImageFix" result="effect1_dropShadow_4986_333229"/><feBlend in="SourceGraphic" in2="effect1_dropShadow_4986_333229" result="shape"/></filter></defs></svg>