<svg xmlns="http://www.w3.org/2000/svg" width="188" height="368" fill="none"><ellipse cx="54.78" cy="86.25" fill="url(#a)" opacity=".2" rx="44.02" ry="36.13"/><ellipse cx="55.23" cy="165.51" fill="#57534F" rx="10.99" ry="9.53"/><ellipse cx="55.23" cy="165.51" fill="#4B4847" rx="10.52" ry="9.12"/><path fill="url(#b)" fill-opacity=".5" fill-rule="evenodd" d="M64.83 163.47c.01-1-.27-1.75-.78-2.13l.34-.96c.82.6 1.2 1.78 1.2 3.1a9.05 9.05 0 0 1-1.17 4.17 9.98 9.98 0 0 1-9.07 5.2 10.6 10.6 0 0 1-9.1-4.86 8.27 8.27 0 0 1-1.36-4.16 4.24 4.24 0 0 1 1.36-3.44l.38.94a3 3 0 0 0-1 2.47c.03 1.03.4 2.26 1.16 3.46a9.95 9.95 0 0 0 8.56 4.5c4.37 0 7.14-2.31 8.48-4.77.68-1.24 1-2.5 1-3.52Z" clip-rule="evenodd"/><ellipse cx="55.24" cy="161.78" fill="#57534F" rx="8.68" ry="7.53"/><ellipse cx="55.23" cy="161.26" fill="#4B4847" rx="8.09" ry="7.01"/><path fill="url(#c)" fill-opacity=".5" d="M58.37 160.1c0-1.34-1.3-2.61-3.13-2.61-1.83 0-3.13 1.27-3.13 2.61 0 1.35 1.3 2.61 3.13 2.61v.76c-2.15 0-3.89-1.5-3.89-3.37 0-1.86 1.74-3.37 3.89-3.37 2.15 0 3.89 1.5 3.89 3.37 0 1.86-1.74 3.37-3.9 3.37v-.76c1.84 0 3.14-1.26 3.14-2.6Z"/><path fill="#312E2B" d="M53.1 132.08a3.6 3.6 0 0 1 4.52 0c.62.54.94 1.23.94 1.93v26.38h-.01a2.56 2.56 0 0 1-.93 1.72 3.6 3.6 0 0 1-4.53 0 2.56 2.56 0 0 1-.92-1.72h-.01v-26.38c0-.7.3-1.4.93-1.93Z"/><path fill="#4B4847" d="M57.66 134.01c0-.42-.19-.87-.62-1.24a2.7 2.7 0 0 0-3.36 0c-.44.37-.63.82-.63 1.24v26.24l.01.06c.04.38.22.78.62 1.12a2.7 2.7 0 0 0 3.36 0c.39-.34.58-.74.61-1.12v-26.3Zm.9 26.38h-.01a2.57 2.57 0 0 1-.93 1.72l-.12.1a3.62 3.62 0 0 1-4.29 0l-.12-.1a2.57 2.57 0 0 1-.92-1.72h-.01v-26.38c0-.65.27-1.3.82-1.82l.11-.1a3.6 3.6 0 0 1 4.53 0c.62.53.94 1.22.94 1.92v26.38Z"/><circle cx="55.36" cy="146.73" r="7.57" fill="#57534F"/><ellipse cx="55.36" cy="143.18" fill="#625E59" rx="5.16" ry="3.3" transform="rotate(-180 55.36 143.18)"/><path fill="#FFB5B9" d="M58.84 147.49c0 .8-1.57 1.46-3.5 1.46s-3.5-.65-3.5-1.46c0-.8.32.2 3.5.2 3.19 0 3.5-1 3.5-.2Z" opacity=".5"/><path fill="#FFB5B9" d="M57.33 147.89c0 .3-.9.54-1.99.54-1.1 0-1.98-.24-1.98-.54 0-.3.17.08 1.98.08s1.99-.38 1.99-.08Z" opacity=".8"/><path fill="#312E2B" d="M53.1 114.12a3.6 3.6 0 0 1 4.52 0c.62.53.94 1.23.94 1.93v26.38h-.01a2.56 2.56 0 0 1-.93 1.72 3.6 3.6 0 0 1-4.53 0 2.57 2.57 0 0 1-.92-1.72h-.01v-26.38c0-.7.3-1.4.93-1.93Z"/><path fill="#4B4847" d="M57.66 116.05c0-.42-.19-.87-.62-1.24a2.7 2.7 0 0 0-3.36 0c-.44.37-.63.82-.63 1.24v26.23l.01.07c.04.38.22.78.62 1.11a2.7 2.7 0 0 0 3.36 0c.39-.33.58-.73.61-1.11V116.05Zm.9 26.38h-.01a2.56 2.56 0 0 1-.93 1.72l-.12.1a3.62 3.62 0 0 1-4.29 0l-.12-.1a2.56 2.56 0 0 1-.92-1.72h-.01v-26.38c0-.65.27-1.3.82-1.83l.11-.1a3.6 3.6 0 0 1 4.53 0c.62.53.94 1.23.94 1.93v26.38Z"/><circle cx="55.35" cy="133.61" r="6.32" fill="#57534F"/><path fill="#FFB5B9" d="M58.4 133.8c0 1.02-1.37 1.85-3.05 1.85-1.67 0-3.03-.83-3.03-1.86 0-1.02.27.26 3.03.26 2.77 0 3.04-1.28 3.04-.26Z" opacity=".5"/><path fill="#FFB5B9" d="M57.08 134.3c0 .38-.77.68-1.73.68-.95 0-1.72-.3-1.72-.68 0-.37.15.1 1.72.1 1.58 0 1.73-.47 1.73-.1Z" opacity=".8"/><path fill="#45413D" d="M49.86 142.56c-4.63 7.62 12.47 12.12 12.47 4.29a6.97 6.97 0 1 1-12.47-4.29ZM50.76 130.13c-3.87 6.35 10.4 10.1 10.4 3.58a5.82 5.82 0 1 1-10.4-3.58Z"/><ellipse cx="55.34" cy="130.65" fill="#625E59" rx="4.3" ry="2.75" transform="rotate(-180 55.34 130.65)"/><path fill="#312E2B" d="M53.09 101.56a3.6 3.6 0 0 1 4.53 0c.63.54.94 1.24.94 1.94v26.42a2.57 2.57 0 0 1-.94 1.72 3.6 3.6 0 0 1-4.53 0 2.57 2.57 0 0 1-.93-1.72h-.01V103.5c0-.7.31-1.4.94-1.94Z"/><path fill="#4B4847" d="M57.66 103.5c0-.43-.18-.88-.62-1.25a2.72 2.72 0 0 0-3.37 0c-.44.37-.62.82-.62 1.25v26.34c.04.38.23.78.62 1.12.92.78 2.45.78 3.37 0 .4-.34.58-.74.62-1.12V103.5Zm.9 26.42a2.57 2.57 0 0 1-.94 1.72l-.12.1a3.63 3.63 0 0 1-4.3 0l-.11-.1a2.57 2.57 0 0 1-.93-1.72h-.01V103.5c0-.66.27-1.32.82-1.84l.12-.1a3.61 3.61 0 0 1 4.53 0c.63.54.94 1.24.94 1.94v26.42Z"/><ellipse cx="54.78" cy="69.62" fill="url(#d)" opacity=".2" rx="37.96" ry="32.93"/><ellipse cx="54.78" cy="102.88" fill="url(#e)" opacity=".2" rx="37.96" ry="32.93"/><path fill="url(#f)" d="M43.28 55.16c6.7-5.7 17.54-5.7 24.23 0 3.34 2.85 5.02 6.6 5.01 10.33v42.23h-.05a13.72 13.72 0 0 1-4.96 9.2c-6.7 5.7-17.54 5.7-24.23 0-3-2.57-4.66-5.85-4.96-9.2h-.05V65.5c0-3.74 1.67-7.48 5.01-10.33Z"/><path fill="#FFB5B9" d="M44.72 74.6c-5.9-5.03-5.9-13.19 0-18.21 5.9-5.03 15.45-5.03 21.35 0 5.9 5.02 5.9 13.18 0 18.2-5.9 5.03-15.46 5.03-21.35 0Z" opacity=".5"/><ellipse cx="54.78" cy="165.51" fill="url(#g)" opacity=".4" rx="30.5" ry="26.45"/><path fill="#000" fill-opacity=".15" d="M90.23 187.13c6.05 0 11.67 3.18 14.85 8.4a11.1 11.1 0 0 0 5.7 4.66l11.84 4.27 3.59 8.65a12.96 12.96 0 0 0 5.97 6.52l1.87.98a15.9 15.9 0 0 1 8.5 14.12c0 6.4-3.79 12.18-9.61 14.65l-.73.31a10.49 10.49 0 0 0-5.74 6.06l-3.84 10.5-11.07 2.75c-2.83.7-5.25 2.57-6.66 5.16A16.85 16.85 0 0 1 90.13 283H88.2c-6.1 0-11.7-3.4-14.57-8.85a10.08 10.08 0 0 0-6.54-5.11l-11.5-2.79-3.52-10.34a10.4 10.4 0 0 0-5.81-6.25l-.52-.21a16.15 16.15 0 0 1-9.86-14.93c0-5.8 3.07-11.15 8.04-14.03l1.81-1.05a13.4 13.4 0 0 0 5.23-5.51l4.83-9.47 10.42-4.1c2.52-.98 4.7-2.67 6.32-4.86l.1-.15a20.01 20.01 0 0 1 16.13-8.22h1.47Z"/><path fill="#312E2B" d="M161.51 207.13c3.76-4.44 2.77-7.06-.4-8.29 0 1.76-.91 4.68-3.91 9.78-2.4 4.09-1 9.1 0 11.08l.48-2.03c-1.6-2.13.07-6.11 3.83-10.54ZM60.53 197.37c-4.34-.9-3.2-5.43-.66-5.73 3.62.75 10.54 2.8 9.2 4.96-1.68 2.72.63 6.76 3.45 12.08 2.83 5.3.15 15.6-3.45 14.12-4.9-2.06-2.73-6.69-.87-6.69 1.48 0 2.18.74 2.35 1.11.63-.58.77-3.1-3.75-8.54-5.64-6.8-7.43-8.03-6.27-11.31Z"/><path fill="#4B4847" fill-rule="evenodd" d="M115.83 141.32c6.53 0 12.58 3.42 16 9.03a9.76 9.76 0 0 0 5.01 4.1l12.4 4.48 3.81 9.2a11.62 11.62 0 0 0 4.9 5.6l.45.25 1.87.97a17.26 17.26 0 0 1 9.17 16.76c2.28.65 3.12 4.8-1.01 5.66 1.16 3.28-.63 4.5-6.27 11.3-4.52 5.44-4.38 7.97-3.75 8.55.17-.37.87-1.1 2.35-1.1 1.86 0 4.03 4.62-.86 6.68-3.61 1.48-6.28-8.81-3.46-14.12l.9-1.72a9.17 9.17 0 0 0-4 4.79l-4.1 11.17-.69.18-11.06 2.74a9.12 9.12 0 0 0-5.8 4.5 18.26 18.26 0 0 1-11.58 9c.51 2.34.31 4.86-.15 7.28-.41 2.12-1.02 4.17-1.53 5.95-.52 1.79-.92 3.3-.92 4.36 0 1.06.14 2.17.29 3.23.14 1.07.28 2.09.26 2.98-.02.88-.19 1.65-.67 2.2-.49.53-1.28.85-2.53.85-1.24 0-2-.4-2.43-1.05a4.12 4.12 0 0 1-.47-2.5c.05-.98.27-2.04.46-3.04.2-1 .38-1.94.38-2.67 0-1.17-.42-2.63-.97-4.3-.54-1.67-1.2-3.55-1.67-5.56-.56-2.4-.85-5-.33-7.64a17.9 17.9 0 0 1-11.8-9.12 8.74 8.74 0 0 0-5.65-4.43l-12.22-2.96-3.76-11.04a9.06 9.06 0 0 0-4.62-5.24l-.44-.2-.52-.22-.52-.23c.42.8.9 1.68 1.46 2.63 2.4 4.09 1 9.1 0 11.08l-.48-2.03c1.6-2.13-.07-6.11-3.83-10.54-1.67-1.97-2.4-3.59-2.42-4.88a17.6 17.6 0 0 1-4.9-12.2c0-6.27 3.32-12.07 8.71-15.19l1.82-1.05c2-1.16 3.63-2.88 4.7-4.96l5.06-9.93 10.9-4.27c2.28-.9 4.26-2.43 5.72-4.41l.1-.15a21.36 21.36 0 0 1 17.22-8.77h1.47Zm-1.47 1.35a20.01 20.01 0 0 0-16.13 8.22l-.1.14c-1.61 2.2-3.8 3.88-6.31 4.87L81.39 160l-4.83 9.46a13.4 13.4 0 0 1-5.22 5.52l-1.82 1.05a16.27 16.27 0 0 0-4.1 24.65c.47-.8 1.32-1.4 2.44-1.84 0 1.13.37 2.74 1.44 5.1.65.4 1.33.74 2.04 1.04l.52.22a10.4 10.4 0 0 1 5.81 6.25l3.53 10.34 11.5 2.78c2.8.68 5.17 2.54 6.53 5.11a16.56 16.56 0 0 0 10.92 8.44c.4-1.37 1.05-2.75 2-4.12v-.02h.04l5.28.43h.01l.02.01a9.8 9.8 0 0 1 2.24 3.62 16.91 16.91 0 0 0 10.77-8.34 10.46 10.46 0 0 1 6.65-5.16l11.07-2.75 3.84-10.5a10.5 10.5 0 0 1 5.74-6.06l.57-.25c1.78-3.53 2.78-6.33 1.52-8.38-1.23-1.97 4.42-3.85 8.17-4.73a15.9 15.9 0 0 0-8.42-15.73l-1.87-.97a12.96 12.96 0 0 1-5.97-6.53l-3.59-8.64-11.83-4.28a11.1 11.1 0 0 1-5.7-4.66 17.42 17.42 0 0 0-14.86-8.4h-1.47Z" clip-rule="evenodd"/><path fill="#312E2B" d="M113.15 260.63c.77-.5 2.6-1.22 3.82 0 0 0 .05-.67-.63-1.16-.67-.5-1.1-.45-1.1-.45-.14-1.64-.3-5.16.18-6.1.62-1.16 1.38-2.3-.43-2.06-1.81.23-2.69-3.27-.88-2.48s3.56-.93 2.69-1.6c-.59.87-4.76 1.22-4.5-1.84.27-3.06-1.74-4.29-1.92-2.25-.17 2.04 2.36 11.03 3.24 12.69.7 1.33-.03 4.05-.47 5.25Z"/><ellipse cx="115.08" cy="243.97" fill="#666564" rx="1.95" ry="1.63"/><path fill="#312E2B" d="M115.83 142.67c6.05 0 11.67 3.17 14.86 8.39a11.1 11.1 0 0 0 5.7 4.66l11.83 4.28 3.6 8.64a12.96 12.96 0 0 0 5.96 6.53l1.87.98a15.9 15.9 0 0 1 8.5 14.12c0 6.4-3.79 12.17-9.6 14.64l-.74.31a10.5 10.5 0 0 0-5.74 6.07l-3.84 10.5-11.07 2.75c-2.83.7-5.24 2.57-6.66 5.16a16.85 16.85 0 0 1-14.77 8.84h-1.93c-6.1 0-11.7-3.4-14.57-8.86a10.08 10.08 0 0 0-6.53-5.1l-11.5-2.8-3.53-10.33a10.4 10.4 0 0 0-5.81-6.25l-.52-.22a16.15 16.15 0 0 1-9.86-14.93c0-5.8 3.07-11.15 8.04-14.02l1.82-1.05a13.4 13.4 0 0 0 5.22-5.52l4.83-9.47 10.43-4.09c2.51-.99 4.7-2.67 6.3-4.87l.11-.14a20.01 20.01 0 0 1 16.13-8.22h1.47Z"/><path fill="#CF8D1B" d="M155.46 216.47c.65.77 2.78-.34 2.9-1.33.9-.6.94.86 2.12.85 2.68-.02 3.25 2.79 2 4.87a4.97 4.97 0 0 1-3.58 2.27c-.57-.16-2.1-1.22-3.58-4.15-1.49-2.93-.62-3.63 0-3.6l.14 1.1Z"/><path fill="#E3AA24" d="M161.86 219.08c.48-.88.23-2.19-1.38-2.22-.5-.06-.28.47-.87-.23s-1-.63-1.09-.22c-.1.4 1.06.8.78 1.5s2.08 2.06 2.56 1.17Z"/><path fill="#CF8D1B" d="M73.5 216.47c-.64.77-2.78-.34-2.9-1.33-.9-.6-.94.86-2.12.85-2.68-.02-3.25 2.79-2 4.87 1 1.66 2.8 2.2 3.58 2.27.57-.16 2.1-1.22 3.58-4.15 1.49-2.93.62-3.63 0-3.6l-.14 1.1Z"/><path fill="#E3AA24" d="M67.1 219.08c-.48-.88-.23-2.19 1.39-2.22.5-.06.27.47.86-.23.6-.7 1-.63 1.1-.22.09.4-1.06.8-.78 1.5s-2.09 2.06-2.57 1.17Z"/><path fill="#4B4847" d="M66.04 186.6a12 12 0 0 1 6.05-10.42l1.78-1.02c2.81-1.6 5.1-3.97 6.58-6.84l4.11-7.96 8.96-3.46a17.71 17.71 0 0 0 7.82-5.96l.1-.14a16.1 16.1 0 0 1 12.92-6.49h1.45a13.5 13.5 0 0 1 11.48 6.4 14.55 14.55 0 0 0 7.5 6.05l10.1 3.6 2.9 6.9a16.3 16.3 0 0 0 7.58 8.17l1.84.94a11.73 11.73 0 0 1-.83 21.26l-.72.3a13.91 13.91 0 0 0-7.66 7.98l-3.1 8.37-9 2.2c-3.78.92-7 3.39-8.88 6.8a12.93 12.93 0 0 1-11.32 6.67h-1.89c-4.64 0-8.9-2.56-11.1-6.65a13.56 13.56 0 0 0-8.8-6.79l-9.35-2.23-2.8-8.13a13.81 13.81 0 0 0-7.8-8.26l-.5-.2a11.99 11.99 0 0 1-7.42-11.1Z"/><path fill="#FF788A" d="M74.7 176.18c-7.28 3.6-9.12 10.67-5.8 16.01 2.95 4.46 7.17 3.58 11.03 7.8 3.08 3.38 4.98 9.78 5.54 12.56.1-2.46-.69-8.52-4.67-13.02-4.98-5.62-12.08-4.46-12.73-12.1-.64-7.66 9.58-9.9 12.47-14.5a71.03 71.03 0 0 0 5.3-10.99c1.67-.64 5.76-2.23 8.8-3.44 3.8-1.5 8.63-5.69 8.14-6.97-1.92 3.1-5.99 5.56-8.14 6.28-1.73.57-6.84 2.54-9.17 3.45-.77 1.71-2.54 5.65-3.53 7.7a15.06 15.06 0 0 1-7.23 7.22Z"/><path fill="#312E2B" d="m114.08 213.4-5.15 4.5-5.12-4.48 5.15-4.51 5.12 4.48ZM124.36 213.37l-5.15 4.51-5.12-4.49 5.15-4.51 5.12 4.49ZM114.1 204.39l-5.15 4.52-5.12-4.49-5.14 4.51-5.12-4.49 5.16-4.51 5.1 4.48 5.15-4.5 5.12 4.48ZM134.65 204.33l-5.15 4.52-5.11-4.49-5.16 4.52-5.11-4.5 5.15-4.5 5.11 4.48 5.15-4.52 5.12 4.5ZM93.6 195.44l-5.16 4.52-5.12-4.49 5.16-4.51 5.11 4.48ZM114.14 195.38 109 199.9l-5.11-4.48-5.15 4.5-5.12-4.48 5.15-4.51 5.11 4.48 5.15-4.51 5.12 4.48Z"/><path fill="#312E2B" d="m144.95 195.3-5.15 4.52-5.12-4.49-5.14 4.51-5.12-4.48-5.14 4.51-5.12-4.48 5.15-4.52 5.11 4.48 5.15-4.5 5.11 4.47 5.15-4.5 5.12 4.48ZM93.63 186.44l-5.15 4.52-5.1-4.48-5.15 4.5-5.12-4.48 5.15-4.52 5.11 4.48 5.14-4.5 5.12 4.48ZM114.18 186.38l-5.16 4.52-5.11-4.49-5.15 4.52-5.12-4.5 5.15-4.5 5.12 4.48 5.15-4.51 5.12 4.48Z"/><path fill="#312E2B" d="m144.97 186.3-5.15 4.51-5.12-4.48-5.14 4.51-5.11-4.48-5.14 4.51-5.12-4.49 5.15-4.51 5.1 4.48 5.15-4.51 5.12 4.48 5.14-4.5 5.12 4.48ZM155.27 186.27l-5.16 4.52-5.11-4.5 5.15-4.5 5.12 4.48ZM93.66 177.44l-5.16 4.51-5.11-4.48 5.15-4.52 5.12 4.49ZM103.94 177.4l-5.15 4.52-5.12-4.48 5.15-4.52 5.12 4.49Z"/><path fill="#312E2B" d="m114.21 177.38-5.15 4.51-5.12-4.48 5.15-4.52 5.12 4.49ZM134.75 177.32l-5.15 4.52-5.12-4.48-5.14 4.5-5.12-4.48 5.15-4.52 5.12 4.49 5.14-4.51 5.12 4.48ZM144.9 177.04l-5.16 4.52-5.12-4.5 5.15-4.5 5.12 4.48ZM114.23 168.38l-5.15 4.51-5.1-4.47-5.15 4.5-5.12-4.49 5.16-4.51 5.1 4.47 5.14-4.5 5.12 4.49ZM134.78 168.32l-5.15 4.52-5.11-4.49-5.15 4.51-5.12-4.49 5.15-4.51 5.12 4.48 5.14-4.5 5.12 4.48Z"/><path fill="#312E2B" d="m114.27 159.37-5.16 4.52-5.11-4.49 5.15-4.51 5.12 4.48ZM124.56 159.34l-5.16 4.52-5.12-4.49 5.16-4.51 5.12 4.48Z"/><path fill="#000" fill-opacity=".3" d="M126.5 164.15c0 1.1-1.09 1.99-2.42 1.99-1.34 0-2.42-.9-2.42-1.99v-.02c.01-1.08 1.09-1.96 2.42-1.96 1.33 0 2.4.88 2.41 1.97v.01Z"/><path fill="#CF8D1B" d="M124 156.3a.58.58 0 0 1 .55.77c.62.44 1.06 1.53 1.06 2.27 0 .52-.23 1-.58 1.3.05.6.25 1.07.65 1.56.54.39.92 1.05.79 1.73-.2 1-1.01 1.7-2.4 1.7-1.38 0-2.19-.7-2.38-1.7-.14-.68.27-1.38.79-1.73.37-.45.57-.9.63-1.44-.44-.3-.72-.83-.72-1.42 0-.75.45-1.85 1.07-2.28a.58.58 0 0 1 .54-.77Z"/><path fill="#fff" fill-opacity=".1" d="M125.87 163.24c-.25.96-1.47.26-1.66-.72l-.01-.04c-.12-.6.6-1.42.82-.85.07.18.16.35.26.48.36.44.66.76.6 1.06l-.01.07ZM126.18 163.9c-.14.72-1.06 1.29-2.07 1.3-.14 0-.24-.14-.21-.28.02-.11.12-.2.23-.2 1.02-.05 1.5-.46 1.74-.84.1-.16.35-.16.31.02ZM122.95 158.84c0 .75.58 1.37 1.29 1.37.63 0 1.15-.48 1.26-1.11 0 0 0-.1-.1-.37-.14-.4-1.13.22-1.55.67-.06.06-.19.01-.22-.07-.02-.05 0-.08.03-.13.15-.25.3-.46.46-.62.38-.39.81-1.14.32-1.38-.75-.35-1.49.95-1.49 1.64Z"/><path fill="#fff" fill-opacity=".1" d="M123.61 156.7c0 .26.25.4.51.4.22 0 .37-.1.4-.3 0 0-.05-.3-.3-.4-.26-.12-.5 0-.5 0a.46.46 0 0 0-.1.3Z"/><path fill="#000" fill-opacity=".14" d="m125.08 161.01.06.24c-.17-.3-1.45-.08-1.45.31.02.36-.26 3.2-.92 2.7a1.83 1.83 0 0 1-.5-.68c-.12-.32-.35-.2-.32.04.16 1.33 1.6 1.56 1.8 1.58.19.02.2.37.03.43-1.2-.1-1.91-.77-2.1-1.7-.13-.68.28-1.38.8-1.73.39-.48.57-.9.62-1.43 0 0 .43.32.97.29.54-.03.97-.4.97-.4 0 .12.02.24.04.35Z"/><path fill="#000" fill-opacity=".14" d="M122.4 159.31c.04.43.2.92.62 1.23.69.54.79.2.75-.03-1.67-.54-1.02-2.49-.21-3.26a.5.5 0 0 1-.11-.18c-.61.43-1.05 1.5-1.06 2.24Z"/><path fill="#000" fill-opacity=".3" d="M111.58 177.77c0 1.1-1.08 1.99-2.42 1.99-1.33 0-2.41-.89-2.41-1.99v-.01c0-1.1 1.08-1.97 2.41-1.97s2.41.88 2.42 1.97v.01Z"/><path fill="#CF8D1B" d="M109.1 169.92a.58.58 0 0 1 .53.77c.62.44 1.06 1.53 1.06 2.27 0 .53-.22 1-.57 1.31.04.6.25 1.07.64 1.55.54.39.93 1.05.8 1.73-.2 1-1.02 1.71-2.4 1.71s-2.2-.7-2.39-1.7c-.13-.69.28-1.38.8-1.74.36-.45.56-.9.62-1.44-.43-.3-.71-.83-.71-1.42 0-.75.44-1.84 1.07-2.28a.58.58 0 0 1 .54-.76Z"/><path fill="#fff" fill-opacity=".1" d="M110.95 176.86c-.24.97-1.46.26-1.66-.72v-.04c-.12-.6.6-1.42.81-.84.08.18.16.34.27.47.36.44.66.77.6 1.06l-.02.07ZM111.27 177.52c-.14.73-1.07 1.3-2.07 1.3-.14 0-.24-.14-.22-.28.03-.11.13-.2.24-.2 1.01-.05 1.5-.46 1.74-.84.1-.16.35-.16.31.02ZM108.04 172.46c0 .76.57 1.37 1.29 1.37.62 0 1.14-.48 1.26-1.1 0 0-.01-.1-.1-.38-.14-.4-1.14.22-1.56.67-.05.07-.18.02-.21-.06-.02-.06 0-.09.03-.14.14-.25.3-.45.46-.62.38-.39.8-1.14.31-1.38-.74-.35-1.48.95-1.48 1.64Z"/><path fill="#fff" fill-opacity=".1" d="M108.7 170.33c0 .25.25.4.5.4.23 0 .37-.1.41-.31 0 0-.05-.29-.3-.4-.27-.12-.5.01-.5.01a.46.46 0 0 0-.11.3Z"/><path fill="#000" fill-opacity=".14" d="m110.17 174.63.06.25c-.18-.31-1.46-.09-1.46.3.03.36-.25 3.2-.91 2.7a1.82 1.82 0 0 1-.5-.68c-.12-.32-.35-.2-.33.05.17 1.32 1.6 1.55 1.8 1.57.2.02.2.37.03.43-1.2-.1-1.9-.77-2.09-1.7-.13-.68.28-1.37.8-1.73.39-.48.57-.9.62-1.43 0 0 .42.32.97.3.54-.04.96-.4.96-.4l.05.34Z"/><path fill="#000" fill-opacity=".14" d="M107.48 172.94c.05.43.21.9.62 1.23.7.53.8.2.76-.03-1.67-.55-1.02-2.5-.22-3.27a.5.5 0 0 1-.1-.18c-.62.43-1.05 1.5-1.06 2.25Z"/><path fill="#000" fill-opacity=".3" d="M116.64 155.34c0 1.1-1.09 1.99-2.42 1.99-1.34 0-2.42-.9-2.42-1.99v-.02c.01-1.08 1.09-1.96 2.42-1.96 1.33 0 2.4.88 2.42 1.97v.01Z"/><path fill="#CF8D1B" d="M114.22 148.54c1.04 0 1.88.69 1.88 1.54v.61c0 .56-.36 1.05-.9 1.32.06.52.26.95.62 1.38.54.39.92 1.05.79 1.73-.2 1-1.01 1.71-2.4 1.71-1.38 0-2.19-.7-2.38-1.7-.14-.69.27-1.38.79-1.74.35-.44.55-.86.62-1.38-.54-.27-.9-.76-.9-1.32v-.62c0-.84.84-1.53 1.88-1.53Z"/><path fill="#000" fill-opacity=".14" d="m115.2 152.03.08.41c-.17-.3-1.45-.08-1.45.31.03.36-.26 3.2-.92 2.7a1.84 1.84 0 0 1-.5-.68c-.12-.32-.35-.2-.32.04.16 1.33 1.6 1.56 1.8 1.58.19.02.2.37.03.43-1.2-.1-1.91-.77-2.1-1.7-.13-.68.28-1.38.8-1.73.39-.48.54-.8.62-1.38.27.1.97.27 1.95.02Z"/><path fill="#CF8D1B" d="M116.1 149.77c0 .85-.84 1.54-1.88 1.54s-1.88-.69-1.88-1.54v-.02c0-.84.84-1.53 1.88-1.53s1.88.69 1.88 1.54Z"/><path fill="#fff" fill-opacity=".1" d="M116.02 155.07c.1-.16.34-.16.3.02-.14.72-1.06 1.3-2.07 1.3-.14 0-.23-.14-.21-.28.02-.11.12-.2.24-.2 1-.05 1.5-.46 1.73-.84ZM114.34 153.67c-.11-.6.6-1.42.82-.85.07.18.16.35.26.48.36.44.66.77.6 1.06a.8.8 0 0 1-.01.07c-.25.97-1.46.26-1.66-.72v-.04ZM114.22 148.22c1.04 0 1.88.69 1.88 1.54 0 .86-.84 1.55-1.88 1.55s-1.88-.69-1.88-1.54v-.02c0-.84.84-1.53 1.88-1.53Z"/><path fill="#CF8D1B" d="M115.62 150.13c.05-.13.08-.26.08-.4 0-.67-.66-1.2-1.48-1.2-.8 0-1.46.53-1.47 1.2v-.1.1c0 .14.03.28.08.4.2-.47.75-.81 1.4-.81.64 0 1.19.34 1.39.81Z"/><path fill="#000" fill-opacity=".3" d="M136.78 172.7c0 1.1-1.08 1.98-2.41 1.98-1.34 0-2.42-.89-2.42-1.98v-.02c.01-1.09 1.09-1.97 2.42-1.97 1.33 0 2.4.88 2.41 1.97v.02Z"/><path fill="#CF8D1B" d="M134.38 166.96c.79 0 1.43.52 1.43 1.16v.13c0 .35-.19.66-.49.88.03.63.24 1.11.65 1.61.53.4.92 1.05.79 1.73-.2 1-1.01 1.71-2.4 1.71-1.38 0-2.19-.7-2.39-1.7-.13-.69.28-1.38.8-1.74.4-.5.61-1 .64-1.63a1.09 1.09 0 0 1-.46-.86v-.13c.01-.64.65-1.16 1.43-1.16Z"/><path fill="#fff" fill-opacity=".1" d="M136.15 171.78c-.24.97-1.46.26-1.66-.72v-.04c-.12-.6.6-1.42.81-.84.07.18.16.34.27.47.36.44.66.77.6 1.06l-.02.07ZM136.47 172.45c-.14.72-1.07 1.29-2.07 1.29-.14 0-.24-.14-.22-.27.03-.12.12-.2.24-.2 1.01-.05 1.5-.47 1.74-.85.1-.15.34-.16.3.03ZM133.22 167.54a.87.87 0 0 0-.07.33c0 .57.56 1.02 1.25 1.02.68 0 1.23-.45 1.24-1v.07-.09a.87.87 0 0 0-.07-.33c-.17.4-.63.42-1.17.42-.55 0-1-.03-1.18-.42Z"/><path fill="#CF8D1B" d="M134.4 165.23c-.95 0-1.85 1.2-1.85 1.2l.27 1.05c.17.64.75 1.12 1.57 1.12.82 0 1.4-.48 1.57-1.12l.27-1.04s-.9-1.2-1.84-1.2Z"/><path fill="#CF8D1B" d="M136.28 166.13c0 .86-.84 1.55-1.88 1.55-1.05 0-1.89-.7-1.89-1.55v-.01c.01-.85.85-1.54 1.89-1.54 1.03 0 1.87.7 1.88 1.54v.01Z"/><path fill="#fff" fill-opacity=".1" d="M136.28 166.13c0 .86-.84 1.55-1.88 1.55-1.05 0-1.89-.7-1.89-1.55v-.01c.01-.85.85-1.54 1.89-1.54 1.03 0 1.87.7 1.88 1.54v.01Z"/><path fill="#CF8D1B" d="M135.85 165.9c0 .66-.65 1.2-1.46 1.2-.8 0-1.46-.54-1.46-1.2v-.01c0-.66.66-1.2 1.46-1.2.8 0 1.46.54 1.46 1.2Z"/><path fill="#000" fill-opacity=".14" d="m135.37 169.56.06.24c-.17-.31-1.45-.08-1.45.3.02.36-.26 3.2-.92 2.71a1.83 1.83 0 0 1-.5-.69c-.12-.32-.35-.2-.32.05.16 1.33 1.6 1.55 1.8 1.57.19.02.2.37.03.43-1.2-.1-1.91-.77-2.1-1.7-.13-.67.28-1.37.8-1.73.39-.48.6-.94.64-1.53v-.1s.4.32.91.32c.62 0 1-.3 1-.3v.08l.05.34ZM133.37 166.64c.64.5.7.1.5 0-.86-.42-.53-.65-.21-.53.3.12.64.05.68-.1-.68-.12-.75-.82-.29-1.08.1-.06.09-.14 0-.12-1.09.17-1.32 1.31-.68 1.83Z"/><path fill="#CF8D1B" d="M134.14 163.65c0-.07.05-.12.12-.12h.26c.07 0 .12.05.12.12l-.02.42h.2c.06 0 .1.05.1.1l-.03.2a.1.1 0 0 1-.1.08h-.18l-.03.5c.23.06.39.23.4.44a.4.4 0 0 1-.04.16c-.08-.19-.3-.32-.55-.32-.25 0-.47.13-.55.32a.4.4 0 0 1-.03-.16v-.04.04c0-.2.16-.38.39-.45l-.02-.5h-.2a.1.1 0 0 1-.09-.07l-.02-.2c0-.05.03-.1.1-.1h.19l-.02-.42Z"/><path fill="#fff" fill-opacity=".1" d="M134.14 163.65c0-.07.05-.12.12-.12h.26c.07 0 .12.05.12.12l-.02.42h.2c.06 0 .1.05.1.1l-.03.2a.1.1 0 0 1-.1.08h-.18l-.03.5c.23.06.39.23.4.44a.4.4 0 0 1-.04.16c-.08-.19-.3-.32-.55-.32-.25 0-.47.13-.55.32a.4.4 0 0 1-.03-.16v-.04.04c0-.2.16-.38.39-.45l-.02-.5h-.2a.1.1 0 0 1-.09-.07l-.02-.2c0-.05.03-.1.1-.1h.19l-.02-.42Z"/><path fill="#000" fill-opacity=".3" d="M146.94 181.95c0 1.1-1.08 1.99-2.41 1.99-1.34 0-2.42-.9-2.42-1.99v-.02c.01-1.09 1.09-1.97 2.42-1.97 1.33 0 2.4.89 2.41 1.98v.01Z"/><path fill="#CF8D1B" d="M144.53 183.44c-1.37 0-2.2-.7-2.4-1.71-.15-.78.44-1.47.7-1.65-.66-2.95.7-4.37 1.39-4.72.05.02.3.29.43.5.11-.28.3-.66.5-.7.25.01.61.5.72.75l.21.2c.41.42.44.99.64 1.54.19.49.6 1.12.52 1.64a.8.8 0 0 1-.16.42c-.2.23-.62.31-1.03.07-.36-.21-.55-.74-.8-.74 0 .25.1.45.23.62.65.2 1.65.98 1.44 2.07-.2 1-1.17 1.7-2.4 1.7Z"/><path fill="#fff" fill-opacity=".1" d="M146.12 181.46c-.42.62-1.24.03-1.63-.6-.22-.35-.47-.7-.66-1.06-.28-.5.55-.66 1.12-.77.13.82 1.37 1.74 1.37 1.94-.03.17-.1.34-.2.49ZM146.6 181.7c-.13.72-1.06 1.29-2.06 1.29-.14 0-.24-.13-.22-.27.03-.11.13-.2.24-.2 1.01-.05 1.5-.46 1.74-.84.1-.16.34-.16.3.02ZM145.9 178.9c-.06-.41-.16-1.68-1.15-1.26-.37-.3-.29-.94.46-1.22.19-.07.56-.07.73-.04.38.07.38.8.53 1.15.21.5.62 1.08.62 1.08 0 .07-.24.45-.2.66 0 .08.24-.19.24-.07 0 .09 0 .28-.2.4-.22.13-.69.2-.96-.26 0-.28.66.12.66 0 0-.2-.41-.56-.74-.44ZM144.21 175.36c-.15.18-.13.56-.07.9.04.2.42.24.6.13.1-.06.12-.15.07-.25a2.7 2.7 0 0 0-.6-.78ZM145.15 175.15c.22.04.44.29.6.54.11.18-.13.42-.34.45-.12.02-.2-.05-.23-.16a2 2 0 0 1-.03-.83Z"/><path fill="#000" fill-opacity=".14" d="M143.22 182.06a1.84 1.84 0 0 1-.5-.68c-.12-.33-.35-.21-.32.04.16 1.33 1.6 1.55 1.8 1.57.19.02.2.37.03.43-1.2-.1-1.91-.76-2.1-1.7-.13-.64.28-1.32.7-1.64.18.93.96 2.43.4 1.98ZM143.87 175.6c-.44.41-.74 1.1-.83 1.3-.1.23-.16.84.14.32.3-.52 1.11-.44 1.05-.33-.06.11-.24.5.18.95-.19.58.34.93 1.02.91-.09.07-.63.28-1.02.13-.36-.14-.63-.47-.62-.73-.78-.29-.87.91-.43 1.88.43.96.15 1.06 0 .82-.45-.75-.38-1.38-.63-1.31-.32-2.16.5-3.39 1.14-3.93Z"/><path fill="#000" fill-opacity=".3" d="M131.96 168.32c0 1.1-1.09 1.99-2.42 1.99-1.34 0-2.42-.9-2.42-1.99v-.02c.01-1.08 1.09-1.96 2.42-1.96 1.33 0 2.4.88 2.42 1.97v.01Z"/><path fill="#CF8D1B" d="M129.54 162.2c.78 0 1.42.53 1.43 1.17v.47c0 .34-.19.66-.48.87.03.65.23 1.15.65 1.66.54.39.92 1.05.79 1.73-.2 1-1.01 1.7-2.4 1.7-1.38 0-2.19-.7-2.38-1.7-.14-.68.27-1.38.79-1.73.41-.52.62-1.01.64-1.66-.29-.22-.47-.53-.47-.87v-.47c0-.65.64-1.16 1.43-1.16Z"/><path fill="#fff" fill-opacity=".1" d="M131.32 167.4c-.24.97-1.46.27-1.66-.71v-.04c-.12-.6.6-1.42.82-.85.06.18.15.35.26.48.36.44.66.76.6 1.06l-.02.07ZM131.64 168.07c-.14.72-1.07 1.29-2.07 1.3-.14 0-.24-.14-.21-.28.02-.11.12-.2.23-.2 1.01-.05 1.5-.46 1.74-.84.1-.16.35-.16.31.02ZM128.37 163.13a.85.85 0 0 0-.07.34c0 .57.56 1.02 1.24 1.02.69 0 1.24-.45 1.25-1.01v.07-.08a.85.85 0 0 0-.07-.34c-.17.4-.63.69-1.18.69-.54 0-1-.29-1.17-.69Z"/><path fill="#CF8D1B" d="M131.42 162.64c0 .85-.84 1.54-1.88 1.54s-1.89-.69-1.89-1.54v-.62c.01-.85.85-1.54 1.89-1.54 1.03 0 1.87.7 1.88 1.54v.62Z"/><path fill="#CF8D1B" fill-rule="evenodd" d="M129.86 163.44c.15-.02.29-.05.43-.1.05.1.18.16.3.13a.26.26 0 0 0 .18-.33l-.02-.04c.1-.07.2-.14.27-.23.03.04.07.07.11.07.1 0 .17-.12.17-.27 0-.05-.01-.1-.03-.14.1-.19.15-.4.15-.61 0-.86-.85-1.55-1.88-1.55-1.04 0-1.88.69-1.89 1.54v-.12.13c0 .22.06.42.15.6a.36.36 0 0 0-.02.15c0 .15.07.27.16.27.04 0 .08-.03.11-.07.08.09.17.16.27.23l-.01.04c-.04.14.03.29.17.33.12.03.25-.02.3-.13.14.05.29.08.44.1v.01c0 .15.14.26.32.26.17 0 .32-.11.32-.26Zm-.64 0v-.02.02Zm0 0Z" clip-rule="evenodd"/><path fill="#fff" fill-opacity=".1" fill-rule="evenodd" d="M129.86 163.44c.15-.02.29-.05.43-.1.05.1.18.16.3.13a.26.26 0 0 0 .18-.33l-.02-.04c.1-.07.2-.14.27-.23.03.04.07.07.11.07.1 0 .17-.12.17-.27 0-.05-.01-.1-.03-.14.1-.19.15-.4.15-.61 0-.86-.85-1.55-1.88-1.55-1.04 0-1.88.69-1.89 1.54v-.12.13c0 .22.06.42.15.6a.36.36 0 0 0-.02.15c0 .15.07.27.16.27.04 0 .08-.03.11-.07.08.09.17.16.27.23l-.01.04c-.04.14.03.29.17.33.12.03.25-.02.3-.13.14.05.29.08.44.1v.01c0 .15.14.26.32.26.17 0 .32-.11.32-.26Zm-.64 0v-.02.02Zm0 0Z" clip-rule="evenodd"/><path fill="#CF8D1B" d="M128.99 160.58c-.48.16-.9.57-.9 1.1 0 .67.65 1.2 1.45 1.2.8 0 1.46-.53 1.46-1.2 0-.5-.38-.93-.9-1.1a.58.58 0 0 0-1.11 0Z"/><path fill="#fff" fill-opacity=".1" d="M129.16 160.57a.46.46 0 0 0 .91.09s-.05-.29-.31-.4a.6.6 0 0 0-.5.01.46.46 0 0 0-.1.3Z"/><path fill="#000" fill-opacity=".14" d="M128.59 164.71c.01.01.42.31.93.31.52 0 .97-.3.97-.3v.11l.05.35.06.25c-.17-.31-1.45-.09-1.45.3.02.36-.26 3.2-.92 2.7a1.85 1.85 0 0 1-.5-.68c-.12-.32-.35-.2-.32.04.16 1.33 1.6 1.56 1.8 1.58.19.02.2.37.03.43-1.2-.1-1.91-.77-2.1-1.7-.13-.68.28-1.38.8-1.73.39-.48.6-.95.64-1.54l.01-.12ZM128.96 160.68c0 .21.13.48.37.57-.03.11-.18.34-.55.4-.46.06-.37.45.26.75.2.1.13.52-.51 0-.64-.5-.32-1.44.43-1.72Z"/><path fill="#000" fill-opacity=".3" d="M152.88 186.53c0 1.1-1.08 1.98-2.42 1.98-1.33 0-2.41-.88-2.41-1.98v-.02c0-1.09 1.09-1.97 2.41-1.97 1.33 0 2.41.89 2.42 1.98Z"/><path fill="#CF8D1B" d="M150.47 179.73c1.03 0 1.87.69 1.88 1.53v.62c0 .56-.37 1.05-.91 1.32.07.52.27.94.62 1.38.54.38.93 1.05.8 1.73-.2 1-1.02 1.7-2.4 1.7s-2.2-.7-2.39-1.7c-.13-.68.28-1.38.8-1.73.35-.44.55-.87.62-1.38-.55-.27-.9-.76-.9-1.32v-.62c0-.85.84-1.53 1.88-1.53Z"/><path fill="#000" fill-opacity=".14" d="m151.44 183.22.1.41c-.19-.3-1.47-.08-1.47.3.03.36-.25 3.21-.91 2.71a1.84 1.84 0 0 1-.5-.68c-.12-.33-.35-.2-.33.04.17 1.33 1.6 1.55 1.8 1.58.2.01.2.36.03.42-1.2-.1-1.9-.76-2.09-1.7-.13-.67.28-1.37.8-1.73.38-.47.54-.8.62-1.38.26.11.96.28 1.95.03Z"/><path fill="#CF8D1B" d="M152.35 180.95c0 .86-.84 1.55-1.88 1.55s-1.89-.7-1.89-1.55v-.01c.01-.85.85-1.53 1.89-1.53 1.03 0 1.87.68 1.88 1.53v.01Z"/><path fill="#fff" fill-opacity=".1" d="M152.26 186.26c.1-.16.35-.16.31.02-.14.72-1.07 1.29-2.07 1.29-.14 0-.24-.13-.21-.27.02-.12.12-.2.23-.2 1.01-.05 1.5-.46 1.74-.84ZM150.59 184.86c-.12-.6.6-1.43.82-.85.07.18.15.34.26.48.36.43.66.76.6 1.05l-.02.07c-.24.97-1.46.26-1.66-.71v-.04ZM150.47 179.4c1.03 0 1.87.7 1.88 1.54v.01c0 .86-.84 1.55-1.88 1.55s-1.89-.7-1.89-1.55v-.01c.01-.85.85-1.53 1.89-1.53Z"/><path fill="#CF8D1B" d="M151.86 181.32c.06-.13.08-.26.08-.4 0-.67-.66-1.21-1.47-1.21-.8 0-1.47.53-1.47 1.2v-.1.1c0 .15.03.28.08.4.2-.47.75-.8 1.4-.8.64 0 1.18.33 1.38.8Z"/><path fill="#000" fill-opacity=".3" d="M111.34 159.73c0 1.1-1.08 1.98-2.42 1.98-1.33 0-2.41-.89-2.41-1.98v-.02c0-1.09 1.09-1.97 2.41-1.97 1.33 0 2.41.89 2.42 1.98Z"/><path fill="#CF8D1B" d="M108.92 153.2a1.71 1.71 0 0 1 .97 3.13c.06.55.26.99.63 1.45.54.38.93 1.05.8 1.73-.2 1-1.01 1.7-2.4 1.7-1.38 0-2.2-.7-2.39-1.7-.13-.68.28-1.38.8-1.73.37-.46.57-.9.63-1.45a1.71 1.71 0 0 1 .96-3.13Z"/><path fill="#000" fill-opacity=".14" d="m109.93 156.59.06.24c-.17-.3-1.46-.08-1.46.3.03.37-.25 3.21-.9 2.71a1.84 1.84 0 0 1-.51-.68c-.12-.32-.35-.2-.33.04.17 1.33 1.6 1.56 1.8 1.58.2.01.2.36.03.42-1.2-.1-1.9-.76-2.09-1.7-.13-.67.28-1.37.8-1.72.39-.49.55-.86.63-1.44 0 0 .36.28.91.3.56 0 1.02-.3 1.02-.3l.04.25Z"/><path fill="#fff" fill-opacity=".1" d="M110.72 159.46c.1-.16.35-.16.31.02-.14.72-1.07 1.29-2.07 1.29-.14 0-.24-.13-.21-.27.02-.12.12-.2.23-.2 1.02-.05 1.5-.46 1.74-.84ZM109.05 158.06c-.12-.6.6-1.43.82-.85.07.18.15.34.26.48.36.44.66.76.6 1.05a.9.9 0 0 1-.02.07c-.24.97-1.46.27-1.65-.71l-.01-.04ZM108.12 153.54c.02-.01.72-.39 1.47-.05.76.34.92 1.17.92 1.19a1.37 1.37 0 1 1-2.4-1.14Z"/><path fill="#000" fill-opacity=".3" d="M116.4 164.09c0 1.1-1.07 1.98-2.4 1.98-1.34 0-2.43-.89-2.43-1.98v-.02c.02-1.09 1.1-1.97 2.42-1.97 1.33 0 2.41.88 2.42 1.97v.02Z"/><path fill="#CF8D1B" d="M113.99 157.56a1.71 1.71 0 0 1 .97 3.12c.06.55.26 1 .63 1.45.54.4.92 1.06.8 1.74-.2 1-1.02 1.7-2.4 1.7s-2.2-.7-2.4-1.7c-.12-.68.29-1.38.8-1.74.37-.45.57-.9.63-1.45a1.71 1.71 0 0 1 .97-3.12Z"/><path fill="#000" fill-opacity=".14" d="m115 160.94.06.25c-.18-.31-1.46-.08-1.46.3.03.36-.26 3.2-.91 2.71a1.82 1.82 0 0 1-.5-.69c-.13-.32-.36-.2-.33.05.16 1.32 1.6 1.55 1.8 1.57.2.02.2.37.03.43-1.2-.1-1.9-.77-2.1-1.7-.12-.68.29-1.37.8-1.73.4-.48.56-.86.64-1.43 0 0 .35.28.9.3.56 0 1.03-.31 1.03-.31 0 .12.01.14.04.25Z"/><path fill="#fff" fill-opacity=".1" d="M115.79 163.81c.1-.15.34-.16.3.03-.13.72-1.06 1.28-2.06 1.28-.14 0-.24-.13-.22-.27.02-.1.12-.19.24-.2 1.01-.04 1.5-.46 1.74-.84ZM114.11 162.41c-.11-.6.6-1.42.82-.84.07.18.16.34.27.47.36.44.65.77.6 1.06l-.02.07c-.24.97-1.46.26-1.66-.71v-.05ZM113.18 157.9c.02-.02.72-.39 1.48-.05s.92 1.17.92 1.18a1.37 1.37 0 1 1-2.4-1.13Z"/><path fill="#000" fill-opacity=".3" d="M121.47 168.57c0 1.1-1.08 1.98-2.42 1.98-1.33 0-2.41-.88-2.41-1.98v-.02c0-1.09 1.09-1.97 2.41-1.97 1.33 0 2.41.89 2.42 1.98v.01Z"/><path fill="#CF8D1B" d="M119.05 162.04a1.71 1.71 0 0 1 .97 3.13c.06.55.26.99.63 1.45.54.39.93 1.05.8 1.73-.2 1-1.02 1.7-2.4 1.7s-2.2-.7-2.39-1.7c-.13-.68.28-1.38.8-1.73.37-.46.57-.9.62-1.45a1.7 1.7 0 0 1 .97-3.13Z"/><path fill="#000" fill-opacity=".14" d="m120.06 165.43.06.24c-.18-.3-1.46-.08-1.46.31.03.36-.25 3.2-.91 2.7a1.84 1.84 0 0 1-.5-.68c-.12-.32-.35-.2-.33.04.17 1.33 1.6 1.56 1.8 1.58.2.02.2.36.03.42-1.2-.1-1.9-.76-2.09-1.7-.13-.67.28-1.37.8-1.72.39-.48.55-.86.63-1.44 0 0 .35.28.91.3.56 0 1.02-.3 1.02-.3 0 .11.02.14.04.25Z"/><path fill="#fff" fill-opacity=".1" d="M120.85 168.3c.1-.16.35-.16.31.02-.14.72-1.07 1.29-2.07 1.29a.22.22 0 0 1-.21-.27c.02-.12.12-.2.23-.2 1.02-.05 1.5-.46 1.74-.84ZM119.18 166.9c-.12-.6.6-1.42.82-.85.07.18.15.34.26.48.36.44.66.76.6 1.06l-.02.06c-.24.97-1.46.27-1.66-.71v-.04ZM118.25 162.38c.02-.01.72-.38 1.47-.05.76.34.92 1.17.92 1.19a1.37 1.37 0 1 1-2.4-1.14Z"/><path fill="#000" fill-opacity=".3" d="M126.5 173.27c0 1.1-1.09 1.98-2.42 1.98-1.34 0-2.42-.88-2.42-1.98v-.02c.01-1.09 1.09-1.97 2.42-1.97 1.33 0 2.4.89 2.41 1.98v.01Z"/><path fill="#CF8D1B" d="M124.08 166.74a1.71 1.71 0 0 1 .96 3.13c.06.55.26.99.64 1.45.53.39.92 1.05.79 1.73-.2 1-1.01 1.7-2.4 1.7-1.38 0-2.19-.7-2.38-1.7-.14-.68.27-1.38.79-1.73.37-.46.57-.9.63-1.45a1.71 1.71 0 0 1 .97-3.13Z"/><path fill="#000" fill-opacity=".14" d="m125.08 170.13.06.24c-.17-.3-1.45-.08-1.45.31.02.36-.26 3.2-.92 2.7a1.82 1.82 0 0 1-.5-.68c-.12-.32-.35-.2-.32.04.16 1.33 1.6 1.56 1.8 1.58.19.02.2.36.03.42-1.2-.09-1.91-.76-2.1-1.7-.13-.67.28-1.37.8-1.72.39-.48.55-.86.63-1.44 0 0 .36.28.91.3.56 0 1.02-.3 1.02-.3l.04.25Z"/><path fill="#fff" fill-opacity=".1" d="M125.87 173c.1-.16.35-.16.31.02-.14.72-1.06 1.29-2.07 1.29-.14 0-.24-.13-.21-.27.02-.11.12-.2.24-.2 1-.05 1.5-.46 1.73-.84ZM124.2 171.6c-.12-.6.6-1.42.82-.85.07.18.16.35.26.48.36.44.66.76.6 1.06l-.01.07c-.25.96-1.47.26-1.66-.72l-.01-.04ZM123.27 167.08c.02-.01.72-.39 1.47-.05.76.34.92 1.17.93 1.19a1.37 1.37 0 1 1-2.4-1.14Z"/><path fill="#000" fill-opacity=".3" d="M120.87 185.78c0 1.1-1.08 1.99-2.41 1.99-1.34 0-2.42-.89-2.42-1.99v-.01c.01-1.1 1.09-1.97 2.42-1.97 1.33 0 2.4.88 2.41 1.97v.01Z"/><path fill="#CF8D1B" d="M118.45 179.26a1.71 1.71 0 0 1 .97 3.12c.06.55.26 1 .63 1.45.54.39.93 1.05.8 1.73-.2 1-1.01 1.71-2.4 1.71-1.38 0-2.19-.7-2.39-1.7-.13-.69.28-1.38.8-1.74.37-.46.57-.9.63-1.45a1.71 1.71 0 0 1 .96-3.12Z"/><path fill="#000" fill-opacity=".14" d="m119.46 182.64.06.25c-.17-.31-1.45-.08-1.45.3.02.36-.26 3.2-.92 2.7a1.82 1.82 0 0 1-.5-.68c-.12-.32-.35-.2-.32.05.16 1.32 1.6 1.55 1.8 1.57.19.02.2.37.03.43-1.2-.1-1.91-.77-2.1-1.7-.13-.68.28-1.37.8-1.73.39-.48.55-.86.63-1.43 0 0 .36.28.91.29.56.01 1.02-.3 1.02-.3l.04.25Z"/><path fill="#fff" fill-opacity=".1" d="M120.25 185.51c.1-.16.35-.16.31.02-.14.73-1.06 1.3-2.07 1.3-.14 0-.24-.14-.21-.28.02-.11.12-.2.23-.2 1.02-.04 1.5-.46 1.74-.84ZM118.58 184.11c-.12-.6.6-1.42.82-.85.07.19.16.35.26.48.36.44.66.77.6 1.06l-.01.07c-.25.97-1.47.26-1.66-.72l-.01-.04ZM117.65 179.6c.02-.02.72-.4 1.47-.05.76.34.92 1.17.93 1.18a1.37 1.37 0 1 1-2.4-1.14Z"/><path fill="#000" fill-opacity=".3" d="M136.85 181.68c0 1.1-1.09 1.98-2.42 1.98-1.34 0-2.42-.88-2.42-1.98v-.02c.01-1.09 1.1-1.97 2.42-1.97 1.33 0 2.4.89 2.42 1.98Z"/><path fill="#CF8D1B" d="M134.43 175.15a1.71 1.71 0 0 1 .97 3.13c.05.55.25.99.63 1.45.54.39.92 1.05.79 1.73-.2 1-1.01 1.7-2.4 1.7-1.37 0-2.19-.7-2.38-1.7-.14-.68.28-1.38.79-1.73.37-.46.57-.9.63-1.45a1.71 1.71 0 0 1 .97-3.13Z"/><path fill="#000" fill-opacity=".14" d="m135.44 178.54.06.24c-.18-.3-1.46-.08-1.46.31.03.36-.26 3.2-.91 2.7a1.85 1.85 0 0 1-.51-.68c-.12-.32-.35-.2-.32.04.16 1.33 1.6 1.56 1.8 1.58.2.02.2.36.03.42-1.2-.1-1.91-.76-2.1-1.7-.13-.67.28-1.37.8-1.72.39-.48.56-.86.63-1.44 0 0 .36.28.91.3.56 0 1.03-.3 1.03-.3 0 .12.01.14.03.25Z"/><path fill="#fff" fill-opacity=".1" d="M136.23 181.4c.1-.15.34-.15.3.03-.13.72-1.06 1.29-2.07 1.29-.14 0-.24-.13-.2-.27.01-.11.11-.2.23-.2 1.01-.05 1.5-.46 1.74-.84ZM134.55 180c-.11-.6.6-1.41.82-.84.07.18.16.34.26.48.36.44.66.76.6 1.06l-.01.06c-.25.97-1.46.27-1.66-.71V180ZM133.62 175.49c.02-.01.72-.39 1.48-.05.75.34.92 1.17.92 1.19a1.37 1.37 0 1 1-2.4-1.14Z"/><path fill="#000" fill-opacity=".3" d="M141.62 186.44c0 1.1-1.08 1.99-2.42 1.99-1.33 0-2.41-.9-2.41-1.99v-.02c0-1.08 1.08-1.96 2.41-1.96s2.41.88 2.42 1.97v.01Z"/><path fill="#CF8D1B" d="M139.2 179.92a1.71 1.71 0 0 1 .97 3.12c.06.55.26 1 .63 1.45.54.39.92 1.05.8 1.73-.2 1-1.02 1.7-2.4 1.7s-2.2-.7-2.39-1.7c-.13-.68.28-1.38.8-1.73.36-.46.56-.9.62-1.45a1.71 1.71 0 0 1 .97-3.12Z"/><path fill="#000" fill-opacity=".14" d="m140.2 183.3.07.24c-.18-.3-1.46-.08-1.46.31.03.36-.26 3.2-.91 2.7a1.82 1.82 0 0 1-.5-.68c-.13-.32-.35-.2-.33.04.17 1.33 1.6 1.56 1.8 1.58.2.02.2.36.03.43-1.2-.1-1.9-.77-2.09-1.7-.13-.68.28-1.38.8-1.73.38-.48.55-.86.63-1.44 0 0 .35.28.9.3.56 0 1.03-.3 1.03-.3 0 .12.02.14.04.25Z"/><path fill="#fff" fill-opacity=".1" d="M141 186.17c.1-.16.34-.16.31.02-.14.72-1.07 1.29-2.07 1.3-.14 0-.24-.14-.22-.28.03-.11.13-.2.24-.2 1.01-.05 1.5-.46 1.74-.84ZM139.32 184.77c-.11-.6.6-1.42.83-.85.06.18.15.35.26.48.36.44.66.76.6 1.06l-.02.07c-.24.96-1.46.26-1.66-.72v-.04ZM138.4 180.25c.01-.01.72-.38 1.47-.05.76.34.92 1.17.92 1.19a1.37 1.37 0 1 1-2.4-1.14Z"/><path fill="#000" fill-opacity=".3" d="M147.25 191.02c0 1.1-1.08 1.98-2.41 1.98-1.34 0-2.42-.89-2.42-1.98V191c0-1.09 1.09-1.97 2.42-1.97 1.33 0 2.4.89 2.41 1.98Z"/><path fill="#CF8D1B" d="M144.83 184.5a1.71 1.71 0 0 1 .97 3.12c.06.54.26.99.63 1.44.54.4.93 1.06.8 1.74-.2 1-1.01 1.7-2.4 1.7-1.38 0-2.2-.7-2.39-1.7-.13-.68.28-1.38.8-1.74.37-.45.57-.9.63-1.44a1.71 1.71 0 0 1 .96-3.13Z"/><path fill="#000" fill-opacity=".14" d="m145.84 187.88.06.24c-.17-.3-1.46-.08-1.46.3.03.36-.25 3.21-.9 2.71a1.82 1.82 0 0 1-.51-.68c-.12-.33-.35-.2-.33.04.17 1.33 1.6 1.55 1.8 1.57.2.02.2.37.03.43-1.2-.1-1.9-.76-2.09-1.7-.13-.67.28-1.37.8-1.72.39-.48.55-.86.63-1.44 0 0 .36.28.91.3.56 0 1.02-.3 1.02-.3l.04.25Z"/><path fill="#fff" fill-opacity=".1" d="M146.63 190.75c.1-.16.35-.16.31.02-.14.72-1.07 1.29-2.07 1.29-.14 0-.24-.13-.21-.27.02-.12.12-.2.23-.2 1.02-.05 1.5-.46 1.74-.84ZM144.96 189.35c-.12-.6.6-1.43.82-.85.07.18.15.34.26.47.36.44.66.77.6 1.06l-.01.07c-.25.97-1.47.27-1.66-.71l-.01-.04ZM144.03 184.83c.02-.01.72-.39 1.47-.05.76.34.92 1.17.93 1.19a1.37 1.37 0 1 1-2.4-1.14Z"/><path fill="#000" fill-opacity=".3" d="M116.65 173.48c0 1.1-1.08 1.98-2.42 1.98-1.33 0-2.41-.89-2.41-1.98v-.02c0-1.09 1.09-1.97 2.41-1.97 1.33 0 2.41.88 2.42 1.98Z"/><path fill="#CF8D1B" d="M114.23 174.96c-1.36 0-2.2-.7-2.39-1.7-.15-.79.44-1.47.7-1.65-.66-2.95.7-4.37 1.38-4.73.06.03.3.3.44.5.11-.27.3-.66.5-.7.25.02.6.5.72.75l.21.2c.41.43.44 1 .64 1.55.18.48.6 1.12.52 1.64a.81.81 0 0 1-.16.42c-.2.23-.62.3-1.03.06-.36-.2-.55-.73-.8-.73 0 .24.1.44.23.62.64.2 1.65.97 1.43 2.07-.2 1-1.17 1.7-2.39 1.7Z"/><path fill="#fff" fill-opacity=".1" d="M115.83 172.99c-.42.62-1.25.03-1.64-.6-.21-.36-.46-.7-.66-1.07-.27-.5.56-.65 1.13-.76.13.82 1.37 1.74 1.37 1.93-.03.18-.1.35-.2.5ZM116.32 173.23c-.14.72-1.07 1.29-2.07 1.29-.15 0-.24-.13-.22-.27.02-.12.12-.2.24-.2 1.01-.05 1.5-.46 1.74-.84.1-.16.34-.16.3.02ZM115.6 170.43c-.05-.42-.15-1.68-1.14-1.26-.38-.3-.3-.95.46-1.23.19-.07.56-.06.72-.03.38.07.39.8.54 1.15.21.5.61 1.08.61 1.08.01.07-.23.44-.2.65 0 .09.24-.18.24-.07 0 .1 0 .28-.2.4-.22.13-.68.2-.96-.25 0-.29.66.12.66 0 0-.2-.4-.56-.73-.44ZM113.92 166.88c-.16.19-.14.56-.08.9.04.21.42.25.61.13.1-.05.12-.14.07-.24a2.7 2.7 0 0 0-.6-.79ZM114.86 166.68c.21.04.43.29.6.54.11.18-.13.41-.34.45-.12.02-.2-.05-.23-.17a2 2 0 0 1-.03-.82Z"/><path fill="#000" fill-opacity=".14" d="M112.93 173.59a1.83 1.83 0 0 1-.5-.69c-.13-.32-.35-.2-.33.05.17 1.32 1.6 1.55 1.8 1.57.2.02.2.37.03.43-1.2-.1-1.9-.77-2.09-1.7-.13-.64.28-1.33.69-1.64.19.93.97 2.43.4 1.98ZM113.58 167.14c-.44.4-.74 1.08-.83 1.3-.1.22-.17.83.13.3.3-.51 1.12-.44 1.06-.32-.06.11-.24.5.18.95-.2.58.34.92 1.02.91-.09.06-.64.28-1.02.13-.37-.15-.63-.47-.62-.73-.79-.29-.87.91-.44 1.87.44.97.16 1.06.02.83-.46-.76-.39-1.38-.65-1.32-.31-2.15.5-3.38 1.15-3.92Z"/><path fill="#000" fill-opacity=".3" d="M86.43 182.4c0 1.1-1.08 1.98-2.42 1.98-1.33 0-2.41-.88-2.41-1.98v-.02c0-1.09 1.09-1.97 2.41-1.97 1.34 0 2.41.89 2.42 1.98Z"/><path fill="#BEBDB9" d="M84.01 175.87a1.71 1.71 0 0 1 .97 3.13c.06.55.26.99.63 1.45.54.39.93 1.05.8 1.73-.2 1-1.01 1.7-2.4 1.7-1.38 0-2.2-.7-2.39-1.7-.13-.68.28-1.38.8-1.73.37-.46.57-.9.62-1.45a1.71 1.71 0 0 1 .97-3.13Z"/><path fill="#000" fill-opacity=".14" d="m85.02 179.26.06.24c-.17-.3-1.46-.08-1.46.31.03.35-.25 3.2-.9 2.7a1.84 1.84 0 0 1-.51-.68c-.12-.32-.35-.2-.33.04.17 1.33 1.6 1.56 1.8 1.58.2.02.2.36.04.42-1.2-.1-1.92-.76-2.1-1.7-.13-.67.28-1.37.8-1.72.39-.48.55-.86.63-1.44 0 0 .36.28.91.3.56 0 1.02-.3 1.02-.3l.04.25Z"/><path fill="#fff" fill-opacity=".4" d="M85.81 182.13c.1-.16.35-.16.31.02-.14.72-1.07 1.29-2.07 1.29-.14 0-.24-.13-.21-.27.02-.11.12-.2.23-.2 1.02-.05 1.5-.46 1.74-.84ZM84.14 180.73c-.12-.6.6-1.42.82-.85.07.18.15.34.26.48.36.43.66.76.6 1.05 0 .03 0 .05-.02.08-.24.96-1.46.26-1.65-.72l-.01-.04ZM83.2 176.2c.03 0 .73-.38 1.48-.04.76.34.92 1.17.92 1.19a1.37 1.37 0 1 1-2.4-1.14Z"/><path fill="#000" fill-opacity=".3" d="M91.27 186.18c0 1.1-1.08 1.98-2.42 1.98-1.33 0-2.41-.89-2.41-1.98v-.02c0-1.09 1.09-1.97 2.41-1.97 1.34 0 2.41.88 2.42 1.97v.02Z"/><path fill="#BEBDB9" d="M88.85 179.65a1.71 1.71 0 0 1 .97 3.12c.06.55.26 1 .63 1.45.54.4.93 1.06.8 1.74-.2 1-1.01 1.7-2.4 1.7-1.38 0-2.2-.7-2.39-1.7-.13-.69.28-1.38.8-1.74.37-.45.57-.9.62-1.45a1.7 1.7 0 0 1 .97-3.12Z"/><path fill="#000" fill-opacity=".14" d="m89.86 183.03.06.25c-.17-.31-1.46-.08-1.46.3.03.36-.25 3.2-.9 2.71a1.83 1.83 0 0 1-.51-.69c-.12-.32-.35-.2-.33.05.17 1.32 1.6 1.55 1.8 1.57.2.02.2.37.04.43-1.2-.1-1.92-.77-2.1-1.7-.13-.67.28-1.37.8-1.73.39-.48.55-.86.63-1.43 0 0 .36.28.91.3.56 0 1.02-.31 1.02-.31l.04.25Z"/><path fill="#fff" fill-opacity=".4" d="M90.65 185.9c.1-.15.35-.16.31.03-.14.72-1.07 1.28-2.07 1.28a.22.22 0 0 1-.21-.27c.02-.1.12-.19.23-.2 1.02-.04 1.5-.46 1.74-.84ZM88.98 184.5c-.12-.6.6-1.42.82-.84.07.18.15.34.26.47.36.44.66.77.6 1.06l-.02.07c-.24.97-1.46.26-1.65-.72l-.01-.03ZM88.05 179.99c.02-.02.72-.39 1.47-.05.76.34.92 1.17.92 1.18a1.37 1.37 0 1 1-2.4-1.13Z"/><path fill="#000" fill-opacity=".3" d="M96.5 190.78c0 1.1-1.09 1.98-2.42 1.98-1.34 0-2.42-.89-2.42-1.98v-.02c.01-1.09 1.09-1.97 2.42-1.97 1.33 0 2.4.88 2.41 1.97v.02Z"/><path fill="#BEBDB9" d="M94.08 184.25a1.71 1.71 0 0 1 .96 3.12c.06.55.26 1 .64 1.45.54.4.92 1.06.79 1.74-.2 1-1.01 1.7-2.4 1.7-1.38 0-2.19-.7-2.38-1.7-.14-.68.27-1.38.79-1.74.37-.45.57-.9.63-1.45a1.71 1.71 0 0 1 .97-3.12Z"/><path fill="#000" fill-opacity=".14" d="m95.08 187.63.06.25c-.17-.31-1.45-.08-1.45.3.02.36-.26 3.2-.92 2.71a1.83 1.83 0 0 1-.5-.68c-.12-.33-.35-.21-.32.04.16 1.32 1.6 1.55 1.8 1.57.19.02.2.37.03.43-1.2-.1-1.91-.77-2.1-1.7-.13-.67.28-1.37.8-1.73.39-.48.56-.86.63-1.43 0 0 .36.28.91.3.56 0 1.02-.3 1.02-.3l.04.25Z"/><path fill="#fff" fill-opacity=".4" d="M95.87 190.5c.1-.15.35-.16.31.03-.14.72-1.06 1.28-2.07 1.28-.14 0-.24-.13-.21-.26.02-.12.12-.2.24-.2 1-.05 1.5-.47 1.73-.84ZM94.2 189.1c-.12-.6.6-1.42.82-.84.07.18.16.34.26.47.36.44.66.77.6 1.06l-.01.07c-.25.97-1.46.26-1.66-.72l-.01-.03ZM93.27 184.59c.02-.02.72-.39 1.47-.05.76.34.92 1.17.93 1.18a1.37 1.37 0 1 1-2.4-1.13Z"/><path fill="#000" fill-opacity=".3" d="M101.45 195.38c0 1.1-1.09 1.99-2.42 1.99-1.33 0-2.42-.89-2.42-1.99v-.01c.01-1.1 1.1-1.97 2.42-1.97 1.33 0 2.41.88 2.42 1.97v.01Z"/><path fill="#BEBDB9" d="M99.03 188.86a1.71 1.71 0 0 1 .97 3.12c.06.55.26 1 .63 1.45.54.4.92 1.05.8 1.73-.2 1-1.02 1.71-2.4 1.71s-2.2-.7-2.4-1.7c-.12-.69.29-1.38.8-1.74.37-.45.57-.9.63-1.45a1.71 1.71 0 0 1 .97-3.12Z"/><path fill="#000" fill-opacity=".14" d="m100.04 192.24.06.25c-.18-.31-1.46-.08-1.46.3.03.36-.26 3.2-.91 2.71a1.83 1.83 0 0 1-.5-.69c-.13-.32-.36-.2-.33.05.16 1.32 1.6 1.55 1.8 1.57.2.02.2.37.03.43-1.2-.1-1.91-.77-2.1-1.7-.12-.68.29-1.37.8-1.73.4-.48.56-.86.64-1.43 0 0 .35.28.9.29.56.01 1.03-.3 1.03-.3 0 .12.01.14.04.25Z"/><path fill="#fff" fill-opacity=".4" d="M100.83 195.11c.1-.15.34-.16.3.02-.13.73-1.06 1.3-2.06 1.3a.22.22 0 0 1-.22-.28c.02-.11.12-.2.24-.2 1.01-.04 1.5-.46 1.74-.84ZM99.15 193.71c-.11-.6.6-1.42.82-.84.07.18.16.34.27.47.35.44.65.77.6 1.06l-.02.07c-.24.97-1.46.26-1.66-.72v-.04ZM98.22 189.2c.02-.02.72-.39 1.48-.05.75.34.92 1.17.92 1.18a1.37 1.37 0 1 1-2.4-1.14Z"/><path fill="#000" fill-opacity=".3" d="M116.77 191.23c0 1.1-1.08 1.98-2.42 1.98-1.33 0-2.42-.89-2.42-1.98v-.02c.01-1.09 1.1-1.97 2.42-1.97 1.33 0 2.41.88 2.42 1.98Z"/><path fill="#BEBDB9" d="M114.35 192.71c-1.38 0-2.2-.7-2.4-1.7-.12-.68.29-1.38.8-1.74.45-.55.65-1.08.65-1.8h1.9c0 .72.2 1.25.65 1.8.54.4.92 1.06.8 1.74-.2 1-1.02 1.7-2.4 1.7Z"/><path fill="#000" fill-opacity=".14" d="m115.36 188.09.06.24c-.18-.31-1.46-.08-1.46.3.03.36-.26 3.2-.91 2.71a1.83 1.83 0 0 1-.5-.68c-.13-.33-.36-.21-.33.04.16 1.33 1.6 1.55 1.8 1.57.2.02.2.37.03.43-1.2-.1-1.9-.76-2.1-1.7-.12-.67.29-1.37.8-1.73.4-.48.6-.94.64-1.53h1.92c0 .12.02.23.05.35Z"/><path fill="#fff" fill-opacity=".4" d="M116.14 190.31c-.25.97-1.46.26-1.66-.72v-.03c-.12-.61.6-1.43.81-.85.07.18.16.34.27.47.36.44.65.77.6 1.06l-.02.07ZM116.46 190.98c-.14.72-1.07 1.29-2.07 1.29-.14 0-.24-.14-.22-.27.02-.12.12-.2.24-.2 1.01-.05 1.5-.46 1.74-.84.1-.16.34-.16.3.02Z"/><path fill="#BEBDB9" d="M116.06 186.41a1.71 1.71 0 1 0-3.42 0 1.71 1.71 0 0 0 3.42 0Z"/><path fill="#fff" fill-opacity=".4" d="M113.23 185.91a1.37 1.37 0 0 0 2.71.27s-.16-.85-.92-1.19a1.78 1.78 0 0 0-1.48.05c-.2.23-.31.54-.31.87Z"/><path fill="#000" fill-opacity=".3" d="M111.14 204.18c0 1.1-1.08 1.98-2.42 1.98-1.33 0-2.41-.89-2.41-1.98v-.02c0-1.09 1.08-1.97 2.41-1.97s2.41.88 2.42 1.98Z"/><path fill="#BEBDB9" d="M108.72 197.65a1.71 1.71 0 0 1 .97 3.12c.06.55.26 1 .63 1.45.54.4.93 1.06.8 1.74-.2 1-1.02 1.7-2.4 1.7s-2.2-.7-2.39-1.7c-.13-.68.28-1.38.8-1.74.36-.45.56-.9.62-1.44a1.71 1.71 0 0 1 .97-3.13Z"/><path fill="#000" fill-opacity=".14" d="m109.73 201.04.06.24c-.18-.3-1.46-.08-1.46.3.03.36-.26 3.21-.91 2.71a1.85 1.85 0 0 1-.5-.68c-.13-.33-.36-.21-.33.04.16 1.33 1.6 1.55 1.8 1.57.2.02.2.37.03.43-1.2-.1-1.9-.76-2.09-1.7-.13-.67.28-1.37.8-1.73.38-.48.55-.86.63-1.43 0 0 .35.28.9.3.56 0 1.03-.3 1.03-.3 0 .11.02.14.04.25Z"/><path fill="#fff" fill-opacity=".4" d="M110.52 203.9c.1-.15.34-.15.3.03-.13.72-1.06 1.29-2.06 1.29-.14 0-.24-.13-.22-.27.02-.12.13-.2.24-.2 1.01-.05 1.5-.46 1.74-.84ZM108.84 202.5c-.11-.6.6-1.42.82-.84.07.18.16.34.27.47.36.44.65.77.6 1.06l-.02.07c-.24.97-1.46.26-1.66-.71v-.04ZM107.91 197.99c.02-.01.73-.39 1.48-.05s.92 1.17.92 1.19a1.37 1.37 0 1 1-2.4-1.14Z"/><path fill="#000" fill-opacity=".3" d="M116.89 200.34c0 1.1-1.08 1.99-2.42 1.99-1.33 0-2.41-.9-2.41-1.99v-.01c0-1.1 1.08-1.97 2.41-1.97s2.41.88 2.42 1.97v.01Z"/><path fill="#BEBDB9" d="M114.47 201.83c-1.36 0-2.2-.7-2.39-1.7-.15-.8.44-1.47.69-1.66-.65-2.95.7-4.36 1.4-4.72.05.02.29.3.42.5.12-.27.3-.66.5-.7.25.02.62.5.72.75l.22.2c.4.42.44.99.64 1.54.18.49.59 1.13.52 1.64a.8.8 0 0 1-.16.42c-.2.23-.62.31-1.03.07-.36-.21-.56-.74-.8-.74 0 .25.1.45.23.63.64.2 1.65.97 1.43 2.06-.2 1-1.17 1.71-2.39 1.71Z"/><path fill="#fff" fill-opacity=".4" d="M116.06 199.85c-.41.63-1.24.03-1.63-.6-.21-.35-.46-.7-.66-1.06-.27-.5.56-.66 1.12-.77.14.83 1.38 1.75 1.38 1.94-.03.17-.1.34-.2.5ZM116.56 200.1c-.15.72-1.07 1.28-2.08 1.28-.14 0-.24-.13-.21-.27.02-.11.12-.2.24-.2 1-.05 1.5-.46 1.73-.84.1-.16.35-.16.32.02ZM115.84 197.3c-.05-.42-.15-1.68-1.14-1.27-.38-.3-.3-.94.45-1.22.2-.07.57-.07.73-.04.38.08.39.8.54 1.16.2.5.61 1.07.61 1.07.01.07-.24.45-.2.66 0 .09.24-.18.24-.07 0 .1 0 .28-.2.4-.22.13-.68.2-.96-.25 0-.3.66.12.66 0 0-.21-.4-.57-.73-.44ZM114.16 193.75c-.16.18-.14.56-.08.9.04.2.42.24.61.13.1-.06.12-.15.07-.25a2.7 2.7 0 0 0-.6-.78ZM115.1 193.55c.21.03.43.28.6.53.1.18-.13.42-.34.45-.12.02-.2-.04-.23-.16a1.98 1.98 0 0 1-.04-.82Z"/><path fill="#000" fill-opacity=".14" d="M113.17 200.46a1.83 1.83 0 0 1-.5-.69c-.13-.32-.36-.2-.33.04.16 1.33 1.6 1.56 1.8 1.58.2.02.2.36.03.43-1.2-.1-1.9-.77-2.1-1.7-.12-.64.29-1.33.7-1.64.19.92.97 2.43.4 1.98ZM113.82 194c-.44.4-.74 1.08-.83 1.3-.1.22-.17.83.13.31.3-.51 1.12-.44 1.06-.33-.06.12-.25.5.17.96-.18.58.35.92 1.03.9-.1.07-.64.29-1.02.14-.37-.15-.64-.47-.62-.74-.79-.28-.87.92-.44 1.88.44.96.16 1.06.02.82-.46-.75-.4-1.38-.65-1.31-.31-2.16.5-3.39 1.15-3.93Z"/><path fill="#000" fill-opacity=".3" d="M116.53 208.86c0 1.1-1.08 1.99-2.42 1.99-1.33 0-2.42-.9-2.42-1.99v-.02c.02-1.08 1.1-1.96 2.42-1.96 1.33 0 2.41.88 2.42 1.97v.01Z"/><path fill="#BEBDB9" d="M114.11 202.34a1.71 1.71 0 0 1 .97 3.12c.06.55.26 1 .63 1.45.54.39.93 1.05.8 1.73-.2 1-1.02 1.7-2.4 1.7s-2.2-.7-2.39-1.7c-.13-.68.28-1.38.8-1.73.36-.46.56-.9.62-1.45a1.71 1.71 0 0 1 .97-3.12Z"/><path fill="#000" fill-opacity=".14" d="m115.12 205.72.06.25c-.18-.31-1.46-.09-1.46.3.03.36-.26 3.2-.91 2.7a1.83 1.83 0 0 1-.5-.68c-.13-.32-.35-.2-.33.04.16 1.33 1.6 1.56 1.8 1.58.2.02.2.37.03.43-1.2-.1-1.9-.77-2.09-1.7-.13-.68.28-1.38.8-1.73.38-.48.55-.86.63-1.44 0 0 .35.29.9.3.56 0 1.03-.3 1.03-.3 0 .12.02.14.04.25Z"/><path fill="#fff" fill-opacity=".4" d="M115.9 208.6c.1-.17.35-.17.32.01-.14.72-1.07 1.3-2.07 1.3-.14 0-.24-.14-.22-.28.03-.11.13-.2.24-.2 1.01-.05 1.5-.46 1.74-.84ZM114.23 207.2c-.11-.61.6-1.43.83-.86.06.18.15.35.26.48.36.44.66.77.6 1.06l-.02.07c-.24.97-1.46.26-1.66-.72v-.04ZM113.3 202.67c.03 0 .73-.38 1.48-.04.76.33.92 1.16.92 1.18a1.37 1.37 0 1 1-2.4-1.14Z"/><path fill="#000" fill-opacity=".3" d="M122.03 213.22c0 1.1-1.09 1.99-2.42 1.99-1.34 0-2.42-.9-2.42-1.99v-.01c.01-1.1 1.1-1.97 2.42-1.97 1.33 0 2.4.88 2.42 1.97v.01Z"/><path fill="#BEBDB9" d="M119.6 206.7a1.71 1.71 0 0 1 .98 3.12c.05.55.25 1 .63 1.45.54.39.92 1.05.79 1.73-.2 1-1.01 1.71-2.4 1.71-1.37 0-2.19-.7-2.38-1.7-.14-.69.28-1.38.79-1.74.37-.46.57-.9.63-1.45a1.71 1.71 0 0 1 .97-3.12Z"/><path fill="#000" fill-opacity=".14" d="m120.61 210.08.07.25c-.18-.31-1.46-.09-1.46.3.03.36-.26 3.2-.92 2.7a1.83 1.83 0 0 1-.5-.68c-.12-.32-.35-.2-.32.04.16 1.33 1.6 1.56 1.8 1.58.2.02.2.37.03.43-1.2-.1-1.91-.77-2.1-1.7-.13-.68.29-1.37.8-1.73.39-.48.56-.86.63-1.43 0 0 .36.28.92.29.55.01 1.01-.3 1.01-.3l.04.25Z"/><path fill="#fff" fill-opacity=".4" d="M121.4 212.95c.1-.16.35-.16.32.02-.14.72-1.07 1.3-2.08 1.3-.14 0-.23-.14-.2-.28.01-.11.11-.2.23-.2 1-.04 1.5-.46 1.73-.84ZM119.73 211.55c-.11-.6.6-1.42.82-.84.07.17.16.34.26.47.36.44.66.77.6 1.06l-.01.07c-.25.97-1.46.26-1.66-.72v-.04ZM118.8 207.03c.02 0 .72-.38 1.48-.04.75.33.91 1.17.92 1.18a1.37 1.37 0 1 1-2.4-1.14Z"/><path fill="#000" fill-opacity=".3" d="M90.44 195.67c0 1.1-1.09 1.98-2.42 1.98-1.34 0-2.42-.89-2.42-1.98v-.02c.01-1.09 1.1-1.97 2.42-1.97 1.33 0 2.4.88 2.42 1.98Z"/><path fill="#BEBDB9" d="M87.95 187.81c.32 0 .57.26.57.58 0 .07-.01.13-.03.2.62.43 1.06 1.52 1.06 2.26 0 .53-.22 1-.58 1.31.05.6.25 1.07.65 1.55.54.4.92 1.06.79 1.74-.2 1-1.01 1.7-2.4 1.7-1.37 0-2.19-.7-2.38-1.7-.14-.68.28-1.38.79-1.74.37-.45.57-.89.63-1.43-.43-.31-.72-.83-.72-1.43 0-.74.45-1.84 1.07-2.27a.58.58 0 0 1 .54-.76Z"/><path fill="#fff" fill-opacity=".4" d="M89.8 194.75c-.24.97-1.45.26-1.65-.71V194c-.12-.61.59-1.43.81-.85.07.18.16.34.26.47.36.44.66.77.6 1.06l-.01.07ZM90.13 195.42c-.15.72-1.07 1.29-2.08 1.29-.14 0-.24-.14-.2-.27.01-.12.11-.2.23-.2 1.01-.05 1.5-.46 1.74-.84.1-.16.34-.16.3.02ZM86.9 190.35c0 .76.57 1.37 1.28 1.37.63 0 1.15-.47 1.27-1.1l-.11-.38c-.13-.4-1.13.22-1.55.68-.06.06-.19.01-.21-.07-.02-.06 0-.09.02-.14.15-.24.3-.45.46-.61.38-.4.81-1.15.32-1.38-.74-.36-1.49.94-1.49 1.63Z"/><path fill="#fff" fill-opacity=".4" d="M87.55 188.22c0 .25.26.4.51.4.23 0 .37-.1.4-.31 0 0-.04-.28-.3-.4a.6.6 0 0 0-.5.02.46.46 0 0 0-.1.29Z"/><path fill="#000" fill-opacity=".14" d="m89.02 192.53.07.24c-.18-.31-1.46-.08-1.46.3.03.36-.26 3.21-.92 2.71a1.84 1.84 0 0 1-.5-.68c-.12-.33-.35-.21-.32.04.16 1.33 1.6 1.55 1.8 1.57.2.02.2.37.03.43-1.2-.1-1.91-.76-2.1-1.7-.13-.67.29-1.37.8-1.73.39-.48.57-.89.63-1.42 0 0 .42.32.96.28.54-.03.97-.4.97-.4 0 .13.02.24.04.36Z"/><path fill="#000" fill-opacity=".14" d="M86.33 190.83c.05.43.22.91.63 1.23.69.53.79.2.75-.03-1.67-.55-1.02-2.5-.21-3.26a.5.5 0 0 1-.11-.19c-.61.44-1.05 1.51-1.06 2.25Z"/><path fill="#000" fill-opacity=".3" d="M106.52 182.5c0 1.1-1.08 1.98-2.41 1.98-1.34 0-2.42-.88-2.42-1.98v-.02c0-1.09 1.09-1.97 2.42-1.97 1.33 0 2.4.89 2.41 1.98Z"/><path fill="#BEBDB9" d="M104.03 174.64a.58.58 0 0 1 .54.78c.62.43 1.07 1.52 1.07 2.27 0 .52-.23 1-.58 1.3.04.6.25 1.07.64 1.56.54.38.93 1.05.8 1.73-.2 1-1.01 1.7-2.4 1.7-1.38 0-2.2-.7-2.39-1.7-.13-.68.28-1.38.8-1.73.36-.46.56-.9.62-1.44-.43-.3-.71-.83-.71-1.43 0-.74.45-1.84 1.07-2.27a.58.58 0 0 1 .54-.76Z"/><path fill="#fff" fill-opacity=".4" d="M105.9 181.59c-.25.96-1.47.26-1.66-.72l-.01-.04c-.12-.6.6-1.43.82-.85.07.18.15.34.26.48.36.44.66.76.6 1.05 0 .03 0 .05-.02.08ZM106.21 182.25c-.14.72-1.07 1.29-2.07 1.29-.14 0-.24-.13-.21-.27.02-.12.12-.2.23-.2 1.02-.05 1.5-.46 1.74-.84.1-.16.35-.16.31.02ZM102.98 177.19c0 .75.58 1.36 1.29 1.36.62 0 1.15-.47 1.26-1.1 0 0-.01-.1-.1-.38-.14-.4-1.14.23-1.55.68-.06.06-.19.01-.22-.07-.02-.06 0-.08.03-.14.15-.24.3-.45.46-.61.38-.4.8-1.15.32-1.38-.75-.36-1.49.94-1.49 1.63Z"/><path fill="#fff" fill-opacity=".4" d="M103.64 175.05c0 .26.25.4.5.4.23 0 .37-.1.42-.3 0 0-.06-.3-.32-.4-.25-.12-.5 0-.5 0a.46.46 0 0 0-.1.3Z"/><path fill="#000" fill-opacity=".14" d="m105.11 179.36.06.24c-.17-.3-1.46-.08-1.46.31.03.35-.25 3.2-.91 2.7a1.84 1.84 0 0 1-.5-.68c-.12-.32-.35-.2-.33.04.17 1.33 1.6 1.56 1.8 1.58.2.02.2.36.04.42-1.2-.1-1.92-.76-2.1-1.7-.13-.67.28-1.37.8-1.72.39-.48.57-.9.62-1.43 0 0 .43.32.97.29.54-.03.96-.4.96-.4l.05.35Z"/><path fill="#000" fill-opacity=".14" d="M102.42 177.66c.05.43.21.91.63 1.23.69.54.79.2.75-.03-1.67-.54-1.02-2.5-.22-3.26a.5.5 0 0 1-.1-.19c-.62.44-1.05 1.51-1.06 2.25Z"/><path fill="#000" fill-opacity=".3" d="M80.74 186.69c0 1.1-1.08 1.98-2.41 1.98-1.34 0-2.42-.89-2.42-1.98v-.02c.01-1.09 1.09-1.97 2.42-1.97 1.33 0 2.4.88 2.41 1.98Z"/><path fill="#BEBDB9" d="M78.33 179.88c1.04 0 1.88.7 1.88 1.54v.62c0 .56-.36 1.05-.9 1.32.06.51.26.94.62 1.37.54.4.92 1.06.79 1.74-.2 1-1.01 1.7-2.4 1.7-1.38 0-2.19-.7-2.38-1.7-.14-.68.27-1.38.79-1.74.35-.43.55-.86.62-1.38-.54-.27-.9-.75-.9-1.31v-.62c0-.85.84-1.53 1.88-1.53Z"/><path fill="#000" fill-opacity=".14" d="m79.3 183.37.1.42c-.18-.31-1.46-.08-1.46.3.02.36-.26 3.2-.92 2.71a1.83 1.83 0 0 1-.5-.69c-.12-.32-.35-.2-.32.05.16 1.33 1.6 1.55 1.8 1.57.19.02.2.37.03.43-1.2-.1-1.91-.77-2.1-1.7-.13-.68.28-1.37.8-1.73.39-.48.54-.8.62-1.38.26.11.97.27 1.95.02Z"/><path fill="#DAD8D6" d="M80.21 181.11c0 .85-.84 1.55-1.88 1.55s-1.88-.7-1.88-1.55v-.01c0-.85.84-1.54 1.88-1.54s1.88.7 1.88 1.54v.01Z"/><path fill="#fff" fill-opacity=".4" d="M80.12 186.41c.1-.15.35-.16.31.03-.14.72-1.06 1.28-2.07 1.29-.14 0-.24-.14-.21-.27.02-.12.12-.2.23-.2 1.02-.05 1.5-.47 1.74-.85ZM78.45 185.01c-.12-.6.6-1.42.82-.84.07.18.16.34.26.47.36.44.66.77.6 1.06l-.01.07c-.25.97-1.47.26-1.66-.72l-.01-.04Z"/><path fill="#BEBDB9" d="M79.73 181.47c.05-.12.08-.25.08-.4 0-.67-.66-1.2-1.48-1.2-.8 0-1.46.53-1.47 1.2v-.1.1c0 .15.03.28.08.4.2-.47.75-.8 1.4-.8.64 0 1.19.33 1.39.8Z"/><path fill="#000" fill-opacity=".3" d="M116.53 217.99c0 1.1-1.08 1.98-2.42 1.98-1.33 0-2.42-.89-2.42-1.98v-.02c.02-1.09 1.1-1.97 2.42-1.97 1.33 0 2.41.88 2.42 1.97v.02Z"/><path fill="#BEBDB9" d="M114.11 211.19c1.04 0 1.88.68 1.89 1.53v.62c0 .56-.37 1.05-.91 1.32.07.51.27.94.62 1.37.54.4.93 1.06.8 1.74-.2 1-1.02 1.7-2.4 1.7s-2.2-.7-2.39-1.7c-.13-.68.28-1.38.8-1.74.35-.43.55-.86.61-1.38-.54-.27-.9-.75-.9-1.31v-.62c0-.85.85-1.53 1.88-1.53Z"/><path fill="#000" fill-opacity=".14" d="m115.09 214.67.09.42c-.18-.31-1.46-.08-1.46.3.03.36-.26 3.2-.91 2.71a1.82 1.82 0 0 1-.5-.69c-.13-.32-.35-.2-.33.05.16 1.32 1.6 1.55 1.8 1.57.2.02.2.37.03.43-1.2-.1-1.9-.77-2.09-1.7-.13-.67.28-1.37.8-1.73.38-.48.54-.8.62-1.38.26.11.96.27 1.95.02Z"/><path fill="#DAD8D6" d="M116 212.41c0 .85-.84 1.55-1.89 1.55-1.04 0-1.88-.7-1.88-1.55v-.01c0-.85.85-1.54 1.88-1.54 1.04 0 1.88.7 1.89 1.54v.01Z"/><path fill="#fff" fill-opacity=".4" d="M115.91 217.71c.1-.15.35-.16.31.03-.14.72-1.07 1.28-2.07 1.28-.14 0-.24-.13-.21-.26.02-.12.12-.2.23-.2 1.02-.05 1.5-.47 1.74-.85ZM114.24 216.31c-.12-.6.6-1.42.82-.84.06.18.15.34.26.47.36.44.66.77.6 1.06l-.02.07c-.24.97-1.46.26-1.66-.72v-.04Z"/><path fill="#BEBDB9" d="M115.51 212.77c.05-.12.08-.26.08-.4 0-.67-.66-1.2-1.47-1.2-.81 0-1.47.53-1.48 1.2v-.1.1c0 .14.03.28.09.4.2-.47.74-.8 1.39-.8.64 0 1.2.33 1.4.8Z"/><path fill="#000" fill-opacity=".3" d="M101.45 204.83c0 1.1-1.09 1.99-2.42 1.99-1.33 0-2.42-.89-2.42-1.99v-.01c.01-1.1 1.1-1.97 2.42-1.97 1.33 0 2.41.88 2.42 1.97v.01Z"/><path fill="#BEBDB9" d="M99.05 199.1c.78 0 1.42.52 1.42 1.16v.13c0 .35-.19.66-.49.88.04.63.24 1.11.65 1.61.54.39.92 1.05.8 1.73-.2 1-1.02 1.71-2.4 1.71s-2.2-.7-2.4-1.7c-.12-.69.29-1.38.8-1.74.41-.5.61-1 .64-1.63a1.09 1.09 0 0 1-.45-.86v-.13c0-.64.64-1.16 1.43-1.16Z"/><path fill="#fff" fill-opacity=".4" d="M100.82 203.92c-.25.97-1.47.26-1.66-.72l-.01-.04c-.12-.6.6-1.42.82-.84.07.18.16.34.26.47.36.44.66.77.6 1.06l-.01.07ZM101.13 204.58c-.14.73-1.06 1.3-2.07 1.3-.14 0-.24-.14-.21-.28.02-.11.12-.2.23-.2 1.02-.05 1.5-.46 1.74-.84.1-.16.35-.16.31.02ZM97.89 199.67a.86.86 0 0 0-.07.34c0 .57.56 1.02 1.24 1.02.68 0 1.24-.45 1.25-1.01v.07-.08a.87.87 0 0 0-.07-.34c-.17.4-.64.43-1.18.43-.54 0-1-.03-1.17-.43Z"/><path fill="#BEBDB9" d="M99.05 197.37c-.94 0-1.84 1.2-1.84 1.2l.28 1.05c.16.64.74 1.11 1.56 1.11.83 0 1.4-.47 1.57-1.1l.28-1.06s-.9-1.2-1.85-1.2Z"/><path fill="#BEBDB9" d="M100.94 198.27c0 .85-.84 1.55-1.88 1.55s-1.88-.7-1.88-1.55v-.02c0-.84.84-1.53 1.88-1.53s1.88.69 1.88 1.54Z"/><path fill="#fff" fill-opacity=".4" d="M100.94 198.27c0 .85-.84 1.55-1.88 1.55s-1.88-.7-1.88-1.55v-.02c0-.84.84-1.53 1.88-1.53s1.88.69 1.88 1.54Z"/><path fill="#BEBDB9" d="M100.51 198.03c0 .67-.65 1.2-1.46 1.2-.8 0-1.46-.53-1.46-1.2 0-.3 0 0 0 0 .01-.66.66-1.2 1.46-1.2.8 0 1.46.54 1.46 1.2Z"/><path fill="#000" fill-opacity=".14" d="m100.04 201.7.06.24c-.18-.31-1.46-.08-1.46.3.03.36-.26 3.2-.91 2.71a1.83 1.83 0 0 1-.5-.69c-.13-.32-.36-.2-.33.05.16 1.32 1.6 1.55 1.8 1.57.2.02.2.37.03.43-1.2-.1-1.91-.77-2.1-1.7-.12-.68.29-1.37.8-1.73.4-.48.6-.94.64-1.53v-.1s.4.32.92.32c.61 0 1-.3 1-.3v.07c0 .13.02.24.05.35ZM98.03 198.77c.64.52.7.1.51 0-.86-.41-.54-.65-.22-.52.3.12.64.05.69-.1-.69-.12-.75-.83-.3-1.08.11-.06.1-.14 0-.12-1.08.17-1.32 1.31-.68 1.82Z"/><path fill="#BEBDB9" d="M98.8 195.79c0-.07.06-.12.12-.12h.27c.06 0 .12.05.11.12l-.01.42h.2c.05 0 .1.05.09.1l-.03.2a.1.1 0 0 1-.09.08h-.19l-.02.49c.22.06.38.24.39.45a.4.4 0 0 1-.04.16c-.08-.19-.3-.32-.55-.32-.25 0-.47.13-.55.32a.4.4 0 0 1-.03-.16v-.04.04c0-.21.17-.39.4-.45l-.03-.5h-.2a.1.1 0 0 1-.08-.08l-.03-.19c0-.05.04-.1.1-.1h.2l-.02-.42Z"/><path fill="#fff" fill-opacity=".4" d="M98.8 195.79c0-.07.06-.12.12-.12h.27c.06 0 .12.05.11.12l-.01.42h.2c.05 0 .1.05.09.1l-.03.2a.1.1 0 0 1-.09.08h-.19l-.02.49c.22.06.38.24.39.45a.4.4 0 0 1-.04.16c-.08-.19-.3-.32-.55-.32-.25 0-.47.13-.55.32a.4.4 0 0 1-.03-.16v-.04.04c0-.21.17-.39.4-.45l-.03-.5h-.2a.1.1 0 0 1-.08-.08l-.03-.19c0-.05.04-.1.1-.1h.2l-.02-.42Z"/><path fill="#000" fill-opacity=".3" d="M85.58 191c0 1.1-1.08 1.98-2.42 1.98-1.33 0-2.41-.89-2.41-1.98v-.02c0-1.09 1.09-1.97 2.41-1.97 1.33 0 2.41.89 2.42 1.98Z"/><path fill="#BEBDB9" d="M83.16 192.49c-1.36 0-2.2-.7-2.39-1.71-.15-.79.44-1.47.69-1.65-.65-2.95.7-4.37 1.4-4.73.05.03.29.3.43.51.11-.28.3-.66.5-.7.25.01.6.5.72.75l.21.2c.4.42.44.98.64 1.53.18.5.6 1.13.52 1.65a.8.8 0 0 1-.16.42c-.2.23-.62.3-1.03.07-.36-.22-.55-.74-.8-.74 0 .24.1.44.23.62.64.2 1.65.98 1.43 2.07-.2 1-1.17 1.7-2.39 1.7Z"/><path fill="#fff" fill-opacity=".4" d="M84.75 190.5c-.4.63-1.24.04-1.63-.6-.21-.35-.46-.7-.66-1.06-.27-.5.56-.65 1.12-.76.14.82 1.38 1.74 1.38 1.93-.03.18-.1.35-.2.5ZM85.25 190.75c-.15.72-1.07 1.29-2.08 1.29-.14 0-.23-.13-.2-.27.01-.12.11-.2.23-.2 1.01-.05 1.5-.46 1.74-.84.1-.16.34-.16.3.02ZM84.53 187.95c-.05-.42-.15-1.68-1.14-1.26-.38-.3-.3-.95.46-1.23.18-.07.56-.06.72-.03.38.07.39.8.54 1.15.21.5.61 1.08.61 1.08.01.07-.24.44-.2.65 0 .09.24-.18.24-.07 0 .1 0 .29-.2.4-.22.14-.68.2-.96-.25 0-.29.66.12.66 0 0-.2-.4-.56-.73-.44ZM82.85 184.4c-.16.19-.14.56-.08.9.04.21.42.24.61.13.1-.05.12-.14.07-.24-.15-.3-.48-.72-.6-.79ZM83.78 184.2c.22.04.44.29.6.54.12.18-.12.41-.33.45-.12.02-.2-.05-.23-.16a2 2 0 0 1-.04-.83Z"/><path fill="#000" fill-opacity=".14" d="M81.86 191.11a1.83 1.83 0 0 1-.5-.69c-.12-.32-.35-.2-.33.05.17 1.32 1.6 1.55 1.8 1.57.2.02.2.37.03.43-1.2-.1-1.9-.77-2.09-1.7-.13-.64.28-1.33.69-1.64.19.93.97 2.43.4 1.98ZM82.5 184.66c-.43.4-.73 1.08-.82 1.3-.1.22-.17.83.13.31.3-.52 1.12-.45 1.06-.33-.06.11-.24.5.18.95-.2.58.34.93 1.02.91-.09.06-.64.28-1.02.13-.37-.14-.63-.47-.62-.73-.79-.29-.87.91-.44 1.87.44.97.16 1.06.02.83-.46-.76-.39-1.38-.65-1.32-.31-2.15.5-3.38 1.15-3.92Z"/><path fill="#000" fill-opacity=".3" d="M95.95 200.54c0 1.1-1.08 1.99-2.42 1.99-1.33 0-2.42-.9-2.42-1.99v-.01c.01-1.1 1.1-1.97 2.42-1.97 1.33 0 2.41.88 2.42 1.97v.01Z"/><path fill="#BEBDB9" d="M93.53 194.43c.79 0 1.42.52 1.43 1.16v.47c0 .35-.19.66-.48.87.03.65.23 1.15.65 1.66.54.39.92 1.05.8 1.73-.2 1-1.02 1.7-2.4 1.7s-2.2-.7-2.4-1.7c-.12-.68.29-1.38.8-1.73.42-.51.62-1.01.64-1.66a1.1 1.1 0 0 1-.47-.87v-.47c0-.64.65-1.16 1.43-1.16Z"/><path fill="#fff" fill-opacity=".4" d="M95.32 199.63c-.25.97-1.47.26-1.66-.72l-.01-.04c-.12-.6.6-1.42.82-.85.07.19.16.35.26.48.36.44.66.77.6 1.06l-.01.07ZM95.63 200.3c-.14.71-1.06 1.28-2.07 1.28-.14 0-.24-.13-.21-.27.02-.11.12-.2.23-.2 1.02-.05 1.5-.46 1.74-.84.1-.16.35-.16.31.02ZM92.36 195.35a.86.86 0 0 0-.07.34c0 .57.56 1.02 1.24 1.02.69 0 1.24-.45 1.25-1.01v.08-.09a.86.86 0 0 0-.07-.34c-.17.4-.63.69-1.18.69-.54 0-1-.29-1.17-.69Z"/><path fill="#BEBDB9" d="M95.41 194.86c0 .85-.84 1.54-1.88 1.54s-1.89-.69-1.89-1.54v-.62c.01-.85.85-1.53 1.89-1.53s1.88.68 1.88 1.53v.62Z"/><path fill="#BEBDB9" fill-rule="evenodd" d="M93.85 195.67c.15-.02.3-.06.43-.1.06.1.18.16.3.12a.26.26 0 0 0 .18-.33l-.02-.04c.1-.06.2-.14.27-.23.03.04.07.07.11.07.1 0 .17-.12.17-.26 0-.06-.01-.1-.03-.15.1-.19.15-.4.15-.6v-.02c0-.85-.84-1.53-1.88-1.53s-1.88.68-1.89 1.53V194v.13c0 .22.06.42.16.61a.38.38 0 0 0-.03.14c0 .15.07.27.16.27.05 0 .08-.03.11-.07.08.09.17.16.27.23l-.01.04c-.04.14.04.29.18.33.12.03.24-.02.3-.13.13.05.28.09.43.1v.01c0 .15.14.27.32.27s.32-.12.32-.27Zm-.64 0v-.03.03Zm0 0Z" clip-rule="evenodd"/><path fill="#fff" fill-opacity=".4" fill-rule="evenodd" d="M93.85 195.67c.15-.02.3-.06.43-.1.06.1.18.16.3.12a.26.26 0 0 0 .18-.33l-.02-.04c.1-.06.2-.14.27-.23.03.04.07.07.11.07.1 0 .17-.12.17-.26 0-.06-.01-.1-.03-.15.1-.19.15-.4.15-.6v-.02c0-.85-.84-1.53-1.88-1.53s-1.88.68-1.89 1.53V194v.13c0 .22.06.42.16.61a.38.38 0 0 0-.03.14c0 .15.07.27.16.27.05 0 .08-.03.11-.07.08.09.17.16.27.23l-.01.04c-.04.14.04.29.18.33.12.03.24-.02.3-.13.13.05.28.09.43.1v.01c0 .15.14.27.32.27s.32-.12.32-.27Zm-.64 0v-.03.03Zm0 0Z" clip-rule="evenodd"/><path fill="#BEBDB9" d="M92.98 192.8c-.48.16-.9.57-.9 1.1 0 .67.65 1.2 1.45 1.2.81 0 1.46-.53 1.46-1.2 0-.5-.37-.92-.9-1.1a.58.58 0 0 0-1.11 0Z"/><path fill="#fff" fill-opacity=".4" d="M93.15 192.79a.46.46 0 0 0 .91.09s-.05-.29-.3-.4a.6.6 0 0 0-.5.01.46.46 0 0 0-.11.3Z"/><path fill="#000" fill-opacity=".14" d="M92.58 196.94c.01 0 .42.3.94.3.51 0 .96-.3.96-.3v.11c.02.13.03.24.06.35l.06.25c-.18-.31-1.46-.09-1.46.3.03.36-.26 3.2-.91 2.7a1.83 1.83 0 0 1-.5-.68c-.13-.32-.36-.2-.33.05.16 1.32 1.6 1.55 1.8 1.57.2.02.2.37.03.43-1.2-.1-1.91-.77-2.1-1.7-.12-.68.29-1.38.8-1.73.4-.48.6-.95.64-1.54l.01-.12ZM92.96 192.9c-.02.22.12.49.36.58-.03.1-.18.33-.54.39-.46.06-.38.45.25.76.2.1.13.5-.5 0-.65-.52-.33-1.44.43-1.73Z"/><path fill="#4B4847" d="M140.8 216.5c0 .5-.49.97-1.7 1.26-4.65 1.32-7.3 2.46-8.56 4.53-.58.96 2.02 2.5 3.21 1.63 1.2-.87 5.37-1.82 7.7-2.38 1.87-.44 2.3 0 2.51.37-1.38.35-4.77 1.2-7.27 1.81-3.14.76-5.94 3.11-6.87 4.79-1.13 2.04-2.8 4.65-5.18 6.44-1.9 1.42-3.04 1.11-3.6.69 2.42-.27 4.9-2.91 5.39-3.34.5-.43-.76-3.83-2.48-2.28-1.71 1.55-5.05 2.21-8.78 2.28-2.98.05-3.78-1.06-3.8-1.62.6.2 2.84.47 6.98 0 5.17-.59 8.92-5.22 10.98-8.58 2.06-3.36 6.77-4.41 11.47-5.6ZM162.22 194.85c.14 0 .26.33-.36 1.63-.77 1.63-5.29 3.25-7.67 4.37a6.87 6.87 0 0 0-3.44 4.15c-.04.42 2.19 1.3 2.44.86.94-1.34 4.46-2.34 5.55-2.93.88-.47 1.47-.36 1.66-.25-1.12 1.08-3.59 1.63-5.23 2.49-1.65.85-3.18 3.25-3.89 5.25s-1.67 4.62-2.44 6.8c-.42 1.51-.81-.4-1.14-1.4-.33-.98-.93-.36-.79 0 .14.38.6 1.66 1 2.84.3.94-.01 1.77-.21 2.07l-2.04-5.7c1-2.69 3.46-8.9 5.38-12.23 2.4-4.17 8.87-3.45 11.18-7.95Z"/><path fill="#CF8D1B" d="M118.07 263.35c1.31.68.15 6.23-3.27 6.23-3.44 0-4.7-4.72-2.81-6.23 0-2.33-1.57-4.68.68-4.68 0 .79 1.16 1.64 2.13 1.64 1.17 0 2.8-1.01 2.8-1.64 2.1 0 .47 2.4.47 4.68Z"/><path fill="#E3AA24" d="M114.58 261.12a4.92 4.92 0 0 0 2.66-.94c.64-.43 1.12-.14.96.21-.15.36-1.16.87-.96 1.25.16.3.19 1.4.18 1.9.25.1.69.44.44.99-.31.68-3.92.91-4.56.34-.64-.58.17-1.1 1.39-.95 1.2.16 1.81-.17 1.98-.25.17-.08.26-2.1-.83-1.7-1.09.38-1.74-.83-1.26-.85Z"/><defs><radialGradient id="a" cx="0" cy="0" r="1" gradientTransform="matrix(0 36.1256 -44.021 0 54.78 86.25)" gradientUnits="userSpaceOnUse"><stop stop-color="#FFD4D4" stop-opacity="0"/><stop offset=".31" stop-color="#FFD4D4"/><stop offset="1" stop-color="#FFD4D4" stop-opacity="0"/></radialGradient><radialGradient id="d" cx="0" cy="0" r="1" gradientTransform="matrix(0 32.9273 -37.9605 0 54.78 69.62)" gradientUnits="userSpaceOnUse"><stop stop-color="#FA466A" stop-opacity="0"/><stop offset=".35" stop-color="#FA466A"/><stop offset="1" stop-color="#FA466A" stop-opacity="0"/></radialGradient><radialGradient id="e" cx="0" cy="0" r="1" gradientTransform="matrix(0 32.9273 -37.9605 0 54.78 102.88)" gradientUnits="userSpaceOnUse"><stop stop-color="#FA466A" stop-opacity="0"/><stop offset=".35" stop-color="#FA466A"/><stop offset="1" stop-color="#FA466A" stop-opacity="0"/></radialGradient><radialGradient id="f" cx="0" cy="0" r="1" gradientTransform="matrix(0 57.0861 -36.7874 0 55.4 64.1)" gradientUnits="userSpaceOnUse"><stop stop-color="#FFB5B9"/><stop offset=".66" stop-color="#fff"/><stop offset="1" stop-color="#FF949D"/></radialGradient><radialGradient id="g" cx="0" cy="0" r="1" gradientTransform="matrix(0 26.4547 -30.4985 0 54.78 165.51)" gradientUnits="userSpaceOnUse"><stop offset=".35" stop-color="#FA466A" stop-opacity="0"/><stop offset=".71" stop-color="#FA466A" stop-opacity=".45"/><stop offset="1" stop-color="#FA466A" stop-opacity="0"/></radialGradient><linearGradient id="b" x1="55.23" x2="55.23" y1="165.56" y2="172.85" gradientUnits="userSpaceOnUse"><stop stop-opacity="0"/><stop offset="1" stop-opacity=".2"/></linearGradient><linearGradient id="c" x1="55.24" x2="55.24" y1="159.53" y2="163.47" gradientUnits="userSpaceOnUse"><stop stop-opacity="0"/><stop offset="1" stop-opacity=".2"/></linearGradient></defs></svg>