<svg xmlns="http://www.w3.org/2000/svg" width="188" height="368" fill="none"><path fill="#000" fill-opacity=".15" d="M84.41 278c6.93 0 15.62-1.76 15.74-5.29l-47.53-93.45a37.01 37.01 0 0 0-43.37 36.46v29.56c0 10.73 8.24 20.42 18.96 19.98 4.51-.18 4.4 0 5.6 3.66 1.23 3.65 18.83 7.61 23.59 4.75 2.92 1.6 7.1.47 8.83-.3C69.98 274.9 78.87 278 84.4 278Z"/><path fill="#45753C" d="M37.85 243.6c-4.97 5.39-8.05-9.88-5.66-11.47 2.39-1.6 8.16 8.77 5.66 11.47Z"/><path fill="#5D9948" d="M37.85 243.6c-4.97 5.39-8.05-9.88-5.66-11.47 2.39-1.6 8.16 8.77 5.66 11.47Z"/><path fill="#45753C" d="M41.46 235.92c-6.57 3.43-4.59-11.35-1.75-12.1 2.83-.73 5.06 10.38 1.75 12.1Z"/><path fill="#45753C" d="M41.46 235.92c-6.57 3.43-4.59-11.35-1.75-12.1 2.83-.73 5.06 10.38 1.75 12.1ZM50.59 233.88c-6.3 3.9-5.43-10.98-2.65-11.93 2.77-.95 5.81 9.96 2.65 11.93Z"/><path fill="#45753C" d="M50.59 233.88c-6.3 3.9-5.43-10.98-2.65-11.93 2.77-.95 5.81 9.96 2.65 11.93ZM39.86 238.53c-3.11 4.83-7.63-10.72-6-12.04 1.64-1.33 7.56 9.6 6 12.04Z"/><path fill="#5D9948" d="M39.86 238.53c-3.11 4.83-7.63-10.72-6-12.04 1.64-1.33 7.56 9.6 6 12.04Z"/><path fill="#45753C" d="M46.42 236.3c-4.23 3.89-4.66-12.3-2.75-13.16 1.92-.88 4.88 11.2 2.75 13.16Z"/><path fill="#5D9948" d="M46.42 236.3c-4.23 3.89-4.66-12.3-2.75-13.16 1.92-.88 4.88 11.2 2.75 13.16Z"/><path fill="#45753C" d="M45.3 260.57c-6.77 4.96-3.77-16.46-.9-17.53 2.88-1.07 4.3 15.03.9 17.53Z"/><path fill="#5D9948" d="M45.3 260.57c-6.77 4.96-3.77-16.46-.9-17.53 2.88-1.07 4.3 15.03.9 17.53Z"/><path fill="#45753C" d="M155.86 214.92c7.68 8.08 10.24-20.02 6.67-22.13-3.58-2.1-10.52 18.06-6.67 22.13Z"/><path fill="#45753C" d="M155.86 214.92c7.68 8.08 10.24-20.02 6.67-22.13-3.58-2.1-10.52 18.06-6.67 22.13Z"/><path fill="#45753C" d="M157.32 230.3c5.7 11.98 15.23-27.8 12.17-31.03-3.06-3.23-15.03 25-12.17 31.03Z"/><path fill="#45753C" d="M157.32 230.3c5.7 11.98 15.23-27.8 12.17-31.03-3.06-3.23-15.03 25-12.17 31.03Z"/><path fill="url(#a)" d="M37.87 237.47c1.17-1.12 11.18-13.67 16.04-19.8-3.1-1.86-27.55-8.81-28.16-10.4-.77-1.98-.64-22.54-.83-25.23-.2-2.68.51-23.82.9-26.44.38-2.62 7.21-33.15 7.66-34.75.45-1.6 13.92-10.22 15.52-11.62 1.6-1.4 38.18.11 39.84 1.26 1.66 1.15 13.35 10.86 14.18 12.46.83 1.6 5.04 12.9 5.75 16.86.56 3.17 1.28 10.44 1.57 13.69a604.3 604.3 0 0 1 22.13 2.84c1.24.22 19.95 11.93 21.48 14.9 6.02 11.63 9.43 48.22 7.96 53.72-1.47 5.49-33.28 26-39.8 28.55-6.5 2.55-13.85 4.79-19.28 3.19-4.35-1.28-9.01-3.09-10.8-3.83a782.23 782.23 0 0 1-18.01 9.9c-2.3 1.08-4.98.76-13.29.76-8.3 0-9.96-.89-10.92-1.85-.96-.96-10.98-14.63-12.45-18.14-1.47-3.51-.96-4.66.5-6.07Z"/><path fill="#605D71" d="M78.58 203.93c0 .4-1.64 11.47-2 11.34-2.44-1.86-8.18-5.6-11.68-5.64-3.5-.03-8.43 4.83-10.46 7.27-3.2-2.36-26.78-10.14-26.9-10.94-.12-.8-.55-19.09-.75-28.13 1.44-6.92 4.56-21.82 5.57-26.03 1.25-5.26 2.2-12.93 1.65-12.88-.44.04-4.7 20.64-6.77 30.94.08-4.62.32-14.02.6-14.7.35-.85 6.8-33.43 7.53-33.43.73 0 1.29 8.97.4 12.5-.9 3.51 1.78 2.06 3.24 0 1.45-2.08 5.1-3.69 2.93-1.5-2.16 2.2-7.47 8.18-6.57 8.81l.05.03c1.24.87 14.43 10.05 17.57 11.11 3.86.92 23.58.4 25.14 0 1.55-.4 22.6-17.08 23.43-19.33.84-2.24-.4-10.04 0-10.04s3.34 10.1 1.37 11.66c-1.97 1.55-24.35 19.7-24.35 21.55 0 1.86 0 43.11-.94 42.49-.93-.62-.2-40-1.07-38.86-.86 1.14-2.45 34-2.45 41.53-.4 4.37 4.46 1.85 4.46 2.25Z" opacity=".3"/><path fill="#605D71" d="M82.7 211.94c-.2 0-3.6 4.7-4.27 5.22-1.72.72-9.47-6.54-13.21-6.56-3.74-.03-8.9 5.8-9.69 6.79-.78.98-16.69 19.45-17.55 21.26-.87 1.8.11 4.13 2.12 7.71 1.6 2.87 8 11.33 10.99 15.2.06-1.63.15-5.04 0-5.67-.2-.79-3.08-5.12-3.94-8.15-.87-3.03-7.88-8.88-7.05-9.1.83-.2 8.23 6.42 8.5 8.75.28 2.32 2.92 6.89 3.55 6.89.63 0 18.86-4.06 19.25-4.14.4-.08 4.86-4.36 4.96-4.8.09-.43-2.08-3.64-6.34-6.48-4.27-2.85-9.57-16.95-9.11-16.9.45.05 7.57 14.9 10.83 16.25 2.6 1.08 4.78 3.97 5.54 5.28l2.75-3c-.69-1.7-1.97-5.11-1.6-5.19.46-.1 2.3 3.86 2.7 3.86.39 0 7.83-9.02 7.67-9.3-.16-.27-5.92-17.92-6.1-17.92ZM83.32 209.92c0-1.4 3.46-17.45 4.01-20.16v-1c.6.42 1.8 1.3 1.82 1.58.04.36 1.62 14.84 1.7 15.2.07.35-1.11 22.94-1.36 22.79-.25-.15-6.17-17-6.17-18.4Z" opacity=".3"/><path fill="#605D71" d="M107.74 256.26c9.28-.35 26.13-9.48 28.63-12.04-2.17.76-7.04 2.69-9.15 4.39-2.64 2.12-18.94 5.82-19.48 5.47-.55-.36 0-3.66-.2-3.86-.2-.2-11.81-3.78-11.46-4.17.35-.4 10.83 2.56 11.1 2.56.28 0 2.74-2.32 5.27-4.88-.25-16.03-9.73-38.72-9.22-38.87.4-.12 5.2-4.79 7.55-7.11-.3 1.4-.74 4.43 0 5.47 1.67-.53 1.67-5.96 1.92-6.27 8.32-6.4 25.23-19.5 26.33-20.66 1.38-1.14 10.28-3.54 11.7-3.54 1.41 0 3.3 3.15 3.46 2.9.15-.23-.75-4.04-2.09-4.56-1.34-.52-12.2 4.14-12.16 2.2.03-1.92-5.71-13.42-7.29-13.14.79 1.57 5.9 13.38 5 14.72-8.4 6.87-25.2 20.4-25.2 19.54-.21-3.09-3.4-6.89-4.05-5.44 1.9 1.73 2.24 5.46 2.17 7.11l-8.45 6.37a62.87 62.87 0 0 0-2.5-1.25c-2.01-2.77-8.52-13.44-8.15-14.08 20.33-19.87 22.85-13.85 22.28-20.48-.15-1.76-3.35-11.07-3.55-11.57-.2-.5 1.25 10.68.85 11.13-.32.36-15.74 14.68-23.15 21.56.7.3 1.98 1.21 2.42 1.62.59.56 1.64 15.48 1.64 15.48 1.06-.2-.05-12.91-.05-13.15 0-.24 5.34 8.78 5.09 9.69-.25.9-4.71 4.33-4.71 4.97 0 .63-.78 21.06-.9 21.84-.11.8.04 20.67-.47 20.4-.5-.28-.82-17.84-1.18-17.72-.35.12-1.97 13-1.97 14.1 0 .88 2.78 4.94 4.17 6.85 3.36 1.48 11.23 4.42 15.8 4.42Z" opacity=".3"/><path fill="#E8E2DE" d="M104.81 205.7c.85 2.76 2.6 8.53 2.74 9.5l-1.24-9.02 1.58-2.25c.19.71 1.17 2.06 3.6 1.76 2.44-.3 3.44-5.02 3.64-7.35 7.9-6.09 23.98-18.5 25.2-19.41 1.54-1.15 8.57-2.92 9.96-2.83 1.38.1 2.96 3.88 4.64 7.37 1.33 2.8 2.47 4.08 2.87 4.38-1.34-5.54-5.42-13.64-6.82-13.64-1.4 0-10.11 2.37-11.09 3.22-.78.69-17.85 13.52-26.3 19.85-.08 2.13-.73 6.5-2.62 6.95-1.9.45-2.06-1.84-1.91-3.04l-4.25 4.5Z"/><path fill="#605D71" d="M87.3 187.95c.2-.09 16.07-14.65 23.98-21.92-7.57 7.36-22.77 22.15-23.01 22.4-.25.25-2.85 15.45-4.32 23.05 2.26 5.52 6.17 16.83 5.32 17.61-.97-4.19-4.43-12.24-6.06-16.03l-5.67 5.59a123.1 123.1 0 0 1-8.99-5.59 9.9 9.9 0 0 0-6.05-1.8c2.64-1.5 5.6.7 6.22 1.1.5.32 6.1 3.68 8.82 5.32 1.7-1.84 5.13-5.62 5.16-6.03.04-.5 4.37-23.58 4.6-23.7ZM87.1 245.02c0-.52.82-8.85 1.8-12.97-1.23-.24-2.8 12.97-2.72 13.25.08.28 3.23 7.57 3.5 7.75.2.15 1.36-.4 1.92-.69-1.5-2.27-4.5-6.92-4.5-7.34Z"/><path fill="#E8E2DE" d="M117.3 204.44c1.05-.78 18.98-14.47 21.93-16.63 1.93-1.45 10.45-.6 14.47 0 0 0-6.59 20.7-7.02 20.7-.43 0-29.37 20.45-29.9 21.23-.51.78 0 7.28-.68 7.2-.56-.07-1.74-6.33-2.26-9.45.81-7.42 2.64-22.42 3.47-23.05Z"/><path fill="#45753C" d="M110.9 151.1c3.14 6.27 5.62-11.1 4.08-12.98-1.54-1.88-5.65 9.81-4.08 12.97Z"/><path fill="#5D9948" d="M110.9 151.1c3.14 6.27 5.62-11.1 4.08-12.98-1.54-1.88-5.65 9.81-4.08 12.97Z"/><path fill="#45753C" d="M107.45 167.28c3.6 6.58 5.15-17.96 3.45-19.6-1.7-1.62-5.26 16.28-3.45 19.6Z"/><path fill="#45753C" d="M107.45 167.28c3.6 6.58 5.15-17.96 3.45-19.6-1.7-1.62-5.26 16.28-3.45 19.6Z"/><path fill="#45753C" d="M110.47 159.7c2.67 7.25 7.5-16.61 6.05-18.57-1.46-1.97-7.38 14.92-6.05 18.57Z"/><path fill="#45753C" d="M110.47 159.7c2.67 7.25 7.5-16.61 6.05-18.57-1.46-1.97-7.38 14.92-6.05 18.57Z"/><path fill="#45753C" d="M110.78 163.2c1.5 6.52 7.17-8 6.19-10.13-.98-2.14-6.95 6.86-6.2 10.13Z"/><path fill="#5D9948" d="M110.78 163.2c1.5 6.52 7.17-8 6.19-10.13-.98-2.14-6.95 6.86-6.2 10.13Z"/><path fill="#45753C" d="M105.5 170.3c4.34 5.83 2.95-18.72 1.08-20.02-1.87-1.3-3.27 17.07-1.09 20.01Z"/><path fill="#5D9948" d="M105.5 170.3c4.34 5.83 2.95-18.72 1.08-20.02-1.87-1.3-3.27 17.07-1.09 20.01Z"/><path fill="url(#b)" d="M113.69 176.27c1.7-.2 4.1-2.98 4.68-4.34.7-1.17-.59-7.07-1.37-7.9-.78-.83-4-2.93-5.7-2.44-1.71.49-8.4 10.34-8.3 11.5.1 1.18 2.05 3.47 2.59 3.91.54.44 6.39-.54 8.1-.73Z"/><path fill="#BFB8BB" d="M113.47 175.96c1.6-.22 3.86-2.8 4.42-4.1.4-.66.11-2.93-.33-4.81-.52-2.57-1.95 1.94-3.86 4.03-1.9 2.1-8.04 5.97-.23 4.88Z" opacity=".5"/><path fill="#88848E" d="M111.14 162.42c-1.53.43-7.1 8.8-7 9.85.05.69.83 1.8 1.48 2.6 1.23 1.72 6.52-2.77 7.78-4.46.93-1.23 3.67-4.91 2.83-5.82-.7-.74-3.57-2.6-5.1-2.17Z"/><path fill="#45753C" d="M42.46 257.87c-5.68 5.63-7.1-15.87-4.47-17.24 2.62-1.37 7.33 14.4 4.47 17.24Z"/><path fill="#45753C" d="M42.46 257.87c-5.68 5.63-7.1-15.87-4.47-17.24 2.62-1.37 7.33 14.4 4.47 17.24Z"/><path fill="url(#c)" d="M37.4 220.1c-2.17-.25-5.23-3.8-5.98-5.55-.9-1.5.75-9.04 1.75-10.1 1-1.06 5.11-3.74 7.3-3.12 2.18.62 10.72 13.22 10.6 14.72-.13 1.5-2.62 4.42-3.3 4.99-.7.56-8.18-.69-10.36-.94Z"/><path fill="#797882" d="M37.69 219.71c-2.06-.28-4.95-3.6-5.66-5.24-.5-.85-.15-3.76.42-6.16.66-3.28 2.5 2.48 4.94 5.16 2.43 2.68 10.28 7.63.3 6.24Z" opacity=".5"/><path fill="#BFB8BB" d="M40.66 202.39c1.95.56 9.07 11.27 8.96 12.6-.08.88-1.06 2.31-1.9 3.33-1.58 2.2-8.33-3.54-9.96-5.7-1.19-1.59-4.7-6.29-3.6-7.45.88-.95 4.56-3.34 6.5-2.78Z"/><path fill="#5D9948" d="M138.48 237c-5.88-4.02-5.8 5.2-5.02 10.32l-3.35 2.83h.1c6 .11 8.29.16 10.57-4.75 3.28.12 4.5-.57 5.4-3.62 8.13-.15 8.83-8.23 4.26-13.68-3.67-4.38-3.28 3.6-4.4 9.65-.14-2.42-1.69-6.83-3.46-9.47-3.68-5.5-4.27 3.52-4.1 8.72Z"/><path fill="#45753C" d="M38.18 251.15c-4.3 6.24-10.69-14.78-8.42-16.45 2.26-1.67 10.57 13.3 8.42 16.45Z"/><path fill="#45753C" d="M38.18 251.15c-4.3 6.24-10.69-14.78-8.42-16.45 2.26-1.67 10.57 13.3 8.42 16.45ZM101.16 256.06c.38-6.04 6.93-15.73 13.52-9.74 1.2-5.97 4.41-16.14 7.73-8.99 2.64 5.7 2.5 9.74 1.86 11.84 3.08-6.66 8.8-16.43 10.85-10.1 2.16 6.72.26 9.96-.97 10.75-2.04 4.1-4.06 4.9-10.7 3.8-2.01 3.27-3.79 3.76-8.04 2.85-4.34 5.1-8.13 2.5-16.92 4.07l2.67-4.48Z"/><path fill="#5D9948" d="M51.68 260.21c-.51-4.86-2.64-13.33-7.06-8.24-1.09-4.8-3.79-12.9-5.84-7-1.63 4.7-1.37 7.97-.82 9.65-2.46-5.27-6.92-12.97-8.1-7.78-1.26 5.52.23 8.07 1.13 8.66 1.61 3.25 3.08 3.81 7.73 2.69 1.56 2.57 2.84 2.9 5.81 2.02 3.28 3.96 7.47 3.83 13.76 4.78l-6.6-4.78Z"/><path fill="#45753C" d="M66.72 256.86c2.97-7.63 8.88 1.18 11.47 6.54l5.1 2.95c-7 3.35-10.4 3.66-15.36.07-10.95 6.8-18.8 2.26-20.2-9.38-.83-6.83 7.2.15 12 5.17 0 0-2.49-3.36-2.56-10.96-.07-7.6 6.34.57 9.55 5.6Z"/><path fill="#5D9948" d="M104.77 260.9c.72-4.7 3.35-12.83 8.07-7.8 1.36-4.6 4.6-12.37 6.69-6.6 1.66 4.6 1.26 7.75.6 9.36 2.9-5.04 8.06-12.37 9.2-7.31 1.22 5.37-.5 7.8-1.5 8.35-3.49 4.45-7.93 7.27-14.65 5.83-3.28 3.94-4.98 2.47-12 1.66l3.59-3.5ZM157.92 225.1c-4.97-4.03-5.57 4.24-5.25 8.88l-3.21 2.29h.09c5.36.54 7.4.75 9.81-3.47 2.93.34 4.07-.18 5.1-2.85 7.3.46 8.52-6.72 4.82-11.94-2.97-4.19-3.2 2.98-4.64 8.32.05-2.18-1.02-6.24-2.4-8.74-2.9-5.18-4.09 2.85-4.32 7.51ZM62.27 262.38c2.84-7.22 8.41 1.16 10.84 6.24l4.76.5-.1.07c-5.33 3.76-7.37 5.2-12.43 2.18-2.89 2.1-4.4 2.24-7.08.04-7.43 4.83-13-2.02-12.21-9.74.63-6.19 5.15 1.24 9.86 6.02-1.35-2.28-2.65-7.2-2.67-10.66-.04-7.2 6 .57 9.03 5.35Z"/><path fill="url(#d)" d="M79.22 256.06c.97-3.13 6.15-5.98 8.77-6.78 3.2-.91 13.23 2.05 14.82 3.42 1.6 1.37 3.2 7.75 3.2 11s-4.1 10.5-6.72 11.24c-2.62.74-12.12 2.03-14.8 1.07-2.67-.97-7.21-5.3-8.24-7.47-2.1-4.67 2.4-11 2.97-12.48Z"/><path fill="url(#e)" d="M102.9 254.02c1.13 2.36 2.37 7.21 2.37 9.62 0 2.1-1.78 5.94-3.71 8.42-.92 1.2-3.96-7.76-4.56-8.85-.31-.57 1.55-2.76 3.22-4.9 1.56-1.99 2.47-4.73 2.68-4.29Z" opacity=".2"/><path fill="#797882" d="M76.91 268.3c-2.1-4.66 2.4-11.94 3.3-10.81 2.15 3.77 6.78 4.71 5.78 5.83-1 1.11-3.17 5.95-3.17 10.2.11 2.17-5.38-4.12-5.9-5.22Z" opacity=".3"/><path fill="#A2A0AC" d="M98.32 274.18c-2.37.67-11.4 2.55-13.95.96-2.55-1.59 1.4-11.9 2.87-11.82 1.47.07 7.4-.4 8.28-.81.88-.42 5.17 11 2.8 11.67Z" opacity=".5"/><path fill="#45753C" d="M145.8 242.7c-.34-3.17-.14-8.82 3.35-6.2.04-3.19.65-8.7 2.75-5.23 1.68 2.76 1.96 4.87 1.84 6 .84-3.68 2.62-9.16 4.07-6.03 1.55 3.33.96 5.15.47 5.64-.58 2.29-1.44 2.84-4.54 2.76-.64 1.85-1.4 2.23-3.4 2.07-1.55 2.96-4.23 3.45-8.09 4.91l3.54-3.93Z"/><path fill="#000" fill-opacity=".15" d="M78.24 135.7c2.53-.07 5.4-2.42 4.87-3.16-5.99-.82-18.03-2.5-18.22-2.73-.25-.28 1.75-4.03 5.47-3.47 3.71.56 5.7-1.13 5.95-1.93s-6.66-3.29-20.14-2.43c-13.48.85-18.88 7.44-18.97 7.8-.09.36-1.47 5.91-.58 5.91.9 0 1.65-1.67 2.9-2.65s3.84-1.6 4.25-.5c.32.89-4.87 6.22-7.5 8.77 1.82 1.4 6.52 4.71 10.8 6.71 6.54 1.08 17.69-2.39 19.28-2.5 1.6-.11 3.36-3.24 2.9-3.53-.45-.28-12.85 2.5-13.93 1.37-1.08-1.14 10.52-7.67 10.69-7.67.17 0 9.7.07 12.23 0Z"/><path fill="#9D6C3E" d="M50.86 125.48c1.38-.57 2.45-2.23 1.61-5.77 7.9-2.06 3.55 7.2 2.3 9.58 1.2 1.02 1.01 2.69.77 3.4 1.07 1.1 3 3.47 2.14 4.08-1.06.76-3.45.84-4.55.54-.9-.25-.74-1.9-.56-2.69-.56-.15-1.7-.62-1.82-1.22-.15-.76 2.72-1.97 1.13-4.07-1.6-2.1-2.4-3.28-1.02-3.85ZM70.63 117.85c-.92-2.73 2.14-4.84.7-7 1.88-1.54 5.82-4.33 6.48-3.2.82 1.41-3.03 2.93-2.77 5.2.27 2.27-.16 3.75-1.25 5.8 1.37.62 1.4 2.4 1.25 3.22.65.23 1.95.86 1.95 1.55 0 .85-1.55 2.23-3.53 2.3-1.58.05-2.08-1.52-2.14-2.3-.34-.05-1.04-.22-1.15-.56-.13-.43 1.38-2.28.46-5Z"/><path fill="#CA9350" d="M78.34 94.55c3.7-1.42 12.8-4.6 19.73-5.96v9.08c-2.86 2.2-9.17 7.35-11.6 10.36.4 6.54-5.24 9.96-5.02 13.33.17 2.7-.54 5.46-.91 6.17.61.33.86 2.24.9 3.16l1.49 1.81a6.2 6.2 0 0 1-3.16 2.07c-1.58.4-2.06-1.21-2.1-2.07-.37 0-1.1-.36-1.1-1.8 1.55-3.2.1-5.55 1.1-9.34.98-3.78-1.1-4.63-1.85-3.58-.76 1.05-1.87 1.95-4.58 3.87.37 6.47-6.51 7.66-6.71 10.66-.34 5.17 1.74 4.25 1.9 5.8.17 1.54.36 1.35 3.2 4.34-.08 1.77-2.28 2.23-3.36 2.24-.84-.54-2.7-1.8-3.5-2.53-.98-.93.17-1.22.2-3.36.04-2.14-3.48-4.48-3.8-5.63-.33-1.15 3.09-2.6.55-5.66-2.53-3.06-4.04-4.3-5.71-5.34-1.35-.84-2.41-3.1-2.78-4.14l-3.06 2.45c-.75-.22-1.5-1.6 1.5-5.3.34-7.14 8.6-12.22 14.86-13.37 0 0 1.68-.23 4.88-2.95 2.5-3.7 7.14-4.56 8.93-4.3Z"/><ellipse cx="101.79" cy="95.3" fill="#543426" rx="2.11" ry="2.44" transform="rotate(-13.95 101.79 95.3)"/><ellipse cx="102.61" cy="95.1" fill="#fff" rx=".64" ry=".74" transform="rotate(-13.95 102.61 95.1)"/><path fill="#CA9350" d="M87.22 90.7c.1-.5.5-1.66 1.36-2.38 2.2-2.65 6.36-3 8.18-2.85 2.92-1.32 8.83-3.72 9.02-2.8.5 1.6-2.76 3.47-4.45 4.22 3.27 2.02 1.92 6.02.84 7.77.14.99.67 3.55 1.73 5.86 1.34 2.89 2.27 10.13-.66 10.7-2.34.46-4.15-1.29-4.75-2.22-.85 2.47-2.94 7.28-4.58 6.7-2.04-.7 1.91-9.45-4.48-12.7-5.12-2.59-3.94-6.9-2.71-8.74-6.7.4-6.93-1.91-6.26-2.62.53-.57 4.73-.87 6.76-.94Z"/><path fill="#9D6C3E" d="M98.07 108.67c-.2-.32-3.8-2.19-5.97-4.27 3.04 3.45.93 10.84 2.27 10.84 1.08 0 2.91-4.38 3.7-6.56Z"/><path fill="#6A4632" d="M104.67 106.41c.1 1.1-1.85 1.64-4 .41-.47.5.2.84.6.96.17.63.84 1.95 2.2 2.19 1.37.24 1.37-2.27 1.2-3.56Z"/><path fill="#9D6C3E" d="M95.62 97.39c-1.59 0-4.71-3.93-3.2-4.85 1.36-1.1 2.52.49 3.2-.52.67-1-.7-4.99-3.2-4.92-2.51.06-4.16 2.25-4.6 4.02 1.92.58 1.94 3.54-.43 3.41-2.02 3.16-1 6.08 1.6 7.61a92 92 0 0 1 10.25 7.16c2.53 2.4 4.03 1.51 4.38 1.2-2.14-.17-2.4-1.62-2.6-2.3-1.65-.8-.84-1.9.34-1.64-1.2-1.89-3.43-5.68-2.6-5.75 1.05-.08 3.37 6.1 4.2 5.75.81-.36-4.25-9.8-5.23-10.18-.99-.39-.52 1-2.11 1Z"/><path fill="#543426" d="M80.96 92.26c.73-.69 4.5 1.18 6.44.69l1.6-.43c.62.46 1.53 1.64.24 2.68-1.6 1.3-2.58-.46-2.02-.61.45-.12.77-.79.87-1.1-3.72 1-7.87-.54-7.13-1.23Z"/><ellipse cx="92.35" cy="99.54" fill="#543426" rx="2.47" ry="2.86" transform="rotate(-42.7 92.35 99.54)"/><ellipse cx="93.08" cy="98.86" fill="#fff" rx=".75" ry=".87" transform="rotate(-42.7 93.08 98.86)"/><path fill="#543426" d="M95.48 87.7c.11 1.41-2.2 2.6-5.15 2.32-8.2-30.04-32.4-18.36-32.4-20.73 28.96-11.9 37.43 17 37.55 18.4Z"/><path fill="#543426" d="M101.02 86.22c.11 1.42-3.94 2.43-5 1.68-8.2-30.04-19.27-20.57-19.27-22.94 17.14-6.22 24.16 19.85 24.27 21.26Z"/><path fill="#9D6C3E" d="M85.7 95.08c-2.19 5.87 2.18 8.12 4.63 8.51-1.11.8-3.53 2.74-4.31 4.16.46 5.04-3.64 9.95-4.45 11.47-.8 1.53-.23 2.28-.43 4.35-.21 2.06-1.81 7.48-2.92 8.2-.9.57-1.2-.32-1.23-.83.05-.14.27-.72.68-1.92.9-2.48-.57-4.27.55-8.43 1.1-4.16-1.71-4.65-2.3-3.77-.98 1.58-3.7 3.4-4.94 4.12-.05-1.74-1.71-3.28-2.53-3.84 2.5-1.39 3 1.34 5.46 0 1.96-1.07 2.85-5.72 3.04-7.91-3 1.42-8.03 1.42-7.55 0 .38-1.15 4.23-2.31 6.1-2.75-1.74-3.52-7.1-4.35-9.55-4.32l2.5-1.37c3.2-.6 7 2.06 8.5 3.47.65-4.14 3.03-8.55 4.13-10.23.11.15 1.2.58 4.61 1.09ZM63.87 128.6c-.82 3.9-4.44 3.86-4.05 4.86.9.9 2.85 3 3.42 4.3 1.13-.42.9-2.49.87-4.9-.03-2.4 1.42-3.22 4.41-5.68 3-2.45 2.24-6.02 1.38-5.97-.85.06-.05 3.95-4.06 4.06-4 .1-10.57-7.9-13.88-7.47.8 6.24 12.74 6.9 11.91 10.8Z"/><path fill="#543426" d="M83.18 132.37c-.32-.78-1.3-1.44-1.73-1.67-1.57 1.99-3.22 2.02-3.85 1.79.02.72.32 2.26 1.34 2.62 1.28.44 4.65-1.77 4.24-2.74ZM67.78 140.48c-.15.55-2.25 3.4-3.51 2.88.49.51 1.61 1.56 2.19 1.66 3.13.05 3.75-2.2 3.44-2.73-.32-.52-1.98-2.36-2.12-1.8Z"/><path fill="#6A4632" d="m67.12 142.25.65-.85c.56.38 1.68 1.17 1.71 1.36.04.24-.75 1.03-.93 1.1-.14.05-1.01-1.05-1.43-1.61Z"/><path fill="#543426" d="M56.52 133.8c-.29.4-2.5.85-4 .82-.25.63-.57 2.08.2 2.75.95.85 5.4.35 5.38-.97-.04-1.32-1.3-3-1.58-2.6Z"/><path fill="#6A4632" d="m55.4 134.75 1.07-.37c.28.66.8 2.03.72 2.21-.1.23-1.27.48-1.47.43-.16-.04-.28-1.53-.32-2.27Z"/><path fill="#543426" d="M75.03 121.84a5.52 5.52 0 0 1-3.65 1.56c-.28.83-.28 2.47 1.94 2.44 2.78-.05 3.76-1.77 3.76-2.34 0-.57-1.65-2.09-2.05-1.66Z"/><path fill="#6A4632" d="m74.1 123.06.88-.71c.48.53 1.44 1.65 1.42 1.85-.02.25-1.04.87-1.24.9-.17.01-.78-1.35-1.07-2.04ZM80.6 131.99l.78-.74c.49.46 1.47 1.42 1.47 1.61 0 .24-.9.9-1.09.94-.15.03-.83-1.2-1.16-1.81ZM90.54 89.64c2.45.27 4.27-.83 4.62-1.74-.23-.17-1.12-.37-2.89.2-1.34.43-.7-2.17-1.38-2.1-.68.07 0-1.73-.6-1.65-.58.07-.26-1.86-.86-1.88-.6-.01-.35-1.57-.97-1.77-.6-.19-1.06-2.35-1.5-2.44-.45-.08-.88-1.71-1.35-1.9-.47-.18-1.22-1.75-1.65-1.94-.43-.18-.98-.99-1.47-1.42-5.16-4.55-10.6-4.74-14.9-4.33 18.2.33 22.04 18.07 22.95 20.97ZM96.4 87.77c2.46.27 4.27-.83 4.62-1.74-.22-.17-1.12-.37-2.89.2-1.34.43-.7-2.17-1.38-2.1-.68.07 0-1.73-.6-1.66-.58.08-.26-1.85-.86-1.87-.6-.02-.35-1.58-.96-1.77-.62-.2-.63-2.35-1.08-2.43-.45-.09-.76-1.9-1.23-2.09-.48-.18-.11-1.48-.55-1.66-.43-.18-.96-1.37-1.46-1.8-.84-.73-4.44-5.73-7.23-5.31 8.24 2.44 12.72 19.33 13.62 22.23Z"/><defs><radialGradient id="a" cx="0" cy="0" r="1" gradientTransform="matrix(-6.1985 92.2877 -132.235 -8.8816 124.52 172.85)" gradientUnits="userSpaceOnUse"><stop offset=".65" stop-color="#DAD2CE"/><stop offset="1" stop-color="#817B89"/></radialGradient><radialGradient id="b" cx="0" cy="0" r="1" gradientTransform="matrix(9.249 8.9016 -8.6658 9.004 107.37 165.07)" gradientUnits="userSpaceOnUse"><stop offset=".47" stop-color="#DAD2CE"/><stop offset="1" stop-color="#817B89"/></radialGradient><radialGradient id="c" cx="0" cy="0" r="1" gradientTransform="rotate(136.1 -18.73 112.06) scale(16.4152 15.9802)" gradientUnits="userSpaceOnUse"><stop offset=".47" stop-color="#DAD2CE"/><stop offset="1" stop-color="#817B89"/></radialGradient><radialGradient id="d" cx="0" cy="0" r="1" gradientTransform="matrix(0 19.5945 -21.2645 0 90.85 257.04)" gradientUnits="userSpaceOnUse"><stop offset=".65" stop-color="#DAD2CE"/><stop offset="1" stop-color="#817B89"/></radialGradient><radialGradient id="e" cx="0" cy="0" r="1" gradientTransform="matrix(0 18.6719 -20.2633 0 90.85 257.31)" gradientUnits="userSpaceOnUse"><stop offset=".5" stop-color="#DAD2CE"/><stop offset=".9" stop-color="#F7F4EF"/></radialGradient></defs></svg>