<svg xmlns="http://www.w3.org/2000/svg" width="188" height="368" fill="none"><path fill="#E9F3E7" d="M17.02 170.56c-14.34 6.36-7.34 28.53 15 24.13 12.05 14.18 32.75 6.35 35.84 2.93 15.65 4.4 23.15-.33 26.57-4.07 0 0 17.77-.81 17.77-8.15 0-5.05-9.62-7.49-9.62-7.49s2.97-19.18-20.25-22.48c1.84-12.61-11.48-28.63-27.26-28.63-15.77 0-24.2 11.13-26.4 16.5-15.03.98-18.66 19.07-11.65 27.26Z"/><path fill="#B7DFE2" d="M34.71 137.16c-5.95 13.44 4 24.03 13.04 27.13-10.67 2.94-12.23 15.57-.58 21.76 11.65 6.2 25.6 1.72 25.6-8.31 0-6.44-5.15-9.86-5.15-9.86s5.4 1 11.51-6.82c1.72.62-.22 4.4-3.18 6.41-3.37 2.32-2.82 15.22 10.26 16.57 13.08 1.35 14.86-8.87 14.86-8.87s2.18 3.86-2.03 8.63c0 0 3.11.82 4.59-3.58 3.9-.1 11.82 5.36 4.24 9.43-4.75 2.62-12.67 2.16-12.67 2.16l1.22-2.37s-5.88 8.46-16.18 8.46c-13.39 0-8.74-2.8-7.38-4.36 2.67-3.02 1.02-3.75 1.02-3.75s-7.27 12.77-26.24 11.34c-11.31-.84-14.92-8.43-14.92-8.43s-14.77 4.37-21-6.87c-4.04-8.56 3.97-14.3 6.48-14.85 0 0-9.47-10.51.86-22.74-.31 3.92-1.1 12.17 7.27 9.54 1.71-15.14 6.93-19.82 8.37-20.64l.01.02Z"/><path fill="#FBFAEA" d="M58.08 169.19c-9-1.95-10.19 10.6.65 12.55 10.83 1.96 11.4-9.96-.65-12.55ZM58.97 132.12c-14.84 1.62-14.75 26.88 4.97 25.42 19.73-1.46 14.44-27.54-4.97-25.42ZM88.84 159.01c-8.44 3.37-5.52 22.21 10.45 12.72 2.27-1.34-5.5-12.65-10.45-12.72Z"/><path fill="#93CBD8" d="M28.07 155.75c.33 7.74 6.67 12.38 6.67 12.38s-5.62 6.87-5.62 13.83 3.35 9.48 3.35 9.48-14.51 4.22-20.13-6.66c-.86-2.4 7.08 5.62 16.13 2.81-.85-3.6-7.7-12.45-12.65-13.6 4.28-2.78 5.5-2.54 5.5-2.54s-6.4-3.23-5.8-11.79c3.91 2.69 9.71 2.63 11.06.91l1.49-4.82ZM34.21 192.25c5.31 8.17 22.86 11.4 35.94.59-3.85-.24-18.58 8.3-35.94-.6ZM75.55 190.52c1.74 1.87-2.16 4.72-1.56 5.48.6.75 12.92 1.9 19.23-4.79 1.55-1.63-9.08 4.48-17.67-.7Z"/><path fill="#F1F1F1" d="M54.92 130.15c0-1.65 1.27-4.07 3.66-5.21 18-.45 54.35-1.06 55.82.06 1.83 1.4 3.67 3.6 3.67 5.3v4.59c0 1.41-1.25 3.63-3.13 5.27v.07c0 1.13 0 3.02-1.02 4.23.48 1.07.06 1.61-.2 1.75v12.02c.9.88 2.73 2.9 2.73 3.85v4.67c0 1.62-1.07 3.51-1.6 4.25l.02 45.7c0 8.62-9.09 16.71-31.6 16.71s-25.3-14.07-25.3-18.97v-43.86a7.8 7.8 0 0 1-2.04-4.49v-3.83c0-1.95 2.23-3.8 3.35-4.47v-11.8c-.32-.26-.38-.84-.38-1.84-.8-.7-1.3-1.09-1.3-4.22-2.33-2.1-2.68-3.57-2.68-4.92v-4.86Z"/><path fill="#10777C" d="M57.9 136.07c-4.66-4.09-1.95-8.76.4-10.46 2.03-.86 58.85.81 55.5 7.38-3.35 6.56-14.86 9.84-29.17 9.84-14.31 0-25.14-5.86-25.88-5.56 10.52 6.96 20.42 6.88 27.95 7.3-2.9.71-9.31.01-12.16-.42-.2.9-.39 2.75.38 2.85 21.8 3.11 35.21-2.84 39.2-6.21.4 1.32-3.64 2.67-3.69 3.61-.05.94 2.93-.08 2.78.38-.15.45-3.1.54-3.1 1.55 0 1 2.1.38 2.9.21-.38 1.25-2.7 1.07-2.85 1.66-.16.6 0 12.54 0 13.56 0 1.01 3.72.92 2.13 1.26-1.6.34-3.64-.1-3.96-.58-.27-.4-.71-.08-.82 0 .1.05.46 1.32 3.4 1.29 2.49-.03 3.28-1.23 3.37-1.83.04.54.1 1.72 0 2.13-.14.52-.23 1.62-2.5 1.98a6.57 6.57 0 0 1-3.76-.42l-.96 1.46c-.02.27-.05 1.04 0 1.96.06 1.14.04 1.9-2.5 2.52-2.77.5-4.13-.65-4.47-1.3-.7.3-2.5.93-4.21 1.13.08 1.2.3 3.1-3.21 3.2-2.8.08-3.98-1.11-4.22-1.72l-4.23-.13c.01.48-.73 1.46-3.77 1.46-3.8 0-15.45-2.7-15.45-1.97 2.13 1.2 9.12 3.05 12.34 3.83-6.42-.85-10.9-2.57-12.34-3.32-.06.13-.14.6 0 1.46.17 1.06 3.15 2.26 3.02 2.47-.1.17-.84-.07-1.19-.21v19.65c0 20.76 13.43 19.65 15.74 16.43 2.3-3.21 22.59-27.1 25.27-30.77 2.68-3.67 2.4-6.25-.3-4.5-2.67 1.76-23.69 8.66-31.62 6.53-6.34-1.7-7.48-5.37-7.26-7 1.98.97 7.94 2.9 15.87 2.9 19.86 0 27.65-5.37 29.58-7.8v41.34c0 15.95-11.83 19.17-32.54 19.17-20.7 0-23.2-14.41-23.2-19.87v-41.04a15.43 15.43 0 0 0 6.63 3.85c-1.52-.72-5.01-2.7-6.76-4.9-2.2-2.76-1.91-5.15-1.68-4.73 1.8 3.3 5.54 5.31 7.18 5.9-2.47-1.45-7.41-5.11-7.41-8.08 0-2.97 1.8-4.63 2.71-5.08v2.72c-.1.08-.3.55-.3 1.86 0 1.3.37 1.56.55 1.53a7.3 7.3 0 0 1 0-2.19c.63.81 2.26 1.1 2.2.32-1.88-.17-2.14-1-2.04-1.4l.19-14.76c.38.06 1.03.07.53-.38-.9-.42-.98-1.43-.9-1.89.5.12 1.42.22 1.03-.3-2.4-.75-2.22-2.24-2.16-3.42a19.58 19.58 0 0 0 8.3 4.16c-.5-.66-3.54-1.38-7.48-4.16-3.95-2.78-3.58-5.15-3.7-7.09a4.73 4.73 0 0 0 2.64 2.64Z" opacity=".2"/><path fill="#F1F1F1" d="M105.83 168.92c-2.66.79-4.86.18-5.23-.55-.06-.23 0-.5.2-.5-.02.27.42.8 2.3.92 2.34.16 3.52-.9 3.41-1.66.36.02.3.67.23 1 .07.58.11 1.82-.23 2.13-1.6 1.56-4.77 1.06-4.43.7a3.1 3.1 0 0 0 2.12-.11c.17-.11 0-.2 0-1.08.26-.4 1.63 0 1.63-.85ZM94.6 171.53c-2.67.78-4.86.18-5.24-.56-.05-.22.01-.5.2-.5-.02.28.43.8 2.3.93 2.34.15 3.52-.9 3.42-1.67.35.03.3.68.23 1 .06.58.1 2.07-.23 2.38-1.6 1.56-4.77.82-4.44.46.77.27 1.83.08 2.13-.12.17-.1 0-.2 0-1.08.25-.4 1.63 0 1.63-.84ZM79.07 173.13a3.1 3.1 0 0 0 2.12-.12c.17-.1.08.11.08-.76.26-.4 1.6-.25 1.6-1.1-.86.62-4.43.65-3.6-.06 3.81.52 4.7-.82 4.6-1.59.26.6-.07 1.08-.14 1.4.07.59.17 1.7-.16 2-1.41 1.06-4.84.59-4.5.23Z"/><path fill="#F1F1F1" d="M106.27 166.88c0 1.03-1.87 1.69-3.47 1.5-.89-.03-.89-.66-.89-1.29v-.03c0-.63-.06-14.65.23-15.44 2.42.42 3.76-.17 4.13-.52v15.78ZM106.37 149.2c.24.09.63.4.32.96-.36.65-1.79 1.25-3.41 1.16-.1-.3-.1-.97.7-1.24.81-.26 1.93-.7 2.4-.87ZM107.28 147.07c.37 1.46-1.63 2.16-3.3 2.19-1.66.03 3.1-3.1 3.3-2.2ZM95.05 169.49c0 1.03-1.87 1.69-3.48 1.49-.88-.02-.88-.65-.88-1.28v-.03c0-.64-.07-14.66.23-15.44 2.41.42 3.76-.17 4.13-.52v15.78ZM95.15 151.81c.24.08.63.39.31.96-.35.65-1.78 1.24-3.4 1.16-.1-.3-.1-.97.7-1.24.8-.27 1.93-.7 2.4-.88ZM96.06 149.67c.36 1.47-1.64 2.16-3.3 2.2-1.67.02 3.09-3.1 3.3-2.2ZM83.54 169.05c0 1.03-1.4 1.69-2.59 1.49-.66-.03-.66-.65-.66-1.28v-.03c0-.64-.05-14.66.18-15.44 1.79.42 2.8-.18 3.07-.53v15.79ZM83.61 151.37c.18.08.47.39.24.96-.27.65-1.33 1.24-2.54 1.16-.08-.3-.08-.97.52-1.24s1.44-.7 1.78-.88ZM84.29 149.23c.27 1.47-1.22 2.16-2.46 2.2-1.23.02 2.3-3.1 2.46-2.2Z"/><path fill="#09505F" d="M77.66 166.75c-.63-.06-3.83-1.36-5.53-2.05v-10.5c0-1.62 1.17-3.43 1.6-3.3a7.55 7.55 0 0 0-1.27 3.3v9.91c0 .35.56.42.84.42v-9.66c0-1.4.8-2.98 1.2-3.6-.68-.43-.78-1.18-.32-1.26 1.56 1.02 3.53 6.8 3.72 8.32l-.24 8.42ZM77.66 208.62c-.63-.06-3.83-1.36-5.53-2.05v-10.5c0-1.62 1.17-3.43 1.6-3.3a7.55 7.55 0 0 0-1.27 3.3v9.91c0 .34.56.42.84.42v-9.66c0-1.4.8-2.98 1.2-3.6-.68-.43-.78-1.18-.32-1.26 1.56 1.02 3.53 6.8 3.72 8.32l-.24 8.42Z" opacity=".4"/><path fill="#312E2B" d="M73.65 164.72v-9.66c0-1.03.8-2.6 1.19-3.24 1.06.82 2.35 4.93 2.85 6.88l-.19 7.22-3.85-1.2ZM73.65 206.59v-9.66c0-1.03.8-2.6 1.19-3.24 1.06.82 2.35 4.93 2.85 6.88l-.19 7.22-3.85-1.2Z"/><path fill="#09505F" d="M107.62 147.47c.11-.28.44-1.14.9-2.4.06.44 1.19.38 1.75.3-.34.09-1.07.36-1.2.65-.16.36-.16 1.32 1.4 1.44-.72.31-1.64.24-2.01.17v12.47c0 1.47.33 2.09.57 2.28l.11.07a.33.33 0 0 1-.11-.07c-.37-.2-.92-.57-.92-.8 0-.33-.08-13.72-.14-13.95-.05-.19-.25-.19-.35-.16ZM95.45 153.48c.82-.49.58-1.5.44-1.98.37-.35 1-1.3.6-2.22.22-.78.38-1.46.43-1.7l2.77-.49c.23.04.76.33 1.01 1.2.26.86 1.66 1.1 2.33 1.12-.12.24-.57.64-1.41.35-1.06-.35-.87.8-.66 1.06.17.2.88.37 1.22.42-.08.15-1 .03-1 .74l-.11 15.2a1.23 1.23 0 0 0 .18.6c-.13-.17-.35-.36-.59-.34-.4.03-.48.38-.48.91s-.09.7 0 1.02c.08.32.65 1.07 1.24 1.33-.2.12-.74.13-1.24-.75-.8.4-2.79 1.15-4.36 1.04 2.03-.48 3.87-4.28 3.87-9.7v-6.07c0-2.67.73-.93.73 1.31 0 1.8-.06 7.68-.09 10.4.11.19.33.36.33-.42v-15.27c-.38-.32-1-1.17-.42-1.96 0-1-3.19-1.5-3.19.13.33.51.2 1.18-.87 2.2.59 1.06-.06 1.77-.45 1.99l-.28 7.69v-7.81ZM89.63 152.39c0 .51.58 1.3 1.8 1.23-.71.4-1.26.17-1.45 0l-.25 16.44-1.17.1v1.4c0 1.01.86 1.15 1.83 2.28-1-.23-1.7-1.03-1.92-1.4l-4.37-.16c.95-.74 2.87-2.73 2.87-4.84V155.6c0-2.28 2.14-1.36 2.14-.21v12.43c0 1.52.26 1.98.4 2.02v-15.88c-.43-.1-1.18-.64-.76-1.84-.7-1.72-3.24-1.27-3.98-.77.29.56-.2 1.52-.47 1.93v8.53c0 1.92-.3 5-.46 6.3v-14.99c.2-.2.5-.86.26-1.94.86-.46.73-2.03.56-2.75.52-.05 1.8-.11 2.78 0 .9 2.92 4 3.61 4.63 4.1-1.22.04-2.44-.66-2.44-.14ZM77.85 173.73a2.53 2.53 0 0 1-1.5-2.07l-4.12-1.6a6.5 6.5 0 0 1-5.24.44c-1.3-.62-1.4-1.22-1.4-1.89v-1.8c0-.3.19-.43.29-.45v-1.57l-.85-.46c-.44.78-2.08 2.06-5.13.87 0-.4.71 0 2.17 0 1.47 0 2.9-1.47 2.9-1.83v-.84c.64-.55-.24-.58-.55-.15-.44.6-2.18.99-2.18.27.74 0 2.23-.29 2.23-1.42v-13.8c-.88.08-2.85.13-3.77-.33.95 0 2.49.02 3.2-.15.73-.17.69-1.6-.12-1.6-.65 0-2-.57-2.58-.85l2.39.16c-1.26-.54-3.82-1.76-4-2.34 2.43 1.19 4.72 2.17 5.57 2.51-.06.5-.03 1.64.6 2.12.63.48 2.28.78 3.02.86-.58.13-1.95.3-2.81-.06 0 .8.36 1.7 3 1.78-.37.38-1.87.24-2.57.13l-.22 14.67c-.14.05-.43.09-.43-.17 0-14.03-.27-11.25-.27.17l.7.46v1.42c0 .48.46 1.38 3.46 1.28 0 .62-2.24.52-3.46-.3-.3-.24-.14 1.2-.14 1.66 0 .47 1.1 1.71 3.23 1.65 2.13-.06 2.64-.6 2.64-1.05v-1.7c.16-.22.4-.7 0-.78-.37.47-1.23.63-1.62.65.42-.24 1.26-.83 1.26-1.26 0-.54-.4-15.18-.4-15.84 0-.5-1.04-.67-1.6-.68h-.05.04c.63.01 1.89-.12 2.25-.7.36-.61.1-.93-.08-1.02-.56.15-1.8.32-2.21-.17 1.8-.16 2.4-.89 2.48-1.23l-4.47-1.38 6.57 1.54 1.48.47a4.68 4.68 0 0 0 4.67 4.3c.1.4-1.86.06-2.85-.15-.08.56.2 1.69 2 1.74-.48.32-1.08.27-1.33.2v4.25l-.42-4.58c-.4-.26-1.1-1-.73-1.96-.69-.5-1.45-2.34-1.75-3.2-.88-.24-2.7-.6-2.87-.05.39.84.24 1.88-.57 2.4-.07 1.12.1 11.17.2 16.06.17-.01.54.09.6.61.07.52-.03 1.87-.09 2.48l4.13 1.76c-.02-.48.02-1.48.32-1.6.3-.13.45-.16.48-.16l.18-2.31c.08-.01.24.04.24.35v2.33c-.16.2-.22.7.8 1-.33.46-1.16-.2-1.4-.82-.07.6-.29 1.38-.07 2.17.17.64 1 1.3 1.4 1.56.04.1-.05.23-.65 0ZM84.36 141.83c20.64 0 28.7-7.45 27.98-8.76-16.8-1.65-50.9-5.03-52.88-5.37-2.47-.42-2.77 2.32-1.86 3.65.91 1.33 6.12 10.48 26.76 10.48Z" opacity=".4"/><path fill="#F7C631" d="M86 100.94c-9.22 0-27.08 6.75-27.87 23.48-.2.02-.6.62-.6 2.78 0 4.36 5.52 14.08 28.47 14.08 22.96 0 29-9.99 29-13.3 0-2.65-.88-4.29-1.32-4.78-1.38-15.83-17.35-22.26-27.68-22.26Z"/><path fill="#FCE26A" d="M106.97 115.15c.82 1.93.03 4.25-1.82 6.09-.2.2 1.28 5.04-.62.57-1.9-4.48-.35.28-.54.41-.65.47-1.37.88-2.17 1.22-2.96 1.26-6.04 1.1-7.95-.19-.18-.11.1 2.52-.5-.38-.3-1.4-.17-2-.86-4.92-1.18-5.05.09-.62.2-.86.87-1.72 2.45-3.03 4.72-4 .24-.1-2.55-3.7.71-.27s.46-.15.7-.22a8.8 8.8 0 0 1 5.5.13c.64.25-1.21-1.89.58-.13 3.94 3.58 1.83 2.03 2.05 2.55Z"/><path fill="#E3AA24" d="M113.3 128.46c-1.23 3.46-8.43 10.38-27.34 10.38-8.7 0-14.37-1.53-16.12-2.29-.34.17-.86.66-.2 1.25.82.74 27.29 6.4 41.68-4.81-1.66 2.58-9 7.75-25.07 7.75-20.08 0-29.53-7.87-28.06-15.62-.1 1.84.82 6.2 5.2 8.94.79-.44-1.67-2.12-3.17-4.98-1.5-2.86-1.95-4.98-.65-9.7 1.3-4.72 8.49-13.7 18.25-15.56 8.55-1.64 14.92-1.68 16.37.9.15.27 4.92 2.75 4.96 3.08.01.12-4.65-2.27-4.65-1.83 0 .53-.69 1.56-1.1 2.04-.22.27 4.6 2.72 5.57 5.39-2.96-3.37-6-5.01-6.54-4.76-.56.26-2.03.94-2.7 1.14-.22.06 2.91 7.22 3.4 13.5-.27.06-3.4-13.5-4.86-13.13-.69.15-1.4.26-2.14.33-.47.05-1.32.2-1.8.21-.75.19-4.4 10.48-4.4 10.4.79-6.39 3.89-10.38 3.61-10.4-1.77-.1-3.81-.62-5.66-.81-1.02 0-5.17 4.94-5.44 4.93 0-1.96 3.29-4.71 2.66-4.66-3.6.29-6.13 1.6-7.52 4-1.36 2.35 0 5.6 0 5.6.2.25 3.25-3.7 4.1-3.51.1.12-4.08 6.5-4.5 11.11.24-.73 2-5.54 2.2-5.39 2.65 2.59 5.03 3.5 8.24 4.12.23.04.79-1.9 1.7-2.8.14 0-.91 5.43-.91 9.66.56-4.84 1.21-6.35 1.33-6.33 7.06.53 10.8 1.68 13.38 3 .27.13.06-4.15.3-4.01.14.07.63 3.02.63 9.49.21 1.07.42-4.72.52-4.66 2.6 1.61 4.17 3.33 8.25 4.37.4.1 2.49-.68 3.6-1.15.29-.11-1.22-9.79-2.47-12.64 1.55 2.26 2.83 12.49 3.17 12.31.72-.11 4.13-2.84 4.62-3.45 0-.66-.56-5.04-.84-7.14.2-.18 1.28 7.1 1.46 6.92.39-.4.71-.8.94-1.19Z"/><path fill="#B27314" d="M83.34 109.55c8.48 1.3 10.71-2.89 10.68-4.15l-15.37-1.89c-1.26 1.58-2.09 5 4.7 6.04Z"/><path fill="#F1F1F1" d="M86.26 77.04c.7 0 4.73 9.77 4.73 11.28 0 1.21-.53 1.68-.8 1.76 1.06.25 3.18 1.09 3.18 2.38 0 1.62.08 2.07 0 2.4-.08.32-.7 1.35-2.54 1.97-.12.76-.05 2.21 0 2.84 2.34 1.05 3.27 2.37 3.38 3.35.1.99.08 1.94-.2 2.56-.35.8-1.85 3.6-7.75 3.6s-7.4-2.8-7.75-3.6a5.36 5.36 0 0 1-.2-2.56c.1-.98 1.04-2.3 3.38-3.35.05-.63.12-2.08 0-2.84-1.84-.62-2.46-1.66-2.54-1.98-.08-.32 0-.77 0-2.39 0-1.3 2.11-2.13 3.17-2.38-.26-.08-.8-.55-.8-1.76 0-1.51 4.04-11.28 4.74-11.28Z"/><path fill="#10777C" d="M86.37 90.8c-1.87-.04-4.57-1.3-4.45-2.38.11-1.07 2.8-7.81 4.2-10.41-3.4 13.07 1.31 12.6 2.85 12.6-.05.78-1.77.67-2.15 1.1-.39.44.9 2.28 0 2.28-2.23 0-3.09-.4-4.34-.94-.1.29.75 1.21 1.08 1.4-1.86-.24-3.24-1.52-3.4-1.02 2.17 1.6 5.83 2.05 6.3 2.08.48.02 0 1.72.16 1.8.69 0 2.24-.03 2.95-.2-.2 1.24-4.7.9-4.6 1.65.11.76 2 .58 2 .99 0 .41.3 5.33-.09 5.33-3.54 0-4.02-.66-4.9-1.15-.06.21.65 1.62.97 1.87-1.6 0-3.12-1.48-3.26-1.14 1.47 1.91 5.76 2.11 6.76 2.11.48.13.64 1.85-.08 2.04-7.33-.4-7.76-3.41-7.76-5.49 0-1.39 1.91-2.56 2.87-2.98 0 1.7.38 2.27.57 2.34v-5.36c.88.35 3.77.48 3.77 0-4.72-.3-6.24-2.31-6.35-2.73a7.71 7.71 0 0 1 .07-2.37c.14-.66 1.93-1.61 3.08-1.77 1.02.54 2.93.46 3.75.36Z" opacity=".2"/><path fill="#E9F3E7" d="M97.13 189.3c-10.95 4.86-5.6 21.79 11.45 18.43 9.2 10.83 25.02 4.86 27.38 2.24 11.94 3.36 17.67-.25 20.29-3.1 0 0 13.56-.63 13.56-6.23 0-3.86-7.34-5.72-7.34-5.72s2.27-14.65-15.47-17.17c1.4-9.63-8.76-21.86-20.81-21.86-12.05 0-18.48 8.5-20.16 12.6-11.48.75-14.25 14.56-8.9 20.82Z"/><path fill="#B7DFE2" d="M110.63 163.8c-4.54 10.26 3.05 18.35 9.96 20.72-8.15 2.24-9.34 11.89-.44 16.61 8.9 4.74 19.54 1.32 19.54-6.35 0-4.91-3.92-7.52-3.92-7.52s4.12.76 8.79-5.21c1.3.47-.17 3.36-2.43 4.9-2.57 1.77-2.15 11.62 7.84 12.65 9.99 1.03 11.34-6.77 11.34-6.77s1.67 2.95-1.55 6.58c0 0 2.38.63 3.5-2.73 2.99-.07 9.03 4.1 3.25 7.2-3.63 2-9.68 1.65-9.68 1.65l.93-1.8s-4.5 6.45-12.36 6.45c-10.22 0-6.67-2.14-5.63-3.32 2.04-2.31.78-2.87.78-2.87s-5.55 9.75-20.05 8.66c-8.63-.64-11.39-6.44-11.39-6.44s-11.28 3.34-16.03-5.24c-3.09-6.54 3.03-10.92 4.94-11.34 0 0-7.23-8.03.66-17.37-.24 3-.84 9.3 5.55 7.28 1.31-11.55 5.3-15.13 6.4-15.75Z"/><path fill="#FBFAEA" d="M128.48 188.26c-6.87-1.49-7.78 8.09.5 9.58 8.27 1.5 8.7-7.6-.5-9.58ZM129.16 159.95c-11.33 1.23-11.27 20.53 3.8 19.41 15.06-1.12 11.02-21.04-3.8-19.41ZM151.97 180.49c-6.44 2.57-4.22 16.96 7.98 9.7 1.73-1.02-4.2-9.65-7.98-9.7Z"/><path fill="#93CBD8" d="M105.56 178c.25 5.9 5.1 9.45 5.1 9.45s-4.3 5.24-4.3 10.56 2.56 7.24 2.56 7.24-11.08 3.22-15.37-5.09c-.66-1.82 5.4 4.3 12.32 2.15-.65-2.75-5.88-9.5-9.66-10.38 3.27-2.13 4.2-1.94 4.2-1.94s-4.9-2.47-4.43-9c2.99 2.04 7.41 2 8.45.69l1.13-3.69ZM110.26 205.87c4.05 6.24 17.45 8.7 27.44.45-2.94-.19-14.19 6.33-27.44-.45ZM141.82 204.55c1.34 1.42-1.65 3.6-1.19 4.18.47.58 9.87 1.45 14.69-3.65 1.18-1.25-6.94 3.41-13.5-.53Z"/><path fill="#E9F3E7" d="M49.54 208.6c-9.6-1.93-14.2 3.32-14.2 7.2 0 4.98 10.2 13.2 21.21 13.3 9.19 6.27 29.4 9.5 29.4-1.94 0-7.93-6.35-9.87-6.35-9.87.41-3.97-4.76-17.82-16.2-17.82s-13.86 9.15-13.86 9.15v-.02Z"/><path fill="#B7DFE2" d="M84.79 223.84c2 4.72-5.83 10.45-16.1.76-2.81-2.22 1.39-3.73 1.39-3.73s-6.82.2-12.71-5.81c-5.9-6.02-3.26-11.98-3.26-11.98s-9.26 7.09-2.55 16.78c-5.43 1.66-14.94-5.54-13.3-8.45-2.64-.04-5.44 8.22 7.18 14.22a29.38 29.38 0 0 0 9.9 2.63c-.01 0-1.72-1.3-1.22-2.4 2.64 2.5 11.27 8.18 20.46 8.18 9.18 0 11.9-4.34 10.23-10.18l-.02-.02Z"/><path fill="#FBFAEA" d="M70.65 204.38c5.3 4.04 4.68 11.03-4.26 7.15-8.94-3.87-6.51-15.32 4.26-7.15ZM78.66 221.27c3.46.74 3.67 4.99.59 4.43-3.08-.55-5.35-5.44-.59-4.43Z"/><path fill="#E9F3E7" d="M111.37 82.2c-6.82-1.37-10.08 2.37-10.08 5.12 0 3.54 7.24 9.38 15.06 9.45 6.53 4.45 20.88 6.75 20.88-1.38 0-5.64-4.5-7.01-4.5-7.01.29-2.82-3.39-12.66-11.51-12.66-8.13 0-9.85 6.5-9.85 6.5v-.01Z"/><path fill="#B7DFE2" d="M136.4 93.03c1.43 3.35-4.13 7.43-11.42.54-2-1.57.98-2.65.98-2.65s-4.85.15-9.03-4.13c-4.19-4.27-2.31-8.5-2.31-8.5s-6.58 5.03-1.81 11.91c-3.86 1.19-10.62-3.93-9.46-6-1.87-.03-3.86 5.84 5.1 10.1 3.83 1.74 7.03 1.87 7.03 1.87s-1.21-.92-.86-1.7c1.88 1.77 8 5.8 14.53 5.8 6.53 0 8.46-3.08 7.27-7.22l-.01-.02Z"/><path fill="#FBFAEA" d="M126.36 79.2c3.78 2.88 3.33 7.84-3.02 5.09s-4.63-10.89 3.02-5.08ZM132.06 91.2c2.46.53 2.6 3.55.42 3.16-2.2-.4-3.8-3.87-.42-3.15Z"/><path fill="#F1F1F1" fill-rule="evenodd" d="M123.64 105.02c32.01 4.73 39.55 22.52 39.55 30.88v89.21l-4.1 4.7-5.65-2.82v-55.45c0-2.85.03-4.44-.28-5.33-1.15 1.15-2.28 5.12-2.28 8.83v54.1l-5.43 4.45-5.8-3.85v-46.06c0-2.03.08-4.2.08-4.83-.74 1.12-2.56 4.91-2.56 7.1v53.5l-4.9 3.12-5.85-4.33v-38.2c-.91 1.4-2.75 5.3-2.75 9.71v37.65l-4.86 2.82-5.9-3.86v-24.08a16.2 16.2 0 0 0-2.17 8.18v22.45l-16.1 5.71-17.62-11.96v-16.19c0-.61.34-1.17.87-1.47l5.47-3.01v-4.03c0-.61.34-1.18.88-1.47l5.24-2.82v-4.16c0-.62.34-1.2.89-1.48l5.3-2.82v-4.32c0-.62.36-1.2.92-1.48l4.97-2.57v-4.34c0-.65.37-1.23.95-1.51l5.2-2.52v-4.2c0-.63.35-1.2.9-1.5l4.93-2.58v-4.18c0-.65.38-1.25.97-1.52l4.98-2.3v-4.13c0-.63.35-1.2.9-1.5l6.1-3.13v-3.73c0-.58.31-1.12.81-1.43l5.27-3.2v-20.41c0-6.45-7.3-12.41-13.98-10.96v-14.6l-1.19-.22a1.06 1.06 0 0 1-.13-2.05l6.37-5.8Zm20.42 37.05c-.41.35-.87 2.16-.87 4.03v5.71a44.42 44.42 0 0 0 2.8-2.86c0-3.91-1.28-6.15-1.94-6.88Z" clip-rule="evenodd"/><g opacity=".2"><path fill="#10777C" d="M77.43 245.82v-15.16c0-.5.6-.27.9-.1l16.07 10.38v16.32l-16.97-11.44ZM99.2 237.8c-.45.06-14.35-8.09-16.95-9.9-.67-.44.63-.8 1.01-1.16a678.87 678.87 0 0 0 13.91 8.58c-.05-.91-13.46-9.02-13.46-9.18 0-.16.03-4.54.28-4.64.25-.11 15.05 9.65 15.39 9.83.33.18 4.85-2.8 4.9-2.9.06-.09-16.13-9.1-16.13-9.2a15 15 0 0 1 1.59-1.15c3.7 2.3 11.59 7.18 13.42 8.22-.01-.57-13.32-8.95-13.32-9.4 0-1.42 0-3.53.43-3.85.28-.13 14.87 8.75 15.24 8.93.38.17 4.48-2.28 4.57-2.39.1-.1-15.65-8.78-15.58-9.09.06-.24 1.01-.7 1.48-.9 3.14 1.84 10.06 5.88 12.6 7.3.13-.83-12.37-7.71-12.4-8.05-.04-.34-.02-4.45.28-4.45.3 0 14.69 8.52 15.06 8.65.38.12 4.2-2.28 4.2-2.4 0-.13-15.19-8.45-15.31-8.58-.1-.1.99-.6 1.55-.85 3.48 1.97 10.8 6.12 12.21 6.9-.2-.89-12.22-7.4-12.22-7.8 0-2.37.15-4.4.5-4.4.36 0 13.93 8.11 14.48 8.15.55.03 4.14-2.2 4.25-2.35.1-.16-14.35-7.99-14.53-7.99-.18 0 .98-.94 1.44-.9.46.03 7.06 4.09 11.86 6.7-.53-1.26-11.63-6.99-11.86-7.4 0-1.24.16-4.48.43-4.43.27.06 13.52 7.49 13.96 7.67.36.14 3.03-1.43 4.32-2.22-4.78-2.44-14.36-7.36-14.48-7.6-.11-.24.9-.58 1.43-.71 3.1 1.66 9.6 5.12 10.78 5.67 0-.66-10.64-6-10.64-6.42 0-2.38.12-4.48.4-4.37.3.1 13.12 7.18 13.53 7.27.4.09 4.11-2.33 4.11-2.54 0-.22-13.88-6.81-13.72-7.03a6.06 6.06 0 0 1 1.53-.66l8.52 4.6-8.34-5.15v-3.32c0-1.12.2-1.78 1.03-1.46.84.32 11.2 6.2 11.74 6.2.53 0 1.65-.8 2.99-1.42 1.06-.5.91-1.03.7-1.24-1.18-.69-7.88-4.53-11.08-6.37l1.12-.55 5.51 2.1-5.02-2.47v-1.51c0-1.8.16-3.22.8-2.83.51.31 6.48 3.22 9.4 4.63v7.4l7.48-3.7-11.24 6.52-.18 5.67 3.75-1.39-8.77 4.93v5.14l7.88-3.57-12.96 6.82v5.27l2.26-.75-7.87 4.38-.2 5.62c1.08-.43 3.18-1.26 3.09-1.12-5.13 2.75-8.36 4.2-8.36 4.82v4.76c1.8-.84 3.3-1.27 3.82-1.38-3.23 1.53-9.7 4.69-9.7 5.03 0 .34-.12 3.9-.19 5.64a53.57 53.57 0 0 1 3.61-1.2c-.09.11-9.73 4.54-9.73 5.08 0 .53.1 4.7.1 4.82 0 .1 6.22-2.64 6.22-2.42 0 .21-6.46 3.38-6.92 3.45Z"/><path stroke="#000" d="M77.43 245.82v-15.16c0-.5.6-.27.9-.1l16.07 10.38v16.32l-16.97-11.44ZM99.2 237.8c-.45.06-14.35-8.09-16.95-9.9-.67-.44.63-.8 1.01-1.16a678.87 678.87 0 0 0 13.91 8.58c-.05-.91-13.46-9.02-13.46-9.18 0-.16.03-4.54.28-4.64.25-.11 15.05 9.65 15.39 9.83.33.18 4.85-2.8 4.9-2.9.06-.09-16.13-9.1-16.13-9.2a15 15 0 0 1 1.59-1.15c3.7 2.3 11.59 7.18 13.42 8.22-.01-.57-13.32-8.95-13.32-9.4 0-1.42 0-3.53.43-3.85.28-.13 14.87 8.75 15.24 8.93.38.17 4.48-2.28 4.57-2.39.1-.1-15.65-8.78-15.58-9.09.06-.24 1.01-.7 1.48-.9 3.14 1.84 10.06 5.88 12.6 7.3.13-.83-12.37-7.71-12.4-8.05-.04-.34-.02-4.45.28-4.45.3 0 14.69 8.52 15.06 8.65.38.12 4.2-2.28 4.2-2.4 0-.13-15.19-8.45-15.31-8.58-.1-.1.99-.6 1.55-.85 3.48 1.97 10.8 6.12 12.21 6.9-.2-.89-12.22-7.4-12.22-7.8 0-2.37.15-4.4.5-4.4.36 0 13.93 8.11 14.48 8.15.55.03 4.14-2.2 4.25-2.35.1-.16-14.35-7.99-14.53-7.99-.18 0 .98-.94 1.44-.9.46.03 7.06 4.09 11.86 6.7-.53-1.26-11.63-6.99-11.86-7.4 0-1.24.16-4.48.43-4.43.27.06 13.52 7.49 13.96 7.67.36.14 3.03-1.43 4.32-2.22-4.78-2.44-14.36-7.36-14.48-7.6-.11-.24.9-.58 1.43-.71 3.1 1.66 9.6 5.12 10.78 5.67 0-.66-10.64-6-10.64-6.42 0-2.38.12-4.48.4-4.37.3.1 13.12 7.18 13.53 7.27.4.09 4.11-2.33 4.11-2.54 0-.22-13.88-6.81-13.72-7.03a6.06 6.06 0 0 1 1.53-.66l8.52 4.6-8.34-5.15v-3.32c0-1.12.2-1.78 1.03-1.46.84.32 11.2 6.2 11.74 6.2.53 0 1.65-.8 2.99-1.42 1.06-.5.91-1.03.7-1.24-1.18-.69-7.88-4.53-11.08-6.37l1.12-.55 5.51 2.1-5.02-2.47v-1.51c0-1.8.16-3.22.8-2.83.51.31 6.48 3.22 9.4 4.63v7.4l7.48-3.7-11.24 6.52-.18 5.67 3.75-1.39-8.77 4.93v5.14l7.88-3.57-12.96 6.82v5.27l2.26-.75-7.87 4.38-.2 5.62c1.08-.43 3.18-1.26 3.09-1.12-5.13 2.75-8.36 4.2-8.36 4.82v4.76c1.8-.84 3.3-1.27 3.82-1.38-3.23 1.53-9.7 4.69-9.7 5.03 0 .34-.12 3.9-.19 5.64a53.57 53.57 0 0 1 3.61-1.2c-.09.11-9.73 4.54-9.73 5.08 0 .53.1 4.7.1 4.82 0 .1 6.22-2.64 6.22-2.42 0 .21-6.46 3.38-6.92 3.45Z"/></g><path fill="#10777C" d="M118.8 220.23c0-5.53-4.71-.64-5.64 1.62-.02 3-.05 21.83-.05 22.9 0 1.32-.14 1.61.14 1.71.28.1 2.14 1.41 3.73 2.39 1.6.97 1.81 1.2 1.81.77v-29.39ZM132.37 198c0-5.54-4.7-.65-5.64 1.61-.02 3-.05 35.93-.05 36.99 0 1.33-.14 1.2.14 1.3.28.1 2.14 1.4 3.73 2.8 1.4 1.24 1.81 1.2 1.81.77V198ZM145.6 177.04c0-5.53-4.71-.64-5.65 1.62l-.04 49.22c0 1.33-.14 1.62.14 1.72.28.1 2.14 1.41 3.73 2.39 1.59.98 1.81 1.2 1.81.77v-55.72ZM159.41 168.13c0-5.96-5.04-3.51-6.04-1.93-.01 3 .36 57.24.36 58.3v2.25s2.27.88 3.87 1.85c1.59.98 1.81 1.2 1.81.77v-61.24ZM118.06 112.72c-1.75-.35-1.04-1.66-.32-1.53 10.64 1.73 34.09 8.83 34.09 24.57 0 5.27-3.69 10.51-5.53 12.48 0-4.08-1.9-7.6-3.85-8.34-1.95-.75-3.15 1.97-3.15 4.5v10.25l-6.26 4.11v-20.49c0-6.37-7.36-12.23-13.94-11.14v-13.78c2.17.39 10.07 2.7 13.75 3.8-.75-.87-12.47-3.97-14.8-4.43Z" opacity=".2"/><path fill="#F8F8F8" d="M136.75 167.27c-.31 0-7.2-3.7-7.95-4.25-.81-.49.52-1.3 1.85-2.06 12.91-7.52 21.65-15.27 21.65-25 0-16.34-22.56-22.73-32.63-25.2-1.43-.35 3.35-5.34 4.74-5.16 29.09 4.77 38.77 21.27 38.77 31.2 0 7.68-5.33 14.13-10.88 19.27-7.27 6.72-15.37 11.2-15.55 11.2Z"/><path fill="#E9F3E7" d="M140.72 250.97c3.2 6.84-43.37 27.84-47.79 16.18-1.84-4.87 4.78-9.47 4.78-9.47-4.18-10.26.1-23.92 11.6-28.26 11.48-4.34 16.08 1.58 17.92 4.07 7.43-4.87 18.17-4.54 20.33-1.36 3.71-6.55 16.96-13.12 21.17-10.71 4.22 2.4-6.64 22.65-28 29.55Z"/><path fill="#B7DFE2" d="M98.95 240.73c-2.66 6.16 7.86 13.41 15.62 11.86 1.39 2.79-12.27 3.32-10.36 8.36 1.9 5.05 16.86-1 27-11.2 15.16-5.14 20.16-10.35 20.16-10.35s1.13.5.5 1.33c0 0 15.85-15.55 16.42-18.26 3.15.7-5.17 21.32-33.6 29.95.93 1.24 3.93-.12 4.07.08.15.2-1.56 5.8-19.71 12.66-18.16 6.87-24.69 3.83-25.63 1.34-.94-2.5 3.17-7.43 5.03-8.27 0 0-3.78-8.68.49-17.5h.01Z"/><path fill="#FBFAEA" d="M110.76 230.34c-5.86 2.22-4.1 12.3 3 12.67 3.03.3 10.64-9.03 9.34-11.41-1.3-2.39-6.89-3.32-12.34-1.25ZM131.09 235.52c-9.58 3.62-11.13 10.57-9.24 12.05 1.88 1.48 26.06-10.85 24.33-12.45-1.73-1.6-6.92-2.69-15.1.4ZM156.02 229.59c-4.98 3.9-5.1 6.95.1 2.88 8.47-6.66 3.4-5.63-.1-2.88Z"/><path fill="#93CBD8" d="M97.86 252.74c-.01 2.77 1.45 5.93 1.45 5.93s-6.01 4.79-4.85 7.87c1.17 3.07 12.68 2.5 23.3-1.52 10.62-4.02 16.79-7.87 19.45-11.2-2.76.77-4.08-.78-4.08-.78s1.62 4.1-17.87 11.47c-19.49 7.37-18.3-4.22-10.17-7.96.47-2.08-5.22 1.24-5.77-1.89-.35-1.97-1.45-1.93-1.45-1.93Z"/><path fill="#E9F3E7" d="M144.78 116.95c7.3 3.65 11.5 9.95 9.4 16.95-2.1 7-14 7.2-18.9 4.76 0 0-13.78 3.25-20.98-7.3-11.68.6-18.18-7.41-18.18-14.42 0-7.02 6.48-10.56 12.08-10.05 0 0 3.1-11.87 16.18-11.87 10.49 0 20.68 9.13 20.38 21.92l.02.01Z"/><path fill="#B7DFE2" d="M153.76 127.88c2.7 7.6-6.22 13.93-17.6 10.12 2.01-.91 1.35-1.98 1.35-1.98s-4.5 3.65-13.38 1.38c-8.88-2.28-11-10.96-11-10.96s-1.3 1.86.29 3.88c-5.44.76-16.53-3.77-16.53-12.76 0-6.06 2.7-7.33 2.7-7.33s-2.1 10.35 10.68 9.64c-3.65-2.84-3-15.11 3.24-20.14-1.05 10.1 4.35 15.23 12.24 18.32 0 0-6.69-.2-6.69 4.37 0 4.56 5.5 9.12 12.29 9.12 5.1 0 6.94-2.38 6.94-2.38s1.05 4.01 8.55 4.01c7.5 0 6.92-5.28 6.92-5.28v-.01Z"/><path fill="#B7DFE2" d="M132.56 119.25c2.55 1 4.31 3.5 4.73 4.8 0 0 6.03-3.77 6.89-6.17.86-2.4-.57-6.73-.57-6.73s.04 8.64-11.05 8.1Z"/><path fill="#FBFAEA" d="M133.14 99.07c11.56 5.24 6.25 14.72-4.84 9.95-11.1-4.76-7.6-15.57 4.84-9.95Z"/></svg>