<svg xmlns="http://www.w3.org/2000/svg" width="188" height="368" fill="none"><g filter="url(#a)"><path fill="#4B4847" d="M74.16 185.56a17.2 17.2 0 0 0-.2-1.03c-.02-.11-.2-.27-.28-.3-.03-.2-.13-.65-.2-.78-.12-.15-4.4-3.7-4.55-3.72-.16-.01-1.83.9-1.9.97-.05.06.15.96.26 1.4-.15.13-.46.4-.5.5-.05.15.21 1.63.3 1.77.1.14 1.37 1.94 1.47 2.05.1.11 1.72 1.13 1.85 1.18.1.04.87-.3 1.23-.47.15.17.48.5.64.5.19 0 1.76-1 1.85-1.15.1-.14.05-.7.03-.92Z"/><path fill="#303545" d="M72.25 187.56a3.92 3.92 0 0 1-.23-1.38c.01-.07 1.58-1 1.68-1 .1 0 .39 1.17.38 1.25 0 .08-1.76 1.11-1.83 1.13ZM74.12 185.58a8.5 8.5 0 0 0-.2-.98c-.07-.07-.13.38-.12.47.01.09.32 1.2.33 1.19.02 0 0-.61-.01-.68ZM73.65 184.29c0-.06-.14-.78-.21-.78l-.15.66c-.02.02.1.69.15.7.04 0 .2-.52.2-.58ZM73.35 184.95c.06-.03-.09-.7-.12-.7a8.6 8.6 0 0 0-1.17.65 3 3 0 0 0 .16.83c.05.02 1.07-.75 1.13-.78ZM71.64 187.06c0-.04-.22-.75-.28-.79-.06-.03-.76.36-.8.4-.05.03-.14.84-.1.85.06.01 1.18-.42 1.18-.46Z"/><path fill="#5950AD" d="M70.1 183.85c-.04 0-2.73-2.6-2.8-2.56-.08-.05.1 1.3.15 1.37a80.4 80.4 0 0 0 4.65 3.12c.1-.04-.1-.7-.17-.78-.07-.09-.97-.76-1.05-.85-.08-.1-.74-.3-.78-.3ZM70.47 186.58c.04 0 .82-.33.82-.39.03-.1-2.26-.53-2.3-.5-.03.01 1.43.9 1.48.9ZM68.94 185.14a41.4 41.4 0 0 0-2.11-2.43c-.07 0 .31 1.53.32 1.62 0 .09 1.37 1.94 1.43 1.98.06.03.38-1.11.36-1.17Z"/><path fill="#5950AD" d="M71.9 186.11c.05 0 .2-.1.14-.16a904.2 904.2 0 0 0-4.64-3.17c-.06-.03-.1-.55-.15-.56-.06-.01-.38.37-.38.4 0 .04 2.16 2.45 2.23 2.5.06.05 2.73.98 2.8.99ZM73.14 184.1c.04-.04.21-.52.18-.66-.08-.15-4.3-3.52-4.41-3.55-.11-.04-1.69.83-1.73.9-.03.04 1.5 1.7 2.88 2.82.23.2.62.14.82.3.6.5 1.03.84 1.05.84.06.01 1.17-.6 1.2-.64Z"/><path fill="#E3AA24" stroke="#F7C631" stroke-width=".49" d="M57.38 185.8c-.52.17-.99.6-1.33 1.15a3.69 3.69 0 0 0-.56 1.92c0 .69.24 1.38.8 1.93.58.55 1.47.93 2.74 1.04a3.54 3.54 0 0 0 2.3-.42c.54-.36.82-.9.92-1.48a6.24 6.24 0 0 0-.66-3.48l-.05-.12-.13-.01-3.92-.54h-.06l-.05.02ZM67.08 195.37c-.62.13-1.55.48-2.35 1.08-.8.6-1.49 1.49-1.54 2.69-.04.79.35 1.44.95 1.93s1.44.81 2.34.96c1.81.3 4-.1 5.43-1.48.23-.23.36-.48.4-.75.04-.27 0-.53-.12-.79-.21-.5-.67-.99-1.21-1.43-1.1-.9-2.65-1.72-3.75-2.2l-.07-.03-.08.02Z"/><path fill="#E3AA24" stroke="#F7C631" stroke-width=".49" d="M63.37 179.7a6.15 6.15 0 0 0-5.24-.4 4.62 4.62 0 0 0-2.8 3.57c-.25 1.61.08 3.07 1.14 4.05.94.88 2.41 1.32 4.43 1.18l-.11.04c-.83.3-1.74.77-2.51 1.4a5 5 0 0 0-1.71 2.3c-.3.9-.19 1.91.51 2.96a6.95 6.95 0 0 0 5.24 3.22 9.1 9.1 0 0 0 5.82-1.62c1.6-1.08 2.26-2.15 2.19-3.2-.07-1.03-.84-1.93-1.79-2.66a19.32 19.32 0 0 0-5.67-2.68c-.1-.03-.22-.05-.34-.05.54-.21.95-.54 1.25-.97.45-.62.64-1.41.68-2.25.08-1.65-.46-3.54-.97-4.77l-.04-.08-.08-.05ZM65.44 171.19c-2.45-.4-4.59.06-5.77 1.1-.6.52-.94 1.2-.94 1.98s.34 1.62 1.06 2.5c1.45 1.74 4.07 2.84 6.36 3.13 1.15.13 2.24.07 3.08-.25.85-.31 1.46-.9 1.57-1.8a5.92 5.92 0 0 0-.99-4.3c-.88-1.18-2.32-2.01-4.37-2.36ZM74.31 196.93c-1.15-.03-2.36.01-3.2.21-.6.14-1 .55-1.17 1.06-.18.5-.15 1.1.05 1.68.42 1.15 1.58 2.2 3.43 2.19 1.79-.02 3.15-.63 3.9-1.56.74-.93.83-2.14.14-3.26l-.07-.1-.11-.01c-.68-.08-1.8-.18-2.97-.21Z"/><path fill="#E3AA24" stroke="#F7C631" stroke-width=".49" d="M77.5 188.37c2.97 1.33 4.31 3.55 4.23 5.62-.08 2.07-1.59 3.9-4.12 4.42-2.48.5-5.62.29-8.14-.62-2.51-.9-4.52-2.54-4.52-4.92 0-.98.5-1.88 1.3-2.64.79-.76 1.89-1.4 3.13-1.86 2.49-.9 5.6-1.1 8.11 0Z"/><path fill="#F7C631" d="M72.12 196.6c6.91 1.06 8.1-1.94 7.6-2.3-2.12-1.52-5.61-1.63-8.17-2.1-1.09.98-3.49.83-4.55.64-.08.94.83 3 5.12 3.75Z"/><path fill="#E3AA24" stroke="#F7C631" stroke-width=".49" d="M65.07 178.94c-3.24-.4-5.53.82-6.53 2.64-1 1.81-.64 4.16 1.26 5.9 1.89 1.74 5.3 2.84 8.29 3.12 1.49.13 2.9.07 3.98-.24 1.06-.3 1.89-.88 2.02-1.8.25-1.68-.68-3.92-2.3-5.8-1.64-1.88-4-3.47-6.72-3.82Z"/><path fill="#E3AA24" stroke="#F7C631" stroke-width=".49" d="M79.45 183.87c-2.56-.4-4.8.06-6.02 1.13a2.67 2.67 0 0 0-1 2.04c0 .8.36 1.67 1.12 2.57 1.51 1.8 4.26 2.93 6.65 3.22 1.2.15 2.35.08 3.22-.24.89-.33 1.53-.93 1.64-1.86.2-1.67-.11-3.2-1.03-4.42-.92-1.22-2.43-2.08-4.57-2.44Z"/><path fill="#F7C631" d="M83.16 190.87c1.13-1.25-.48-3.12-2.16-2.62-2.46.74-4.34-4.04-6.91-2.54-2.36 3.57 6.87 7.6 9.07 5.16Z"/><path fill="#E3AA24" stroke="#F7C631" stroke-width=".49" d="M67.39 175.72c-2.45-.4-4.59.05-5.77 1.09-.6.53-.94 1.2-.94 1.98s.34 1.63 1.06 2.5c1.45 1.74 4.07 2.85 6.36 3.13a6.7 6.7 0 0 0 3.08-.24c.85-.32 1.46-.9 1.57-1.8a5.92 5.92 0 0 0-.99-4.3c-.88-1.18-2.32-2.02-4.37-2.37Z"/><path fill="#E3AA24" stroke="#F7C631" stroke-width=".49" d="M68.75 168.05c-2.44-.4-4.58.06-5.76 1.1-.6.52-.95 1.2-.95 1.98s.35 1.63 1.07 2.5c1.44 1.74 4.07 2.85 6.36 3.13a6.7 6.7 0 0 0 3.08-.24c.84-.32 1.46-.91 1.56-1.81a5.92 5.92 0 0 0-.98-4.3c-.88-1.18-2.32-2.01-4.37-2.36Z"/><path fill="#CF8D1B" d="M69.26 180.13c1.49.58-.3-1.67-2.98-2.27-2.15-.48.22 1.74.61 1.96.4.22.88-.27 2.37.31ZM81.82 187.9c1.19.28-.4-1.22-2.5-1.38-1.68-.12.36 1.3.68 1.41.32.13.63-.3 1.82-.02Z"/><path fill="#F7C631" d="M70.29 173.72c-.87-.56-4.23-2.35-3.93-4.04 0-1.72-6.12 1.31-.28 4.73 4.73 2.77 5.08-.14 4.21-.7Z"/><path fill="#D9D9D9" d="M72.33 177.3c1.12-2.25-2.55-4.96-3.23-7.34 2.45 1.03 7.66 3.54 8.9 5.35 1.54 2.25-6.84 4.32-5.67 2Z"/><path fill="#C4C4C4" d="M72.2 174.07c.35.57 1.08 1.7.7 2.8.79.22 2.44.63 2.74.5.38-.16.34-1.37-.22-1.67-.55-.3.15 1.28-.36 1.24-.52-.04-.43-1.12-.71-1.72-.28-.6-.79-.6-.48.38.3 1-.44 1.16-.53 0-.08-1.15-1.48-2.09-1.13-1.53Z"/><path fill="#E3AA24" stroke="#F7C631" stroke-width=".49" d="M78.17 176.49c-3.45-.41-6.44.06-8.08 1.12-.82.53-1.34 1.24-1.34 2.09 0 .83.5 1.72 1.52 2.62 2.04 1.8 5.73 2.96 8.96 3.25 1.62.14 3.14.07 4.3-.25 1.16-.31 2.04-.9 2.19-1.88a5 5 0 0 0-1.4-4.51c-1.24-1.23-3.26-2.09-6.15-2.44Z"/><path fill="#F7C631" d="M83.39 181.28c.35-1.9-1.14-3.44-5.13-3.85-4.8-.47-8.18 1.1-5.4 3.12 2.78 2.02 10.17 2.62 10.53.73Z"/><path fill="#E3AA24" stroke="#F7C631" stroke-width=".49" d="M71.67 164.9c-.59-.11-1.1-.16-1.45-.13-.68.07-1.36.3-1.87.7a2.02 2.02 0 0 0-.78 1.78c.06.77.48 1.67 1.39 2.7.9 1.05 2.3 2.26 4.36 3.64 4.1 2.75 7.09 3.73 9.07 3.77 1 .02 1.76-.2 2.28-.56.52-.37.79-.88.79-1.42 0-1.54-.82-2.99-2.05-4.27a19.42 19.42 0 0 0-4.6-3.4 30.66 30.66 0 0 0-5.06-2.23c-.77-.26-1.48-.45-2.08-.57Z"/><path fill="#F7C631" d="M74.83 170.76c5.46 3.68 8.95 4.22 8.95 3.02 0-3.89-9.23-7.81-11.12-7.81-1.73 0-3.3 1.12 2.17 4.8ZM66.43 189.35c-6.7-1.06-7.59-6.17-6.4-7.41 1.46 1.73 5.12 5.2 8.1 5.26 3.71.08 5 3.21-1.7 2.15ZM62.69 196.99c2.74.02 2.38-1.21 1.47-1.9-.8-.56-.9.49-2.86-.54-1.97-1.04-1.97-4.97-3.46-3.14-1.49 1.83 2.1 5.56 4.85 5.58Z"/><path fill="#E3AA24" d="M79.92 171.28c1.4.77-.08-1.7-2.67-2.63-2.07-.75 0 1.76.36 2.03.36.26.9-.16 2.31.6ZM80.31 180.24c1.6.15-.74-1.53-3.49-1.36-2.2.13.7 1.61 1.14 1.72.43.1.76-.5 2.36-.36Z"/><path fill="#CF8D1B" d="M69.36 199.62c-.1-.17-.22-1.01.11-1.5l-2.03-.74-1.5.74c.5.8 3.53 1.66 3.42 1.5ZM70.63 198.64c1.45.79 6.18.58 6.7.29.05.63-.94 1.2-3.4 1.2-1.98 0-3.03-1-3.3-1.5ZM65.01 190.75c-1.2-.37-3.75-1.25-4.44-1.84-.38.12-.99.52-.43 1.2.56.67 3.01 1.96 4.17 2.52-.02-.66.46-1.53.7-1.88ZM72.67 185.12c-.1-.18-.34-.6-.54-.85a7.7 7.7 0 0 1-3.96.75 10.6 10.6 0 0 1-5.1-1.9c-.5-.16-1.1-.23.37.75 1.84 1.22 3.55 2.7 5.5 2.36 1.56-.27 2.6.3 2.94.61-.05-.73.5-1.46.8-1.72ZM71.6 175.16c-.15-1.4-2.45-3.6-2.46-4.32-.62-.3-1.67-.57-.87.73.99 1.61 2.13 1.16 2.53 2.4.32.98.66 1.2.8 1.2ZM73.33 190.46c-1.16 1.22-5.97 1.29-6.84.52-.26 0-.67.2-.23 1.01.55 1.02 4.7.52 5.19 0 .49-.51.97-.63 2.1-.06.9.46 1.57.05 1.8-.22a8.41 8.41 0 0 1-2.02-1.25ZM57.37 189.64c.15-.37 1.23-.93 1.75-1.16a8 8 0 0 1-1.63-.36c-.5.26-.29 1.13-.12 1.52ZM64.1 175.24a4.78 4.78 0 0 1-1.28-1.14c-.5-.66-.82 1.9-.4 1.57a4.2 4.2 0 0 1 1.67-.43Z"/><path fill="#4B4847" d="M132.47 215.93c.3-1.7 6.23-10.54 7.06-10.9 1.96-.78 6-.98 7.85.07 1.85 1.06 8.97 13.62 9.66 15 .68 1.36 3.33 6.79 3.44 8.11.1 1.33-6.23 7.76-7.04 8.58-.82.81-5.7 1.89-6.4 1.3-.69-.6-13.3-12.3-13.73-13.19-.43-.9-1.15-7.28-.84-8.97Z"/><path fill="#5950AD" d="M137.58 212.56c-.45-1 1.71-6.6 2.72-7.02 1.43-.68 6.04-.23 6.72-.02.69.21 9.36 14.68 9.52 15.16.16.48-3.7 4.66-4.46 5.2-.76.53-5.75-2.43-6.81-2.92-1.06-.49-7.23-9.4-7.69-10.4Z"/><path fill="#303545" d="M147.96 237.2c-.43-.56-3.32-11.67-2.86-12.57.63-.38 6.02 2.34 6.41 2.7.4.38.03 8.53-.13 9.17-.16.64-2.98 1.25-3.42.7Z"/><path fill="#5950AD" d="M152.6 236.1c-.27-.14-.22-8.72.08-9.29.4-.72 3.75-4.44 4.28-4.52.53-.07 2.5 5.55 2.72 5.96.2.4-6.79 7.98-7.07 7.84Z"/><path fill="#303545" d="M143.77 223.56c-.3-.64-6.52-10-7.1-10.08-.87-.23-3.07 2.01-3.25 2.5-.2.48.52 7.6.72 8.22.2.61 11.96 11.87 12.07 11.4.11-.47-2.15-11.41-2.44-12.04ZM136.34 212.51c.3-.16 1.58-4.01 1.26-4.1-.23-.26-3.46 5.14-3.53 5.6-.06.45 1.97-1.34 2.27-1.5Z"/><path fill="url(#b)" d="m99.23 165.29-13.06 5.8 5.48 4.98-14.18 4.34-3.6 8.7 8.3 7.42 14.6-4.96 8.87 5.58-1.62-31.86h-4.8Z"/><path fill="url(#c)" d="m82.17 196.53 14.27 43.96 7.23-2.45-6.9-46.47-14.6 4.96Z"/><path fill="url(#d)" d="m73.88 189.11 18.47 47.71 4.1 3.67-14.28-43.96-8.3-7.42Z"/><path fill="url(#e)" d="m96.77 191.57 6.89 46.47 4.38 2.75-2.4-43.64-8.87-5.58Z"/><path fill="url(#f)" d="m146.27 138.63 12.74 3.83 2.37 11.84-7.61 9.75-19.51-4.46-.75-16.05 12.76-4.9Z"/><path fill="#000" fill-opacity=".05" d="M159.06 151.8c0 4.58-4.53 8.3-10.12 8.3-5.6 0-10.12-3.72-10.12-8.3v-.08c.04-4.56 4.56-8.24 10.12-8.24 5.57 0 10.09 3.7 10.12 8.27v.04Z"/><path fill="url(#g)" d="M148.93 158.01c-5.78 0-9.19-2.94-10-7.14-.56-2.85 1.16-5.77 3.3-7.25a11.06 11.06 0 0 0 2.73-7.55h7.94c0 3.02.85 5.24 2.73 7.55 2.26 1.63 3.87 4.4 3.32 7.25-.82 4.2-4.23 7.14-10.02 7.14Z"/><path fill="url(#h)" d="m153.15 138.64.26 1.02c-.74-1.3-6.1-.34-6.1 1.3.1 1.48-1.09 13.4-3.83 11.32a7.66 7.66 0 0 1-2.11-2.88c-.5-1.35-1.46-.86-1.35.18.68 5.56 6.69 6.5 7.55 6.6.79.08.8 1.53.11 1.79-5.02-.4-8-3.21-8.76-7.1-.55-2.85 1.17-5.77 3.32-7.25a10.97 10.97 0 0 0 2.68-6.44l.06-.86 7.9-.1.07.96c.04.5.1 1 .2 1.46Z"/><path fill="url(#i)" d="M152.16 152.33c-.72.22-1.36-.37-1.4-1.12-.25-4.23-1.6-5.17-1.57-9.83 0-.47.3-.91.75-1.04.92-.25 2.44-.44 2.96.9.3.76.66 1.45 1.1 2 1.5 1.83 2.76 3.2 2.52 4.43a6.3 6.3 0 0 1-4.36 4.66Z"/><path fill="url(#j)" d="M157.72 150.75c-.62 3.16-4.82 5.6-9.25 5.38a.46.46 0 0 1-.42-.55l.19-1a.5.5 0 0 1 .47-.39c5.44-.12 7.45-2.67 8.2-4.49.19-.45.9-.5.92-.02 0 .34-.03.69-.1 1.07Z"/><path fill="#009FD9" d="M155.82 133.89c0 2.86-2.82 5.18-6.31 5.18-3.5 0-6.32-2.32-6.32-5.18v-2.08c.03-2.85 2.84-5.14 6.32-5.14 3.47 0 6.3 2.3 6.31 5.15v2.07Z"/><path fill="url(#k)" d="M155.82 133.89c0 2.86-2.82 5.18-6.31 5.18-3.5 0-6.32-2.32-6.32-5.18v-2.08c.03-2.85 2.84-5.14 6.32-5.14 3.47 0 6.3 2.3 6.31 5.15v2.07Z"/><path fill="url(#l)" d="M144.31 130.77c-.2.47-.3.97-.3 1.48v.03c.01 2.48 2.47 4.49 5.5 4.49 3.01 0 5.46-2 5.49-4.48v.34-.38c0-.51-.1-1.01-.3-1.48-.75 1.76-2.8 3.03-5.2 3.03-2.4 0-4.44-1.27-5.19-3.03Z"/><path fill="#009FD9" d="M157.83 128.57c0 3.78-3.73 6.84-8.33 6.84s-8.33-3.06-8.33-6.84v-2.74c.04-3.75 3.76-6.78 8.33-6.78 4.59 0 8.3 3.04 8.33 6.8v2.72Z"/><path fill="url(#m)" d="M157.83 128.57c0 3.78-3.73 6.84-8.33 6.84s-8.33-3.06-8.33-6.84v-2.74c.04-3.75 3.76-6.78 8.33-6.78 4.59 0 8.3 3.04 8.33 6.8v2.72Z"/><path fill="#009FD9" fill-rule="evenodd" d="M150.92 132.14c.66-.09 1.3-.25 1.9-.46.25.47.8.72 1.34.57.6-.18.96-.82.78-1.44a1.1 1.1 0 0 0-.07-.18c.44-.3.84-.65 1.2-1.02.13.18.3.29.48.29.4 0 .74-.52.74-1.16v-.01c0-.24-.05-.45-.13-.64.44-.82.67-1.73.67-2.69v-.04c-.02-3.76-3.74-6.8-8.33-6.8-4.57 0-8.29 3.03-8.33 6.78v-.5.56c0 .96.24 1.87.67 2.7-.08.18-.12.4-.12.63 0 .65.33 1.17.73 1.17.19 0 .36-.11.48-.29.36.37.76.72 1.2 1.02l-.06.17v.01c-.18.62.17 1.26.78 1.44.53.15 1.08-.1 1.34-.57.6.21 1.23.37 1.9.46v.04c0 .64.63 1.16 1.41 1.16.79 0 1.42-.52 1.42-1.16v-.04Zm-2.83 0v-.1.11Zm0 0v.02-.02Z" clip-rule="evenodd"/><path fill="url(#n)" fill-rule="evenodd" d="M150.92 132.14c.66-.09 1.3-.25 1.9-.46.25.47.8.72 1.34.57.6-.18.96-.82.78-1.44a1.1 1.1 0 0 0-.07-.18c.44-.3.84-.65 1.2-1.02.13.18.3.29.48.29.4 0 .74-.52.74-1.16v-.01c0-.24-.05-.45-.13-.64.44-.82.67-1.73.67-2.69v-.04c-.02-3.76-3.74-6.8-8.33-6.8-4.57 0-8.29 3.03-8.33 6.78v-.5.56c0 .96.24 1.87.67 2.7-.08.18-.12.4-.12.63 0 .65.33 1.17.73 1.17.19 0 .36-.11.48-.29.36.37.76.72 1.2 1.02l-.06.17v.01c-.18.62.17 1.26.78 1.44.53.15 1.08-.1 1.34-.57.6.21 1.23.37 1.9.46v.04c0 .64.63 1.16 1.41 1.16.79 0 1.42-.52 1.42-1.16v-.04Zm-2.83 0v-.1.11Zm0 0v.02-.02Z" clip-rule="evenodd"/><path fill="url(#o)" fill-rule="evenodd" d="M150.92 132.14c.66-.09 1.3-.25 1.9-.46.25.47.8.72 1.34.57.6-.18.96-.82.78-1.44a1.1 1.1 0 0 0-.07-.18c.44-.3.84-.65 1.2-1.02.13.18.3.29.48.29.4 0 .74-.52.74-1.16v-.01c0-.24-.05-.45-.13-.64.44-.82.67-1.73.67-2.69v-.04c-.02-3.76-3.74-6.8-8.33-6.8-4.57 0-8.29 3.03-8.33 6.78v-.5.56c0 .96.24 1.87.67 2.7-.08.18-.12.4-.12.63 0 .65.33 1.17.73 1.17.19 0 .36-.11.48-.29.36.37.76.72 1.2 1.02l-.06.17v.01c-.18.62.17 1.26.78 1.44.53.15 1.08-.1 1.34-.57.6.21 1.23.37 1.9.46v.04c0 .64.63 1.16 1.41 1.16.79 0 1.42-.52 1.42-1.16v-.04Zm-2.83 0v-.1.11Zm0 0v.02-.02Z" clip-rule="evenodd"/><path fill="#009FD9" d="M147.05 119.46c-2.12.72-4 2.55-4 4.9 0 2.94 2.89 5.3 6.45 5.3 3.57 0 6.46-2.36 6.46-5.3v-.02c-.02-2.2-1.67-4.09-4-4.88a2.55 2.55 0 0 0-4.91 0Z"/><path fill="url(#p)" d="M147.05 119.46c-2.12.72-4 2.55-4 4.9 0 2.94 2.89 5.3 6.45 5.3 3.57 0 6.46-2.36 6.46-5.3v-.02c-.02-2.2-1.67-4.09-4-4.88a2.55 2.55 0 0 0-4.91 0Z"/><path fill="url(#q)" d="M147.34 119.32a1.93 1.93 0 0 0 3.83.37s-.23-1.19-1.3-1.67c-1.08-.48-2.08.07-2.08.07-.28.33-.45.76-.45 1.23Z"/><path fill="#008CD1" d="M146.17 124.19c1.62-.25 2.28-1.26 2.4-1.73-1.03-.4-1.64-1.6-1.6-2.56-3.33 1.28-4.74 5.38-1.92 7.65 2.83 2.27 3.12.42 2.25 0-2.78-1.35-3.15-3.06-1.13-3.36Z"/><path fill="url(#r)" d="M146.17 124.19c1.62-.25 2.28-1.26 2.4-1.73-1.03-.4-1.64-1.6-1.6-2.56-3.33 1.28-4.74 5.38-1.92 7.65 2.83 2.27 3.12.42 2.25 0-2.78-1.35-3.15-3.06-1.13-3.36Z"/><path fill="url(#s)" d="m153.78 164.05-14.09 86.6-10.43.96 5-92.02 19.52 4.46Z"/><path fill="url(#t)" d="m161.38 154.3-18.96 90.13-2.72 6.22 14.08-86.6 7.6-9.75Z"/><path fill="url(#u)" d="M108.1 106.23h15.23l17.24 7.23 3.3 16.48-16.32 1.76-10.08 12.62h-12.32l-11.3-24.22 14.25-13.86v-.01Z"/><path fill="#000" fill-opacity=".05" d="M132.2 120.7c0 5.94-5.73 10.76-12.78 10.76-7.06 0-12.79-4.82-12.79-10.76v-.1c.06-5.9 5.76-10.66 12.79-10.66 7.03 0 12.74 4.78 12.78 10.7v.06Z"/><path fill="url(#v)" d="M119.41 128.75c-7.3 0-11.6-3.8-12.64-9.25-.7-3.68 1.47-7.46 4.18-9.4a14.53 14.53 0 0 0 3.45-9.76h10.03c0 3.9 1.07 6.79 3.44 9.77 2.85 2.1 4.89 5.7 4.19 9.4-1.04 5.43-5.34 9.24-12.65 9.24Z"/><path fill="url(#w)" d="m124.73 103.67.33 1.32c-.94-1.68-7.71-.44-7.71 1.67.14 1.93-1.36 17.36-4.83 14.66a9.92 9.92 0 0 1-2.67-3.71c-.63-1.76-1.84-1.13-1.7.23.86 7.2 8.45 8.42 9.54 8.53 1 .1 1.02 2 .14 2.32-6.35-.51-10.1-4.15-11.06-9.19-.7-3.68 1.47-7.46 4.18-9.4a14.4 14.4 0 0 0 3.4-8.32l.09-1.4 10.04.26v1.14c.05.66.13 1.28.25 1.89Z"/><path fill="url(#x)" d="M123.14 121.5c-.72.2-1.37-.4-1.4-1.15-.25-5.9-2.1-6.98-2-13.37 0-.47.29-.9.74-1.05 1.13-.35 3.25-.74 3.94 1.11a9.6 9.6 0 0 0 1.4 2.58c1.9 2.38 3.47 4.15 3.17 5.74a8.1 8.1 0 0 1-5.85 6.14Z"/><path fill="#C9ACFF" d="M130.51 119.34c-.78 4.13-6.18 7.32-11.82 6.97a.46.46 0 0 1-.42-.55l.29-1.56a.49.49 0 0 1 .47-.4c7.43-.13 9.84-3.91 10.63-6.28.16-.48.9-.55.95-.06.07.59.03 1.2-.1 1.88Z"/><path fill="url(#y)" d="M127.13 96.58c0 3.52-3.38 6.36-7.56 6.36-4.17 0-7.55-2.84-7.55-6.36v-.69c.03-3.48 3.4-6.3 7.55-6.3 4.16 0 7.54 2.83 7.56 6.32v.67Z"/><path fill="url(#z)" d="M113.36 92.73a4.74 4.74 0 0 0-.36 1.82v.02c.02 3.05 2.96 5.5 6.58 5.5 3.6 0 6.54-2.44 6.57-5.48v.42-.46c0-.64-.13-1.25-.37-1.82-.89 2.16-3.33 2.28-6.2 2.28-2.88 0-5.32-.12-6.22-2.28Z"/><path fill="url(#A)" d="M119.57 80.23c-4.97 0-9.75 6.53-9.75 6.53l1.46 5.68c.87 3.44 3.94 6.02 8.3 6.02 4.34 0 7.42-2.58 8.3-6.02l1.44-5.68s-4.76-6.53-9.75-6.53Z"/><path fill="#009FD9" d="M129.54 85.1c0 4.64-4.46 8.39-9.96 8.39-5.5 0-9.97-3.75-9.97-8.38v-.08c.05-4.6 4.5-8.31 9.97-8.31 5.48 0 9.93 3.73 9.96 8.34v.05Z"/><path fill="url(#B)" d="M129.54 85.1c0 4.64-4.46 8.39-9.96 8.39-5.5 0-9.97-3.75-9.97-8.38v-.08c.05-4.6 4.5-8.31 9.97-8.31 5.48 0 9.93 3.73 9.96 8.34v.05Z"/><path fill="url(#C)" d="M129.54 85.1c0 4.64-4.46 8.39-9.96 8.39-5.5 0-9.97-3.75-9.97-8.38v-.08c.05-4.6 4.5-8.31 9.97-8.31 5.48 0 9.93 3.73 9.96 8.34v.05Z"/><path fill="url(#D)" d="M127.29 83.84c0 3.59-3.46 6.5-7.72 6.5s-7.72-2.91-7.72-6.5v-.06c.04-3.56 3.48-6.44 7.72-6.44 4.25 0 7.7 2.89 7.72 6.46v.04Z"/><path fill="#008CD1" d="M114.14 87.85c3.38 2.78 3.73.51 2.69 0-4.57-2.28-2.85-3.53-1.15-2.84 1.57.64 3.38.24 3.62-.53-3.62-.67-3.97-4.5-1.54-5.89.55-.31.46-.73 0-.65-5.77.93-7 7.12-3.62 9.9Z"/><path fill="url(#E)" d="M114.14 87.85c3.38 2.78 3.73.51 2.69 0-4.57-2.28-2.85-3.53-1.15-2.84 1.57.64 3.38.24 3.62-.53-3.62-.67-3.97-4.5-1.54-5.89.55-.31.46-.73 0-.65-5.77.93-7 7.12-3.62 9.9Z"/><path fill="#009FD9" d="M118.26 71.66a.63.63 0 0 1 .61-.66h1.4c.36 0 .64.3.62.66l-.1 2.27h1.06c.3 0 .53.26.49.57l-.13 1.03a.5.5 0 0 1-.49.45h-1l-.12 2.68c1.19.35 2.04 1.3 2.05 2.42v.02c0 .3-.06.58-.17.85-.42-1.01-1.56-1.74-2.9-1.74-1.35 0-2.5.73-2.91 1.74a2.22 2.22 0 0 1-.17-.85v-.22.2c0-1.12.86-2.07 2.05-2.42l-.11-2.68h-1.01a.5.5 0 0 1-.5-.45l-.12-1.03a.5.5 0 0 1 .5-.57h1.04l-.1-2.27Z"/><path fill="url(#F)" d="M118.26 71.66a.63.63 0 0 1 .61-.66h1.4c.36 0 .64.3.62.66l-.1 2.27h1.06c.3 0 .53.26.49.57l-.13 1.03a.5.5 0 0 1-.49.45h-1l-.12 2.68c1.19.35 2.04 1.3 2.05 2.42v.02c0 .3-.06.58-.17.85-.42-1.01-1.56-1.74-2.9-1.74-1.35 0-2.5.73-2.91 1.74a2.22 2.22 0 0 1-.17-.85v-.22.2c0-1.12.86-2.07 2.05-2.42l-.11-2.68h-1.01a.5.5 0 0 1-.5-.45l-.12-1.03a.5.5 0 0 1 .5-.57h1.04l-.1-2.27Z"/><path fill="url(#G)" d="M118.26 71.66a.63.63 0 0 1 .61-.66h1.4c.36 0 .64.3.62.66l-.1 2.27h1.06c.3 0 .53.26.49.57l-.13 1.03a.5.5 0 0 1-.49.45h-1l-.12 2.68c1.19.35 2.04 1.3 2.05 2.42v.02c0 .3-.06.58-.17.85-.42-1.01-1.56-1.74-2.9-1.74-1.35 0-2.5.73-2.91 1.74a2.22 2.22 0 0 1-.17-.85v-.22.2c0-1.12.86-2.07 2.05-2.42l-.11-2.68h-1.01a.5.5 0 0 1-.5-.45l-.12-1.03a.5.5 0 0 1 .5-.57h1.04l-.1-2.27Z"/><path fill="#D9D9D9" d="M113.57 237.75h9.13l5.98 3.77.8 10.1-8.67 4.41-10.26-2.1-2.4-9.5 5.42-6.69Z"/><path fill="url(#H)" d="m93.85 120.1 14.3 124.33 2.4 9.5-5.4-109.61-11.3-24.22Z"/><path fill="url(#I)" d="M105.14 144.32h12.33l3.34 111.71-10.26-2.1-5.4-109.61Z"/><path fill="url(#J)" d="m117.47 144.32 3.34 116.67 8.67-9.37 14.39-121.69-16.32 1.77-10.08 12.62Z"/><path fill="url(#K)" d="m127.55 131.7-1.68 122.24-5.06 2.1-3.34-111.72 10.08-12.62Z"/><path fill="#009FD9" d="m86.17 171.1.74 6.43 4.74-1.46-5.48-4.98Z"/><path fill="url(#L)" d="m86.17 171.1.74 6.43 4.74-1.46-5.48-4.98Z"/><path fill="url(#M)" d="m107.37 232.8-6.62 5.46-10.57-2.29 3.06-6.27 7.79-2.97 6.34 6.06Z"/><path fill="url(#N)" d="M92.58 248.99 86 250.97l4.17-15 2.4 13.02Z"/><path fill="url(#O)" d="m94.72 257.04-8.71-6.07 6.57-1.98 2.14 8.05Z"/><path fill="#0069AB" d="m107.38 254.72-12.65 2.32-2.15-8.05 12.35-4.07 2.45 9.8Z"/><path fill="url(#P)" d="m109.3 248.99-1.92 5.73-2.45-9.8 2.45-12.13 1.93 16.2Z"/><path fill="#009FD9" d="m100.75 238.26-8.18 10.73-2.39-13.02 10.57 2.29Z"/><path fill="url(#Q)" d="m100.75 238.26-8.18 10.73-2.39-13.02 10.57 2.29Z"/><path fill="url(#R)" d="m107.38 232.8-2.45 12.12-12.35 4.07 8.18-10.73 6.62-5.47Z"/><path fill="url(#S)" d="m115.25 187.97 7.38-2.83 7.68 2.84 1.41 7-8.23 3.82-7.13-2.94-1.11-7.89Z"/><path fill="url(#T)" d="m116.36 195.86 2.65 65.5 2.21.67 2.27-63.23-7.13-2.94Z"/><path fill="url(#U)" d="m123.49 198.8-2.27 63.23 2.55-.88 7.95-66.16-8.23 3.8Z"/><path fill="#9881F2" d="m115.25 187.97 3.42 71.55.34 1.83-2.65-65.49-1.11-7.89Z"/><path fill="url(#V)" d="m144.22 233.16-6.44 13.54-9.06 1.27-.06-15.52 7.84-7.33 7.72 8.04Z"/><path fill="url(#W)" d="m140.25 254.67-11.52-6.7 9.05-1.27 2.47 7.97Z"/><path fill="url(#X)" d="m128.73 247.97-6.35 16.83 6.28-32.35.07 15.52Z"/><path fill="url(#Y)" d="m130.96 260.83-4.44 11.13-4.14-7.16 6.35-16.83 2.23 12.86Z"/><path fill="url(#Z)" d="m139.3 274.5-12.78-2.54 4.44-11.13 9.17 1.82-.83 11.85Z"/><path fill="url(#aa)" d="m147.8 265.58-8.5 8.92.83-11.85.11-7.98 6.8-5.73.76 16.64Z"/><path fill="url(#ab)" d="m140.13 262.65-9.17-1.82-2.23-12.86 11.52 6.7-.12 7.98Z"/><path fill="url(#ac)" d="m147.05 248.94-6.8 5.73-2.47-7.97 6.44-13.54 2.83 15.78Z"/><path fill="url(#ad)" d="m119.8 256.48-10.03.7-8.29-1.3 2.35-5.11 7.7-1.78 6.24 2.4 2.02 5.09Z"/><path fill="url(#ae)" d="m119.8 256.48-7.36 6.19-7.11 1.8 4.44-7.3 10.02-.7Z"/><path fill="#009FD9" d="m109.77 257.17-4.44 7.3-3.85-8.6 8.28 1.3Z"/><path fill="url(#af)" d="m109.77 257.17-4.44 7.3-3.85-8.6 8.28 1.3Z"/><path fill="url(#ag)" d="m124.24 260.67-4.45-4.2-2.02-5.08 6.47 9.28Z"/><path fill="#009FD9" d="m124.24 260.67-2.02 6.19-2.43-10.38 4.45 4.19Z"/><path fill="url(#ah)" d="m124.24 260.67-2.02 6.19-2.43-10.38 4.45 4.19Z"/><path fill="url(#ai)" d="m122.22 266.86-7.97 2.19-1.81-6.38 7.35-6.2 2.43 10.39Z"/><path fill="url(#aj)" d="m114.25 269.05-9.6-1.1.68-3.49 7.1-1.8 1.82 6.39Z"/><path fill="url(#ak)" d="m105.33 264.46-.68 3.5-7.79-4.8 4.62-7.28 3.84 8.58Z"/><path fill="#0069AB" d="m103.83 250.77-2.35 5.1-4.62 7.3.48-5.85 6.5-6.55Z"/><path fill="#000" fill-opacity=".05" d="M97.57 182.89c0 4.59-4.54 8.3-10.13 8.3-5.58 0-10.12-3.71-10.12-8.3v-.07c.05-4.56 4.56-8.24 10.12-8.24 5.58 0 10.1 3.7 10.13 8.26v.05Z"/><path fill="#009FD9" d="M87.44 189.11c-5.78 0-9.19-2.94-10.01-7.14-.56-2.85 1.17-5.77 3.32-7.26a11.06 11.06 0 0 0 2.72-7.54h7.94c0 3.02.85 5.24 2.73 7.54 2.26 1.63 3.87 4.41 3.31 7.26-.82 4.2-4.22 7.14-10 7.14Z"/><path fill="url(#al)" d="M87.44 189.11c-5.78 0-9.19-2.94-10.01-7.14-.56-2.85 1.17-5.77 3.32-7.26a11.06 11.06 0 0 0 2.72-7.54h7.94c0 3.02.85 5.24 2.73 7.54 2.26 1.63 3.87 4.41 3.31 7.26-.82 4.2-4.22 7.14-10 7.14Z"/><path fill="#008CD1" d="m91.66 169.74.25 1.02c-.74-1.3-6.1-.34-6.1 1.29.11 1.49-1.08 13.4-3.83 11.32a7.67 7.67 0 0 1-2.1-2.87c-.5-1.35-1.46-.86-1.36.18.69 5.56 6.7 6.5 7.56 6.6.79.07.8 1.53.11 1.78-5.03-.4-8-3.2-8.76-7.1-.56-2.84 1.17-5.76 3.32-7.25a10.98 10.98 0 0 0 2.68-6.43h8.02c.04.5.11 1 .2 1.46Z"/><path fill="url(#am)" d="m91.66 169.74.25 1.02c-.74-1.3-6.1-.34-6.1 1.29.11 1.49-1.08 13.4-3.83 11.32a7.67 7.67 0 0 1-2.1-2.87c-.5-1.35-1.46-.86-1.36.18.69 5.56 6.7 6.5 7.56 6.6.79.07.8 1.53.11 1.78-5.03-.4-8-3.2-8.76-7.1-.56-2.84 1.17-5.76 3.32-7.25a10.98 10.98 0 0 0 2.68-6.43h8.02c.04.5.11 1 .2 1.46Z"/><path fill="url(#an)" d="M90.67 183.43c-.71.22-1.36-.37-1.4-1.12-.25-4.24-1.6-5.17-1.57-9.83 0-.48.3-.91.76-1.04.92-.26 2.43-.44 2.95.9.3.76.66 1.45 1.1 2 1.5 1.83 2.76 3.2 2.52 4.43a6.3 6.3 0 0 1-4.36 4.66Z"/><path fill="url(#ao)" d="M96.23 181.84c-.61 3.16-4.82 5.62-9.25 5.39a.46.46 0 0 1-.42-.55l.19-1a.5.5 0 0 1 .47-.4c5.44-.11 7.46-2.66 8.2-4.48.19-.46.91-.51.92-.02 0 .34-.03.69-.1 1.06Z"/><path fill="#009FD9" d="M96.34 164c0 3.78-3.72 6.85-8.33 6.85-4.6 0-8.33-3.06-8.33-6.84v-2.74c.04-3.75 3.76-6.78 8.33-6.78 4.59 0 8.31 3.04 8.33 6.8v2.72Z"/><path fill="url(#ap)" d="M96.34 164c0 3.78-3.72 6.85-8.33 6.85-4.6 0-8.33-3.06-8.33-6.84v-2.74c.04-3.75 3.76-6.78 8.33-6.78 4.59 0 8.31 3.04 8.33 6.8v2.72Z"/><path fill="#009FD9" d="M96.34 159.9c0 3.79-3.72 6.85-8.33 6.85-4.6 0-8.33-3.06-8.33-6.84v-.06c.04-3.75 3.76-6.78 8.33-6.78 4.59 0 8.31 3.04 8.33 6.8v.04Z"/><path fill="url(#aq)" d="M96.34 159.9c0 3.79-3.72 6.85-8.33 6.85-4.6 0-8.33-3.06-8.33-6.84v-.06c.04-3.75 3.76-6.78 8.33-6.78 4.59 0 8.31 3.04 8.33 6.8v.04Z"/><path fill="url(#ar)" d="M96.34 159.9c0 3.79-3.72 6.85-8.33 6.85-4.6 0-8.33-3.06-8.33-6.84v-.06c.04-3.75 3.76-6.78 8.33-6.78 4.59 0 8.31 3.04 8.33 6.8v.04Z"/><path fill="#009FD9" d="M94.17 161.51a4.5 4.5 0 0 0 .36-1.76v-.03c-.01-2.94-2.93-5.32-6.52-5.32-3.58 0-6.49 2.37-6.52 5.3v-.4.45c0 .62.13 1.21.36 1.76.89-2.09 3.31-3.59 6.16-3.59s5.28 1.5 6.16 3.6Z"/><path fill="url(#as)" d="M94.17 161.51a4.5 4.5 0 0 0 .36-1.76v-.03c-.01-2.94-2.93-5.32-6.52-5.32-3.58 0-6.49 2.37-6.52 5.3v-.4.45c0 .62.13 1.21.36 1.76.89-2.09 3.31-3.59 6.16-3.59s5.28 1.5 6.16 3.6Z"/></g><path fill="#000" d="M113.89 298.44c9.01 2.9 13.44-3.82 19.25-9.47-20.57-24.64-63.06-76.04-68.44-84.47-6.72-10.54-26.57-7.03-38.03-10.08s-12.83 6.11-11 7.64c1.84 1.53 11.92 12.52 13.14 14.2 1.22 1.68 13.9 24.14 16.95 25.67 2.45 1.22 16.6 10.69 23.37 15.27-.05 3.3.34 10.85 2.3 14.51 2.44 4.58 22.14 22.46 26.73 26.73 4.58 4.28 11.3 4.28 15.73 0Z" opacity=".15"/><path fill="url(#at)" d="M44.95 185.66c3.67-1.54-7.5-19.16-8.91-26.97-2.72-14.93-3.2 5.77 8.9 26.97Z"/><path fill="url(#au)" d="M45.7 187.48c3.42-1.97-9.63-14.95-11.95-21.33-4.44-12.2-2.45 5.47 11.95 21.33Z"/><path fill="url(#av)" d="M55.52 172.16c-4.17-2.53-6.54 6.62-14.78 17.9 6.67-4.85 18.96-15.23 14.78-17.9Z"/><path fill="url(#aw)" d="M48.69 166.29c-5.21-1.8-3.71 8.88-7.16 23.31 4.59-6.96 12.44-21.36 7.16-23.31Z"/><path fill="url(#ax)" d="M42.67 169.96c-4.65-.63-1.03 7.8-.61 20.06 2.18-6.38 5.35-19.33.6-20.06Z"/><ellipse cx=".58" cy="1.03" fill="#5E53D9" rx=".58" ry="1.03" transform="matrix(.798 .6027 -.6442 .7649 52.95 172.91)"/><ellipse cx=".45" cy=".77" fill="#5E53D9" rx=".45" ry=".77" transform="matrix(.9691 .2467 -.295 .9555 46.5 167.24)"/><ellipse cx="1.08" cy="1.83" fill="#5E53D9" rx="1.08" ry="1.83" transform="matrix(.9691 .2467 -.295 .9555 47.8 168.7)"/><ellipse cx=".38" cy=".65" fill="#5E53D9" rx=".38" ry=".65" transform="matrix(.9691 .2467 -.295 .9555 45.9 171.34)"/><ellipse cx=".49" cy=".81" fill="#5E53D9" rx=".49" ry=".81" transform="matrix(.998 -.064 .0396 .9992 41.4 171.1)"/><ellipse cx=".34" cy=".56" fill="#5E53D9" rx=".34" ry=".56" transform="matrix(.998 -.064 .0396 .9992 43.32 173.41)"/><ellipse cx=".86" cy="1.53" fill="#5E53D9" rx=".86" ry="1.53" transform="matrix(.798 .6027 -.6442 .7649 53.21 175.06)"/><ellipse cx=".42" cy=".75" fill="#5E53D9" rx=".42" ry=".75" transform="matrix(.798 .6027 -.6442 .7649 50.2 177.01)"/><path fill="url(#ay)" d="M26 181.26c3.13-3.75 8.34 4.14 19.8 12.14-7.88-2.43-22.88-8.25-19.8-12.14Z"/><path fill="url(#az)" d="M30.56 173.5c4.35-3.4 6.4 7.19 14.34 19.72-6.6-5.1-18.7-16.17-14.34-19.73Z"/><path fill="url(#aA)" d="M37.45 175c4.19-2.1 3.5 7.05 7.08 18.79-4.13-5.33-11.33-16.55-7.08-18.78Z"/><ellipse cx=".58" cy="1.03" fill="#5E53D9" rx=".58" ry="1.03" transform="matrix(-.5591 .829 .8576 .5143 28.68 181.14)"/><ellipse cx=".45" cy=".77" fill="#5E53D9" rx=".45" ry=".77" transform="matrix(-.8365 .548 .5891 .808 32.94 173.68)"/><ellipse cx="1.08" cy="1.83" fill="#5E53D9" rx="1.08" ry="1.83" transform="matrix(-.8365 .548 .5891 .808 32.18 175.48)"/><ellipse cx=".38" cy=".65" fill="#5E53D9" rx=".38" ry=".65" transform="matrix(-.8365 .548 .5891 .808 34.84 177.36)"/><ellipse cx=".49" cy=".81" fill="#5E53D9" rx=".49" ry=".81" transform="matrix(-.9647 .2634 .2869 .958 39.02 175.68)"/><ellipse cx=".34" cy=".56" fill="#5E53D9" rx=".34" ry=".56" transform="matrix(-.9647 .2634 .2869 .958 37.95 178.49)"/><ellipse cx=".86" cy="1.53" fill="#5E53D9" rx=".86" ry="1.53" transform="matrix(-.5591 .829 .8576 .5143 29.13 183.25)"/><ellipse cx=".42" cy=".75" fill="#5E53D9" rx=".42" ry=".75" transform="matrix(-.5591 .829 .8576 .5143 32.62 184.12)"/><path fill="url(#aB)" d="M44.18 186.62c-3.93.4-.9-17.76-2.74-24.29-3.5-12.5 5.19 3.01 2.74 24.3Z"/><circle cx="32.09" cy="162.32" r="1.65" fill="#ED2456"/><circle cx="34.56" cy="152.89" r="2.27" fill="#ED2456"/><circle cx="41.63" cy="158.26" r="2.02" fill="#ED2456"/><path fill="#009FD9" d="m25.52 191.64 7.7 5.22 23.09-2.3-13.09-12.28-17.7 9.36Z"/><path fill="url(#aC)" d="m25.52 191.64 7.7 5.22 23.09-2.3-13.09-12.28-17.7 9.36Z"/><path fill="#0069AB" d="m31.67 203.77 27.71-3.07-3.07-6.14-23.1 2.3-1.54 6.91Z"/><path fill="#4DC3EA" d="M25.52 191.64v8.3l6.15 3.83 1.54-6.9-7.7-5.23Z"/><path fill="#4B4847" d="M102.33 227.75a155 155 0 0 0-1.8-9.32c-.22-1-1.82-2.44-2.51-2.66-.32-1.87-1.15-5.9-1.9-7.01-.96-1.4-39.54-33.48-40.95-33.58-1.4-.1-16.53 8.12-17.13 8.77-.48.52 1.33 8.64 2.3 12.63-1.33 1.1-4.1 3.56-4.46 4.56-.45 1.25 1.9 14.63 2.76 15.88.85 1.26 12.32 17.5 13.23 18.5.9 1 15.43 10.17 16.63 10.62.97.36 7.82-2.66 11.13-4.21 1.32 1.5 4.3 4.5 5.71 4.5 1.75 0 15.93-9.11 16.74-10.37.8-1.25.45-6.4.25-8.31Z"/><path fill="#5950AD" d="M69.02 236.99c.43.03 7.47-3 7.44-3.52.26-.91-20.43-4.8-20.7-4.6-.29.18 12.82 8.09 13.26 8.12Z"/><path fill="#303545" d="M85.14 245.74c-.6.1-2.9-11.43-2.15-12.43.13-.61 14.28-8.97 15.18-8.97.9 0 3.5 10.52 3.46 11.27-.05.76-15.89 10.03-16.49 10.13ZM101.94 227.97c-.1-.56-1.45-8.59-1.85-8.87-.53-.61-1.15 3.43-1.02 4.24.12.8 2.87 10.74 3.02 10.71.16-.03-.06-5.53-.15-6.08ZM97.7 216.3c0-.53-1.26-7.08-1.9-7.08-.4 1.94-1.21 5.85-1.33 6-.16.17.9 6.2 1.32 6.26.44.06 1.92-4.66 1.92-5.19ZM95 222.25c.52-.24-.75-6.33-1.09-6.39-.22-.43-10.32 5.62-10.56 5.93-.25.31 1.02 7.35 1.48 7.5.46.16 9.64-6.79 10.16-7.03ZM79.58 241.28c0-.37-1.98-6.76-2.47-7.1-.56-.34-6.92 3.24-7.29 3.55-.37.3-1.27 7.63-.8 7.72.46.1 10.56-3.8 10.56-4.17ZM65.71 212.35c-.38-.06-24.64-23.4-25.22-23.09-.72-.43.9 11.67 1.29 12.37.38.7 41.04 28.4 42 28.08.95-.32-.9-6.25-1.53-7.02-.64-.76-8.81-6.83-9.51-7.66-.7-.83-6.64-2.61-7.03-2.68ZM55.23 223.94c-.15-.55-18.49-22.04-19.01-21.88-.6 0 2.8 13.82 2.89 14.6.07.8 12.39 17.52 12.9 17.83.51.3 3.38-10 3.23-10.55Z"/><path fill="#5950AD" d="M81.87 232.72c.55.07 1.8-.96 1.37-1.47a8487.6 8487.6 0 0 0-41.85-28.6c-.55-.27-.87-4.95-1.42-5.03-.55-.07-3.35 3.33-3.39 3.65-.04.31 19.52 22.04 20.07 22.51.55.48 24.67 8.86 25.22 8.94ZM93.1 214.65c.38-.38 1.91-4.72 1.6-6-.65-1.4-38.82-31.72-39.77-32.04-.96-.32-15.2 7.47-15.58 8.1-.23.39 13.57 15.33 25.95 25.5 2.1 1.73 5.6 1.2 7.45 2.71 5.37 4.38 9.26 7.5 9.43 7.54.58.13 10.53-5.43 10.92-5.81Z"/><ellipse cx="123.96" cy="270.45" fill="url(#aD)" rx="58.64" ry="24.67"/><g filter="url(#aE)"><path fill="url(#aF)" d="m94.32 218.72 14.57 15.73 7.47.09-.54-16.86-13.34-10.6-11.14-3.9 2.98 15.54Z"/><path fill="url(#aG)" d="m106.9 237.26 1.13 4.7 14.66-2.92-6.33-4.5-7.47-.1-1.98 2.82Z"/><path fill="url(#aH)" d="m91.77 221.95 9.85 17.22 5.29-1.9 1.98-2.82-14.57-15.73-2.55 3.23Z"/><path fill="url(#aI)" d="m101.62 239.17 6.41 2.78-1.12-4.69-5.29 1.91Z"/><path fill="url(#aJ)" d="m91.77 221.95 2.55-3.23-2.98-15.54-2.33-1.81 2.76 20.58Z"/><path fill="#DCF4FF" d="m89.01 201.36 2.33 1.82 11.14 3.9-7.41-5.1-6.06-.62Z"/><path fill="url(#aK)" d="m116.36 234.54 3.7-2.4-4.24-14.46.54 16.86Z"/><path fill="url(#aL)" d="m116.36 234.54 3.7-2.4 2.64 6.9-6.34-4.5Z"/><path fill="url(#aM)" d="m89.02 201.4 6.05.62 7.42 5.1 13.33 10.6 4.25 14.47 2.63 6.9-14.67 2.9-6.4-2.78L91.77 222l-2.75-20.58Z" style="mix-blend-mode:color-dodge"/><path fill="#fff" d="M94.54 218.71a240.64 240.64 0 0 1 14.54 15.57 240.4 240.4 0 0 1-14.54-15.57Z"/></g><path fill="#4B4847" d="M82.29 253.8c.3-1.7 6.23-10.54 7.06-10.9 1.96-.77 6-.98 7.85.07 1.85 1.06 8.97 13.62 9.66 15 .68 1.37 3.33 6.79 3.44 8.12.1 1.32-6.23 7.75-7.04 8.57-.82.82-5.7 1.89-6.4 1.3-.69-.6-13.3-12.3-13.73-13.19-.43-.89-1.15-7.28-.84-8.97Z"/><path fill="#5950AD" d="M87.4 250.43c-.45-1 1.71-6.6 2.72-7.02 1.43-.68 6.04-.23 6.72-.02.69.22 9.36 14.68 9.52 15.16.16.48-3.7 4.66-4.46 5.2-.76.54-5.75-2.43-6.81-2.92-1.06-.49-7.23-9.4-7.69-10.4Z"/><path fill="#303545" d="M97.78 275.07c-.43-.56-3.32-11.67-2.86-12.57.63-.38 6.02 2.34 6.41 2.71.4.37.03 8.52-.13 9.16-.16.64-2.98 1.25-3.42.7Z"/><path fill="#5950AD" d="M102.43 273.96c-.28-.13-.23-8.7.07-9.28.4-.72 3.75-4.44 4.28-4.52.53-.07 2.5 5.55 2.72 5.96.2.4-6.79 7.98-7.07 7.84Z"/><path fill="#303545" d="M93.6 261.43c-.3-.64-6.52-10-7.11-10.08-.87-.23-3.07 2.01-3.25 2.5-.2.49.52 7.61.72 8.22.2.62 11.96 11.87 12.07 11.4.11-.47-2.15-11.4-2.44-12.04ZM86.16 250.38c.3-.16 1.58-4.01 1.26-4.1-.23-.26-3.46 5.14-3.53 5.6-.06.46 1.97-1.34 2.27-1.5Z"/><path fill="#48998A" d="M99.94 276.38c-5 1.23-7.8-7.15-6.64-7.43 1.15-.28 11.63 6.2 6.64 7.44Z"/><path fill="#48998A" d="M95.9 268.71c1.18-5.65 5.67 6.83 5.16 7.67-.51.83-6.33-2.01-5.16-7.67Z"/><path fill="#48998A" d="M102.54 278.02c-4.97-2.1-2.37-8.21-1.22-7.73 1.15.48 6.19 9.82 1.22 7.73Z"/><path fill="#4B4847" d="M102.93 275.4c.13-1.3 1.03-5.62 1.53-7.94.18-.84 1.54-2.06 2.13-2.25.27-1.6.97-5.02 1.62-5.97.81-1.2 33.63-28.47 34.82-28.55 1.2-.09 14.06 6.9 14.57 7.45.41.45-1.13 7.35-1.95 10.74 1.13.94 3.48 3.03 3.79 3.88.38 1.07-1.62 12.45-2.35 13.51A788.25 788.25 0 0 1 145.84 282c-.76.85-13.12 8.65-14.15 9.03-.81.3-6.64-2.26-9.46-3.58-1.12 1.28-3.66 3.84-4.85 3.84-1.5 0-13.56-7.76-14.24-8.83-.68-1.06-.38-5.45-.21-7.07Z"/><path fill="#303545" d="M117.55 290.69c.5.08 2.46-9.72 1.83-10.57-.12-.52-12.15-7.63-12.91-7.63-.77 0-2.99 8.95-2.94 9.6.04.63 13.5 8.52 14.02 8.6ZM103.26 275.58c.08-.47 1.23-7.3 1.57-7.54.45-.52.98 2.92.87 3.6-.1.68-2.44 9.14-2.57 9.11-.13-.02.05-4.7.13-5.17ZM106.86 265.65c0-.45 1.08-6.01 1.63-6.01a80.43 80.43 0 0 0 1.13 5.1c.13.14-.77 5.27-1.13 5.32-.37.06-1.63-3.96-1.63-4.4ZM109.17 270.72c-.45-.21.63-5.39.92-5.44.19-.36 8.77 4.78 8.98 5.05.21.26-.86 6.25-1.26 6.38-.4.13-8.2-5.78-8.64-5.99ZM122.28 286.9c0-.31 1.68-5.75 2.1-6.04.47-.29 5.88 2.76 6.2 3.02.31.26 1.07 6.49.68 6.57-.4.07-8.98-3.24-8.98-3.55Z"/><path fill="#5950AD" d="M134.07 262.3c.32-.06 20.96-19.91 21.45-19.64.62-.36-.77 9.92-1.1 10.52-.32.6-34.9 24.15-35.71 23.88-.82-.27.76-5.32 1.3-5.97.54-.65 7.49-5.8 8.09-6.51.6-.7 5.64-2.23 5.97-2.28ZM131.26 283.25c-.37.02-6.36-2.55-6.33-3-.22-.77 17.37-4.07 17.6-3.9.25.15-10.9 6.87-11.27 6.9ZM142.98 272.15c.13-.46 15.73-18.74 16.17-18.6.52 0-2.39 11.75-2.45 12.41-.07.68-10.54 14.9-10.98 15.16-.43.26-2.87-8.5-2.74-8.97Z"/><path fill="#5950AD" d="M120.33 279.62c-.47.06-1.54-.81-1.17-1.25a7356.25 7356.25 0 0 1 35.6-24.32c.46-.24.73-4.21 1.2-4.28.47-.06 2.85 2.83 2.88 3.1.03.27-16.6 18.75-17.07 19.15-.46.4-20.97 7.53-21.44 7.6ZM110.78 264.25c-.33-.32-1.63-4.01-1.36-5.1.54-1.2 33-26.98 33.82-27.25.81-.27 12.92 6.35 13.24 6.9.2.32-11.54 13.03-22.06 21.68-1.79 1.46-4.77 1.02-6.34 2.3a231.43 231.43 0 0 1-8.02 6.41c-.49.11-8.96-4.61-9.28-4.94Z"/><path fill="#48998A" d="M152.44 270.77c2.05 4.93 10.76 2.09 10.28.95-.47-1.13-12.34-5.87-10.28-.95ZM105.72 284c-5.52 1 7.05 5.93 8.44 5.6 1.4-.32-2.92-6.61-8.44-5.6Z"/><path fill="#48998A" d="M106.7 284.2c-2.58-4.78-8.55-.97-7.42-.09 1.22.96 10 4.86 7.42.09ZM161.32 269.41c3.99-4.46-9.18-.51-9.56.42-.38.94 5.57 4.05 9.56-.42ZM84.8 264.91c2.68 2.86-3.62 3.69-4.13 3.11-.51-.57 1.46-5.97 4.13-3.11Z"/><path fill="#48998A" d="M84.88 264.24c2.53-1.5 3.05 4.52 2.54 4.95-.73.62-5.06-3.45-2.54-4.95Z"/><path fill="#48998A" d="M84.53 263.7c.48 2.86-5.11-.56-5.19-1.23-.05-.41 4.7-1.64 5.2 1.22ZM122.35 288.71c-3.51-2.94 4.91-6.68 5.58-6.08.67.6-2.07 9.03-5.58 6.08Z"/><path fill="#48998A" d="M122.23 289.69c-3.4 3.14-3.97-5.13-3.29-5.94 1-1.17 6.7 2.79 3.3 5.94Z"/><path fill="#48998A" d="M122.69 290.32c-.59-3.84 6.8-1.31 6.9-.4.05.56-6.32 4.24-6.9.4ZM80.67 253.48c-4.52 1.33.2-7.86.81-7.59.6.27 3.71 6.26-.81 7.59Z"/><path fill="#48998A" d="M79.98 254.01c-3.1 3.27-7.41-4.65-6.7-5.4.72-.75 9.8 2.14 6.7 5.4ZM149.48 269.61c4.8 2.85 8.3-3.08 7.19-3.74-1.11-.66-12 .9-7.2 3.74Z"/><path fill="#48998A" d="M80.87 254.6c1.19 4.34-7.82 3.94-8.1 2.94-.27-1 6.9-7.28 8.1-2.94ZM105.83 283.28c-6.06-1.58.3 7.76 1.69 7.43 1.4-.32 4.37-5.85-1.7-7.43Z"/><g filter="url(#aN)"><path fill="url(#aO)" d="m85.73 229.7 3.03 12-4.85 2.1 1.82-14.1Z"/><path fill="url(#aP)" d="m98.22 235.54-3.81 3.35-8.68-9.2 12.5 5.85Z"/><path fill="url(#aQ)" d="m98.22 235.54-1 7.22-2.81-3.87 3.81-3.35Z"/><path fill="url(#aR)" d="m97.21 242.76-4.75 4.2.28-4.95 1.67-3.12 2.8 3.87Z"/><path fill="url(#aS)" d="m92.74 242-.28 4.96-8.55-3.16 4.85-2.1 3.98.3Z"/><path fill="url(#aT)" d="M94.4 238.89 92.75 242l-3.98-.3-3.03-12.02 8.68 9.2Z"/><path fill="url(#aU)" d="m85.73 229.7-1.82 14.1 8.55 3.16 4.75-4.2 1.01-7.22-12.49-5.85Z" style="mix-blend-mode:color-dodge"/><path fill="#fff" d="M85.54 229.7a93.8 93.8 0 0 1 8.72 9.15 93.8 93.8 0 0 1-8.72-9.14Z"/></g><g filter="url(#aV)"><path fill="url(#aW)" d="m136.02 220.87-3.03 12.02 4.85 2.1-1.82-14.12Z"/><path fill="url(#aX)" d="m123.53 226.72 3.81 3.35 8.68-9.2-12.5 5.85Z"/><path fill="url(#aY)" d="m123.53 226.72 1 7.22 2.81-3.88-3.81-3.34Z"/><path fill="url(#aZ)" d="m124.54 233.94 4.75 4.2-.28-4.95-1.67-3.13-2.8 3.88Z"/><path fill="url(#ba)" d="m129 233.19.29 4.95 8.55-3.16-4.85-2.1-3.98.3Z"/><path fill="url(#bb)" d="m127.34 230.06 1.67 3.13 3.98-.3 3.03-12.02-8.68 9.2Z"/><path fill="url(#bc)" d="m136.02 220.87 1.82 14.11-8.55 3.16-4.75-4.2-1.01-7.22 12.49-5.85Z" style="mix-blend-mode:color-dodge"/><path fill="#fff" d="M136.2 220.88a93.8 93.8 0 0 0-8.71 9.15 93.8 93.8 0 0 0 8.72-9.15Z"/></g><g filter="url(#bd)"><path fill="url(#be)" d="m47.61 208.92 5.08 6-2.18 2.55-2.9-8.55Z"/><path fill="url(#bf)" d="m56.36 208.77-1.24 2.97-7.51-2.82 8.75-.15Z"/><path fill="url(#bg)" d="m56.36 208.77 1.44 4.4-2.68-1.42 1.24-2.98Z"/><path fill="url(#bh)" d="m57.8 213.17-1.54 3.72-1.22-2.9.08-2.25 2.68 1.43Z"/><path fill="url(#bi)" d="m55.04 213.99 1.22 2.9-5.75.58 2.18-2.54 2.35-.94Z"/><path fill="url(#bj)" d="m55.12 211.75-.08 2.24-2.35.94-5.08-6 7.5 2.81Z"/><path fill="url(#bk)" d="m47.61 208.92 2.9 8.55 5.75-.58 1.54-3.72-1.44-4.4-8.75.15Z" style="mix-blend-mode:color-dodge"/><path fill="#fff" d="M47.5 208.98c2.6.77 5.1 1.7 7.53 2.78-2.59-.76-5.1-1.69-7.52-2.78Z"/></g><path fill="#4B4847" d="M94.38 234.35c1.4-1.62 13.76-8.5 16.12-9.05 2.24-.58 13.04 2.1 14.7 2.7 1.65.6 9.7 7.9 10.31 10.58.6 2.68-14.86 23.41-16.66 23.93-1.8.53-25.35-11.12-26.46-13.03-1.11-1.92.59-13.5 1.99-15.13Z"/><path fill="#303545" d="M93.32 249.28c-.72-1 .52-12.9 1.9-13.15 1.98-.12 5.82 2.21 7.1 3.08 1.27.88 11.75 11.87 12.62 13.61.88 1.74 3.42 8.5 2.66 8.75-.77.26-23.55-11.28-24.28-12.29Z"/><path fill="#5950AD" d="M120.38 241.23c.45-.9 6.53-6.86 8.04-6.99 1.7-.1 6.06 3.5 6.1 4.58.04 1.08-14.42 21.1-15.15 21.17-.73.06-1.39-3.38-1.34-4.42.05-1.03 1.9-13.45 2.35-14.34ZM116.36 251.9c-.63.03-9.72-10.21-9.49-10.94.85-.95 11.5.03 11.84.2.36.16-1.73 10.73-2.35 10.75Z"/><path fill="#303545" d="M128.21 233.35c-.37-.2-2.52-3.68-2.1-4.08.65.12 6.4 5.82 6.37 6.05-.05.23-3.89-1.77-4.27-1.97Z"/><path fill="#5950AD" d="M96.42 234.86c.04-1.23 13.83-8.84 15.22-8.8l12.69 2.34c.41.07 2.4 4.16 2.42 4.76 0 .6-6.5 6.5-7.12 6.87-.62.35-13.57-.87-14.92-1.12-1.36-.25-8.33-2.82-8.29-4.05Z"/><path fill="#4B4847" d="m136 270.77.2-1.03c.03-.11.2-.27.29-.3.03-.2.12-.65.2-.77.11-.16 4.4-3.72 4.55-3.73.15 0 1.83.9 1.9.98.05.05-.15.95-.26 1.4.15.12.46.39.5.5.05.14-.21 1.62-.3 1.76-.1.14-1.38 1.94-1.48 2.05-.1.12-1.7 1.13-1.84 1.18-.1.04-.87-.3-1.23-.46-.15.16-.48.5-.64.5-.2 0-1.76-1.02-1.85-1.16-.1-.13-.05-.7-.03-.92Z"/><path fill="#303545" d="M137.91 272.77c.07 0 .32-1.27.24-1.38-.01-.07-1.58-1-1.68-1-.1 0-.39 1.17-.38 1.25 0 .09 1.76 1.12 1.82 1.13ZM136.05 270.8c.01-.06.16-.95.2-.99.06-.06.13.38.12.47-.02.1-.32 1.2-.34 1.2-.01-.01.01-.62.02-.68ZM136.52 269.5c0-.06.14-.78.21-.78l.15.66c.02.02-.1.7-.15.7-.05 0-.21-.52-.21-.58ZM136.82 270.16c-.06-.02.08-.7.12-.7.03-.05 1.15.62 1.17.65.03.04-.11.82-.16.83-.05.02-1.07-.75-1.13-.78ZM138.53 272.27c0-.04.22-.75.27-.78.07-.04.77.36.81.39.04.03.14.85.1.86a8 8 0 0 1-1.18-.47Z"/><path fill="#5950AD" d="M140.07 269.06c.04 0 2.73-2.6 2.8-2.56.08-.04-.1 1.3-.15 1.38-.04.07-4.55 3.15-4.66 3.11-.1-.04.1-.7.18-.78.07-.08.97-.76 1.05-.85.08-.09.74-.29.78-.3ZM139.7 271.8a3.6 3.6 0 0 1-.82-.4c-.03-.1 2.26-.52 2.3-.5.02.02-1.43.9-1.48.9ZM141.23 270.35c.02-.06 2.05-2.44 2.1-2.43.08 0-.3 1.54-.31 1.62-.01.1-1.38 1.94-1.43 1.98-.06.03-.38-1.1-.36-1.17Z"/><path fill="#5950AD" d="M138.28 271.32c-.06.01-.2-.1-.16-.16a998.7 998.7 0 0 1 4.64-3.17c.07-.03.1-.55.16-.56.06 0 .37.37.38.4 0 .04-2.17 2.45-2.23 2.5-.06.06-2.73.98-2.8 1ZM137.03 269.32a1.6 1.6 0 0 1-.18-.67c.07-.15 4.3-3.51 4.41-3.55.1-.03 1.69.83 1.73.9.02.04-1.5 1.7-2.88 2.83-.23.19-.62.13-.82.3-.6.48-1.03.83-1.05.83-.06.02-1.17-.6-1.21-.64Z"/><path fill="#E3AA24" stroke="#F7C631" stroke-width=".49" d="M152.79 271.02c.52.16.99.6 1.32 1.15.34.54.57 1.22.56 1.9 0 .7-.23 1.4-.8 1.95-.57.54-1.46.92-2.73 1.04a3.54 3.54 0 0 1-2.3-.43c-.54-.36-.82-.9-.93-1.48a6.25 6.25 0 0 1 .66-3.47l.06-.12.13-.02 3.92-.53.06-.01.05.02ZM143.08 280.58c.63.14 1.56.48 2.36 1.08.8.6 1.48 1.49 1.54 2.7.04.78-.35 1.44-.95 1.92a5.1 5.1 0 0 1-2.34.96c-1.81.3-4.01-.09-5.43-1.48a1.36 1.36 0 0 1-.4-.75c-.04-.26 0-.53.12-.78.21-.5.67-1 1.21-1.44a17.2 17.2 0 0 1 3.75-2.2l.07-.03.07.02Z"/><path fill="#E3AA24" stroke="#F7C631" stroke-width=".49" d="M146.8 264.9a6.15 6.15 0 0 1 5.23-.38 4.62 4.62 0 0 1 2.8 3.56c.26 1.61-.08 3.08-1.13 4.06-.94.87-2.42 1.31-4.43 1.18.04 0 .07.02.11.04.83.29 1.74.77 2.51 1.39a5 5 0 0 1 1.71 2.3c.29.9.19 1.92-.51 2.96a6.95 6.95 0 0 1-5.24 3.23 9.1 9.1 0 0 1-5.83-1.63c-1.6-1.07-2.25-2.15-2.18-3.2.07-1.03.83-1.92 1.79-2.66a19.32 19.32 0 0 1 5.67-2.68c.1-.03.22-.04.34-.05a2.76 2.76 0 0 1-1.25-.96 4.14 4.14 0 0 1-.68-2.25c-.08-1.66.46-3.55.97-4.78l.04-.08.07-.04ZM144.73 256.4c2.45-.4 4.59.06 5.76 1.1.6.52.95 1.2.95 1.98s-.34 1.63-1.06 2.5c-1.45 1.74-4.07 2.85-6.36 3.13a6.7 6.7 0 0 1-3.08-.24c-.85-.32-1.47-.9-1.57-1.81-.18-1.62.1-3.11.98-4.3.88-1.18 2.33-2.01 4.38-2.36ZM135.85 282.14c1.15-.03 2.37.01 3.21.21.6.15.98.55 1.17 1.06.17.5.15 1.11-.06 1.68-.42 1.15-1.58 2.2-3.42 2.19-1.8-.02-3.15-.63-3.9-1.55a2.72 2.72 0 0 1-.14-3.27l.06-.1.11-.01c.69-.08 1.81-.18 2.97-.2Z"/><path fill="#E3AA24" stroke="#F7C631" stroke-width=".49" d="M132.68 273.58c-2.98 1.33-4.32 3.55-4.24 5.62.08 2.07 1.59 3.9 4.12 4.42 2.48.5 5.62.3 8.14-.62 2.51-.9 4.52-2.54 4.52-4.92 0-.97-.5-1.88-1.3-2.64-.79-.76-1.9-1.4-3.13-1.86-2.49-.9-5.6-1.1-8.11 0Z"/><path fill="#F7C631" d="M138.05 281.8c-6.91 1.08-8.1-1.92-7.6-2.28 2.12-1.53 5.61-1.64 8.17-2.1 1.09.97 3.49.83 4.55.63.08.94-.83 3-5.12 3.75Z"/><path fill="#E3AA24" stroke="#F7C631" stroke-width=".49" d="M145.1 264.15c3.24-.4 5.53.82 6.53 2.64 1 1.81.65 4.16-1.26 5.9-1.89 1.74-5.3 2.84-8.28 3.12-1.5.14-2.9.07-3.99-.24-1.06-.3-1.88-.87-2.02-1.8-.25-1.68.68-3.91 2.3-5.8 1.64-1.88 4-3.47 6.72-3.82Z"/><path fill="#E3AA24" stroke="#F7C631" stroke-width=".49" d="M130.71 269.09c2.56-.4 4.8.06 6.03 1.12.62.54 1 1.24 1 2.05 0 .8-.37 1.67-1.12 2.56-1.52 1.8-4.26 2.94-6.66 3.23-1.2.14-2.34.07-3.22-.25-.88-.33-1.52-.93-1.63-1.86-.2-1.67.11-3.2 1.03-4.42.92-1.22 2.42-2.08 4.57-2.43Z"/><path fill="#F7C631" d="M127 276.08c-1.12-1.25.48-3.11 2.17-2.62 2.46.74 4.34-4.04 6.91-2.54 2.36 3.57-6.87 7.6-9.07 5.16Z"/><path fill="#E3AA24" stroke="#F7C631" stroke-width=".49" d="M142.78 260.93c2.45-.4 4.59.06 5.76 1.1.6.52.95 1.2.95 1.98s-.34 1.62-1.06 2.5c-1.45 1.74-4.07 2.84-6.36 3.12a6.71 6.71 0 0 1-3.08-.24c-.85-.31-1.47-.9-1.57-1.8-.18-1.62.11-3.12.99-4.3.87-1.18 2.32-2.02 4.37-2.36Z"/><path fill="#E3AA24" stroke="#F7C631" stroke-width=".49" d="M141.42 253.26c2.44-.39 4.58.06 5.76 1.1.6.52.95 1.2.95 1.98s-.34 1.63-1.07 2.5c-1.44 1.74-4.06 2.85-6.35 3.13a6.71 6.71 0 0 1-3.09-.24c-.84-.32-1.46-.9-1.56-1.81-.18-1.62.1-3.11.98-4.3.88-1.18 2.32-2.01 4.38-2.36Z"/><path fill="#CF8D1B" d="M140.9 265.35c-1.48.58.3-1.68 2.98-2.28 2.15-.48-.22 1.75-.61 1.97-.39.21-.88-.27-2.37.3ZM128.35 273.12c-1.19.27.4-1.23 2.5-1.39 1.68-.12-.36 1.3-.68 1.42-.32.12-.63-.3-1.82-.03Z"/><path fill="#F7C631" d="M139.88 258.93c.87-.56 4.23-2.35 3.93-4.03 0-1.73 6.12 1.3.28 4.72-4.73 2.77-5.09-.14-4.21-.7Z"/><path fill="#D9D9D9" d="M137.85 262.52c-1.13-2.26 2.54-4.96 3.22-7.35-2.45 1.03-7.66 3.55-8.9 5.35-1.54 2.26 6.84 4.32 5.68 2Z"/><path fill="#C4C4C4" d="M137.96 259.29c-.34.56-1.07 1.69-.7 2.8-.78.22-2.43.62-2.74.49-.38-.16-.33-1.37.22-1.66.55-.3-.14 1.27.37 1.23.51-.03.43-1.11.71-1.71.28-.6.78-.61.48.38-.3.99.44 1.15.52 0 .09-1.15 1.49-2.1 1.14-1.53Z"/><path fill="#E3AA24" stroke="#F7C631" stroke-width=".49" d="M132 261.7c3.45-.4 6.44.06 8.07 1.12.83.53 1.34 1.24 1.35 2.09 0 .84-.5 1.73-1.52 2.63-2.04 1.8-5.74 2.95-8.96 3.24-1.62.15-3.15.08-4.3-.24-1.16-.32-2.04-.91-2.2-1.89a5 5 0 0 1 1.41-4.51c1.24-1.22 3.26-2.08 6.15-2.44Z"/><path fill="#F7C631" d="M126.78 266.5c-.35-1.9 1.13-3.45 5.13-3.86 4.8-.46 8.18 1.1 5.4 3.12-2.78 2.03-10.17 2.63-10.53.73Z"/><path fill="#E3AA24" stroke="#F7C631" stroke-width=".49" d="M138.5 250.12c.59-.12 1.1-.17 1.45-.14.68.07 1.36.3 1.87.7.5.41.83 1.01.78 1.79-.06.76-.49 1.66-1.39 2.7-.9 1.04-2.3 2.25-4.36 3.63-4.1 2.76-7.09 3.73-9.07 3.77a3.8 3.8 0 0 1-2.28-.56c-.52-.36-.79-.88-.79-1.41 0-1.55.82-3 2.04-4.28a19.42 19.42 0 0 1 4.6-3.4 30.8 30.8 0 0 1 5.07-2.23c.77-.25 1.48-.45 2.08-.57Z"/><path fill="#F7C631" d="M135.34 255.98c-5.47 3.67-8.96 4.22-8.96 3.02 0-3.9 9.24-7.82 11.12-7.82 1.74 0 3.3 1.12-2.16 4.8ZM143.73 274.56c6.7-1.06 7.6-6.17 6.4-7.4-1.46 1.72-5.12 5.2-8.1 5.25-3.71.08-5 3.21 1.7 2.15ZM147.48 282.2c-2.74.02-2.38-1.21-1.47-1.9.8-.56.9.5 2.86-.54 1.97-1.03 1.97-4.97 3.46-3.14 1.49 1.83-2.1 5.56-4.85 5.58Z"/><path fill="#E3AA24" d="M130.25 256.5c-1.4.76.08-1.7 2.66-2.64 2.08-.75 0 1.76-.35 2.03-.36.26-.9-.16-2.31.6ZM129.85 265.45c-1.59.15.75-1.53 3.5-1.36 2.2.13-.7 1.62-1.14 1.72-.43.1-.77-.5-2.36-.36Z"/><path fill="#CF8D1B" d="M140.8 284.83c.11-.16.23-1.01-.1-1.5l2.03-.74 1.5.74c-.5.8-3.53 1.66-3.42 1.5ZM139.54 283.85c-1.44.8-6.18.58-6.7.3-.05.63.94 1.19 3.4 1.19 1.98 0 3.03-1 3.3-1.5ZM145.16 275.96c1.2-.37 3.75-1.25 4.44-1.84.38.12 1 .53.43 1.2-.56.68-3.01 1.96-4.17 2.52a3.9 3.9 0 0 0-.7-1.88ZM137.5 270.33c.1-.18.34-.6.54-.85a7.7 7.7 0 0 0 3.96.75c2.1-.08 4.28-1.3 5.1-1.9.5-.16 1.1-.23-.37.75-1.84 1.22-3.55 2.7-5.5 2.36-1.55-.27-2.6.3-2.94.61.05-.73-.5-1.45-.8-1.72ZM138.58 260.38c.14-1.4 2.44-3.6 2.46-4.32.62-.3 1.66-.57.87.72-1 1.61-2.13 1.16-2.54 2.4-.32.99-.66 1.2-.8 1.2ZM136.84 275.68c1.16 1.2 5.97 1.28 6.84.51.26 0 .67.2.23 1.02-.55 1.01-4.7.51-5.19 0-.49-.52-.96-.64-2.09-.06-.9.46-1.57.04-1.8-.22.55-.16 1.57-.9 2-1.25ZM152.8 274.86c-.15-.38-1.23-.94-1.75-1.17a8.09 8.09 0 0 0 1.63-.35c.5.26.29 1.12.12 1.52ZM146.08 260.45c.28-.18.94-.65 1.27-1.14.5-.66.82 1.9.4 1.57a4.2 4.2 0 0 0-1.67-.43Z"/><circle cx="83.47" cy="153.47" r="11.4" fill="url(#bl)" opacity=".2" transform="rotate(-45 83.47 153.47)"/><g filter="url(#bm)"><path fill="url(#bn)" d="m86.4 246.43 10.54 5.97 1.11 6.24-4.46.27-7.18-12.48Z"/><path fill="url(#bo)" d="m99.2 245.97 3.95 4.06-6.2 2.37-10.54-5.98 12.8-.45Z"/><path fill="url(#bp)" d="m103.15 250.03-.07 5.14-5.03 3.47-1.1-6.24 6.2-2.37Z"/><path fill="url(#bq)" d="m86.4 246.43 7.19 12.48 4.46-.27 5.03-3.47.07-5.13-3.94-4.07-12.8.46Z" style="mix-blend-mode:color-dodge"/></g><defs><linearGradient id="b" x1="89.76" x2="89.76" y1="165.29" y2="197.15" gradientUnits="userSpaceOnUse"><stop stop-color="#83DEFC"/><stop offset="1" stop-color="#D5C6FF"/></linearGradient><linearGradient id="c" x1="92.92" x2="92.92" y1="191.57" y2="240.49" gradientUnits="userSpaceOnUse"><stop stop-color="#009FD9"/><stop offset="1" stop-color="#9881F2"/></linearGradient><linearGradient id="d" x1="85.16" x2="85.16" y1="189.11" y2="240.49" gradientUnits="userSpaceOnUse"><stop stop-color="#008CD1"/><stop offset="1" stop-color="#7A66F4"/></linearGradient><linearGradient id="e" x1="102.41" x2="102.41" y1="191.57" y2="240.79" gradientUnits="userSpaceOnUse"><stop stop-color="#008CD1"/><stop offset="1" stop-color="#7A66F4"/></linearGradient><linearGradient id="f" x1="147.44" x2="147.44" y1="138.63" y2="164.05" gradientUnits="userSpaceOnUse"><stop stop-color="#83DEFC"/><stop offset="1" stop-color="#D5C6FF"/></linearGradient><linearGradient id="g" x1="148.94" x2="148.94" y1="136.07" y2="158.01" gradientUnits="userSpaceOnUse"><stop stop-color="#009FD9"/><stop offset="1" stop-color="#9881F2"/></linearGradient><linearGradient id="h" x1="146.11" x2="146.11" y1="136.22" y2="157.97" gradientUnits="userSpaceOnUse"><stop stop-color="#008CD1"/><stop offset="1" stop-color="#7A66F4"/></linearGradient><linearGradient id="i" x1="152.87" x2="152.87" y1="140.16" y2="152.6" gradientUnits="userSpaceOnUse"><stop stop-color="#4DC3EA"/><stop offset="1" stop-color="#C9ACFF"/></linearGradient><linearGradient id="j" x1="152.89" x2="152.89" y1="147.88" y2="156.15" gradientUnits="userSpaceOnUse"><stop stop-color="#4DC3EA"/><stop offset="1" stop-color="#C9ACFF"/></linearGradient><linearGradient id="k" x1="149.51" x2="149.51" y1="126.67" y2="139.07" gradientUnits="userSpaceOnUse"><stop stop-color="#009FD9"/><stop offset="1" stop-color="#9881F2"/></linearGradient><linearGradient id="l" x1="149.5" x2="149.5" y1="136.77" y2="130.77" gradientUnits="userSpaceOnUse"><stop stop-color="#4DC3EA"/><stop offset="1" stop-color="#C9ACFF"/></linearGradient><linearGradient id="m" x1="149.5" x2="149.5" y1="119.05" y2="135.41" gradientUnits="userSpaceOnUse"><stop stop-color="#009FD9"/><stop offset="1" stop-color="#9881F2"/></linearGradient><linearGradient id="n" x1="149.5" x2="149.5" y1="118.56" y2="133.34" gradientUnits="userSpaceOnUse"><stop stop-color="#009FD9"/><stop offset="1" stop-color="#9881F2"/></linearGradient><linearGradient id="o" x1="149.5" x2="149.5" y1="118.56" y2="133.34" gradientUnits="userSpaceOnUse"><stop stop-color="#4DC3EA"/><stop offset="1" stop-color="#C9ACFF"/></linearGradient><linearGradient id="p" x1="149.5" x2="149.5" y1="117.61" y2="129.67" gradientUnits="userSpaceOnUse"><stop stop-color="#009FD9"/><stop offset="1" stop-color="#9881F2"/></linearGradient><linearGradient id="q" x1="147.34" x2="151.17" y1="119.54" y2="119.54" gradientUnits="userSpaceOnUse"><stop stop-color="#4DC3EA"/><stop offset="1" stop-color="#C9ACFF"/></linearGradient><linearGradient id="r" x1="146.06" x2="146.06" y1="119.9" y2="128.66" gradientUnits="userSpaceOnUse"><stop stop-color="#008CD1"/><stop offset="1" stop-color="#7A66F4"/></linearGradient><linearGradient id="s" x1="141.52" x2="141.52" y1="159.59" y2="251.61" gradientUnits="userSpaceOnUse"><stop stop-color="#008CD1"/><stop offset="1" stop-color="#7A66F4"/></linearGradient><linearGradient id="t" x1="150.54" x2="150.54" y1="154.3" y2="250.65" gradientUnits="userSpaceOnUse"><stop stop-color="#4DC3EA"/><stop offset="1" stop-color="#C9ACFF"/></linearGradient><linearGradient id="u" x1="118.86" x2="118.86" y1="106.23" y2="144.32" gradientUnits="userSpaceOnUse"><stop stop-color="#83DEFC"/><stop offset="1" stop-color="#D5C6FF"/></linearGradient><linearGradient id="v" x1="119.42" x2="119.42" y1="100.34" y2="128.75" gradientUnits="userSpaceOnUse"><stop stop-color="#009FD9"/><stop offset="1" stop-color="#9881F2"/></linearGradient><linearGradient id="w" x1="115.85" x2="115.85" y1="100.39" y2="128.69" gradientUnits="userSpaceOnUse"><stop stop-color="#008CD1"/><stop offset="1" stop-color="#7A66F4"/></linearGradient><linearGradient id="x" x1="124.38" x2="124.38" y1="105.64" y2="121.75" gradientUnits="userSpaceOnUse"><stop stop-color="#4DC3EA"/><stop offset="1" stop-color="#C9ACFF"/></linearGradient><linearGradient id="y" x1="119.57" x2="119.57" y1="89.59" y2="102.94" gradientUnits="userSpaceOnUse"><stop stop-color="#009FD9"/><stop offset="1" stop-color="#9881F2"/></linearGradient><linearGradient id="z" x1="119.58" x2="119.58" y1="100.08" y2="92.73" gradientUnits="userSpaceOnUse"><stop stop-color="#4DC3EA"/><stop offset="1" stop-color="#C9ACFF"/></linearGradient><linearGradient id="A" x1="119.57" x2="119.57" y1="80.23" y2="98.46" gradientUnits="userSpaceOnUse"><stop stop-color="#009FD9"/><stop offset="1" stop-color="#9881F2"/></linearGradient><linearGradient id="B" x1="119.58" x2="119.58" y1="76.72" y2="93.49" gradientUnits="userSpaceOnUse"><stop stop-color="#009FD9"/><stop offset="1" stop-color="#9881F2"/></linearGradient><linearGradient id="C" x1="119.58" x2="119.58" y1="76.72" y2="93.49" gradientUnits="userSpaceOnUse"><stop stop-color="#4DC3EA"/><stop offset="1" stop-color="#C9ACFF"/></linearGradient><linearGradient id="D" x1="119.57" x2="119.57" y1="77.34" y2="90.33" gradientUnits="userSpaceOnUse"><stop stop-color="#009FD9"/><stop offset="1" stop-color="#9881F2"/></linearGradient><linearGradient id="E" x1="115.79" x2="115.79" y1="77.93" y2="89.21" gradientUnits="userSpaceOnUse"><stop stop-color="#008CD1"/><stop offset="1" stop-color="#7A66F4"/></linearGradient><linearGradient id="F" x1="119.57" x2="119.57" y1="71" y2="81.95" gradientUnits="userSpaceOnUse"><stop stop-color="#009FD9"/><stop offset="1" stop-color="#9881F2"/></linearGradient><linearGradient id="G" x1="119.57" x2="119.57" y1="71" y2="81.95" gradientUnits="userSpaceOnUse"><stop stop-color="#4DC3EA"/><stop offset="1" stop-color="#C9ACFF"/></linearGradient><linearGradient id="H" x1="102.2" x2="102.2" y1="120.1" y2="253.94" gradientUnits="userSpaceOnUse"><stop stop-color="#0069AB"/><stop offset="1" stop-color="#5E53D9"/></linearGradient><linearGradient id="I" x1="112.98" x2="112.98" y1="144.32" y2="256.03" gradientUnits="userSpaceOnUse"><stop stop-color="#008CD1"/><stop offset="1" stop-color="#9881F2"/></linearGradient><linearGradient id="J" x1="130.67" x2="130.67" y1="129.94" y2="260.99" gradientUnits="userSpaceOnUse"><stop stop-color="#009FD9"/><stop offset="1" stop-color="#9881F2"/></linearGradient><linearGradient id="K" x1="122.52" x2="126.71" y1="110.02" y2="254.66" gradientUnits="userSpaceOnUse"><stop stop-color="#DCF4FF" stop-opacity=".4"/><stop offset="1" stop-color="#DCF4FF" stop-opacity="0"/></linearGradient><linearGradient id="L" x1="88.91" x2="88.91" y1="171.09" y2="177.53" gradientUnits="userSpaceOnUse"><stop stop-color="#009FD9"/><stop offset="1" stop-color="#9881F2"/></linearGradient><linearGradient id="M" x1="98.78" x2="98.78" y1="226.73" y2="238.26" gradientUnits="userSpaceOnUse"><stop stop-color="#83DEFC"/><stop offset="1" stop-color="#D5C6FF"/></linearGradient><linearGradient id="N" x1="89.29" x2="89.29" y1="235.97" y2="250.97" gradientUnits="userSpaceOnUse"><stop stop-color="#0069AB"/><stop offset="1" stop-color="#7A66F4"/></linearGradient><linearGradient id="O" x1="90.37" x2="90.37" y1="248.99" y2="257.04" gradientUnits="userSpaceOnUse"><stop stop-color="#0069AB"/><stop offset="1" stop-color="#7A66F4"/></linearGradient><linearGradient id="P" x1="107.12" x2="107.12" y1="232.79" y2="254.72" gradientUnits="userSpaceOnUse"><stop stop-color="#009FD9"/><stop offset="1" stop-color="#9881F2"/></linearGradient><linearGradient id="Q" x1="95.47" x2="95.47" y1="235.97" y2="248.99" gradientUnits="userSpaceOnUse"><stop stop-color="#009FD9"/><stop offset="1" stop-color="#9881F2"/></linearGradient><linearGradient id="R" x1="99.98" x2="99.98" y1="232.79" y2="248.99" gradientUnits="userSpaceOnUse"><stop stop-color="#4DC3EA"/><stop offset="1" stop-color="#C9ACFF"/></linearGradient><linearGradient id="S" x1="123.49" x2="123.49" y1="185.14" y2="198.8" gradientUnits="userSpaceOnUse"><stop stop-color="#83DEFC"/><stop offset="1" stop-color="#D5C6FF"/></linearGradient><linearGradient id="T" x1="119.92" x2="119.92" y1="195.86" y2="262.03" gradientUnits="userSpaceOnUse"><stop stop-color="#008CD1"/><stop offset="1" stop-color="#7A66F4"/></linearGradient><linearGradient id="U" x1="126.47" x2="126.47" y1="194.99" y2="262.03" gradientUnits="userSpaceOnUse"><stop stop-color="#4DC3EA"/><stop offset="1" stop-color="#C9ACFF"/></linearGradient><linearGradient id="V" x1="136.44" x2="136.44" y1="225.12" y2="247.97" gradientUnits="userSpaceOnUse"><stop stop-color="#83DEFC"/><stop offset="1" stop-color="#D5C6FF"/></linearGradient><linearGradient id="W" x1="134.49" x2="134.49" y1="246.7" y2="254.67" gradientUnits="userSpaceOnUse"><stop stop-color="#009FD9"/><stop offset="1" stop-color="#9881F2"/></linearGradient><linearGradient id="X" x1="125.56" x2="125.56" y1="232.45" y2="264.8" gradientUnits="userSpaceOnUse"><stop stop-color="#0069AB"/><stop offset="1" stop-color="#9881F2"/></linearGradient><linearGradient id="Y" x1="126.67" x2="126.67" y1="247.97" y2="271.96" gradientUnits="userSpaceOnUse"><stop stop-color="#0069AB"/><stop offset="1" stop-color="#7A66F4"/></linearGradient><linearGradient id="Z" x1="133.33" x2="133.33" y1="260.83" y2="274.5" gradientUnits="userSpaceOnUse"><stop stop-color="#0069AB"/><stop offset="1" stop-color="#7A66F4"/></linearGradient><linearGradient id="aa" x1="143.55" x2="143.55" y1="248.94" y2="274.5" gradientUnits="userSpaceOnUse"><stop stop-color="#009FD9"/><stop offset="1" stop-color="#9881F2"/></linearGradient><linearGradient id="ab" x1="134.49" x2="134.49" y1="247.97" y2="262.65" gradientUnits="userSpaceOnUse"><stop stop-color="#008CD1"/><stop offset="1" stop-color="#7A66F4"/></linearGradient><linearGradient id="ac" x1="142.41" x2="142.41" y1="233.16" y2="254.67" gradientUnits="userSpaceOnUse"><stop stop-color="#4DC3EA"/><stop offset="1" stop-color="#C9ACFF"/></linearGradient><linearGradient id="ad" x1="110.64" x2="110.64" y1="248.99" y2="257.17" gradientUnits="userSpaceOnUse"><stop stop-color="#83DEFC"/><stop offset="1" stop-color="#D5C6FF"/></linearGradient><linearGradient id="ae" x1="112.56" x2="112.56" y1="256.48" y2="264.46" gradientUnits="userSpaceOnUse"><stop stop-color="#4DC3EA"/><stop offset="1" stop-color="#C9ACFF"/></linearGradient><linearGradient id="af" x1="105.62" x2="105.62" y1="255.88" y2="264.46" gradientUnits="userSpaceOnUse"><stop stop-color="#009FD9"/><stop offset="1" stop-color="#9881F2"/></linearGradient><linearGradient id="ag" x1="121.01" x2="121.01" y1="251.39" y2="260.67" gradientUnits="userSpaceOnUse"><stop stop-color="#4DC3EA"/><stop offset="1" stop-color="#C9ACFF"/></linearGradient><linearGradient id="ah" x1="122.01" x2="122.01" y1="256.48" y2="266.86" gradientUnits="userSpaceOnUse"><stop stop-color="#009FD9"/><stop offset="1" stop-color="#9881F2"/></linearGradient><linearGradient id="ai" x1="117.33" x2="117.33" y1="256.48" y2="269.05" gradientUnits="userSpaceOnUse"><stop stop-color="#009FD9"/><stop offset="1" stop-color="#9881F2"/></linearGradient><linearGradient id="aj" x1="109.45" x2="109.45" y1="262.67" y2="269.05" gradientUnits="userSpaceOnUse"><stop stop-color="#0069AB"/><stop offset="1" stop-color="#7A66F4"/></linearGradient><linearGradient id="ak" x1="101.09" x2="101.09" y1="255.88" y2="267.95" gradientUnits="userSpaceOnUse"><stop stop-color="#0069AB"/><stop offset="1" stop-color="#7A66F4"/></linearGradient><linearGradient id="al" x1="87.44" x2="87.44" y1="167.17" y2="189.11" gradientUnits="userSpaceOnUse"><stop stop-color="#009FD9"/><stop offset="1" stop-color="#9881F2"/></linearGradient><linearGradient id="am" x1="84.62" x2="84.62" y1="168.28" y2="189.06" gradientUnits="userSpaceOnUse"><stop stop-color="#008CD1"/><stop offset="1" stop-color="#7A66F4"/></linearGradient><linearGradient id="an" x1="91.38" x2="91.38" y1="171.26" y2="183.7" gradientUnits="userSpaceOnUse"><stop stop-color="#4DC3EA"/><stop offset="1" stop-color="#C9ACFF"/></linearGradient><linearGradient id="ao" x1="91.4" x2="91.4" y1="178.98" y2="187.24" gradientUnits="userSpaceOnUse"><stop stop-color="#4DC3EA"/><stop offset="1" stop-color="#C9ACFF"/></linearGradient><linearGradient id="ap" x1="88.01" x2="88.01" y1="154.49" y2="170.85" gradientUnits="userSpaceOnUse"><stop stop-color="#009FD9"/><stop offset="1" stop-color="#9881F2"/></linearGradient><linearGradient id="aq" x1="88.01" x2="88.01" y1="153.07" y2="166.75" gradientUnits="userSpaceOnUse"><stop stop-color="#009FD9"/><stop offset="1" stop-color="#9881F2"/></linearGradient><linearGradient id="ar" x1="88.01" x2="88.01" y1="153.07" y2="166.75" gradientUnits="userSpaceOnUse"><stop stop-color="#4DC3EA"/><stop offset="1" stop-color="#C9ACFF"/></linearGradient><linearGradient id="as" x1="88.01" x2="88.01" y1="154.4" y2="161.51" gradientUnits="userSpaceOnUse"><stop stop-color="#009FD9"/><stop offset="1" stop-color="#9881F2"/></linearGradient><linearGradient id="aC" x1="40.91" x2="40.91" y1="182.28" y2="196.86" gradientUnits="userSpaceOnUse"><stop stop-color="#009FD9"/><stop offset="1" stop-color="#9881F2"/></linearGradient><linearGradient id="aF" x1="92.97" x2="116.92" y1="201.96" y2="234.11" gradientUnits="userSpaceOnUse"><stop stop-color="#4DC3EA"/><stop offset="1" stop-color="#9881F2"/></linearGradient><linearGradient id="aG" x1="110.16" x2="117.28" y1="233.51" y2="243.07" gradientUnits="userSpaceOnUse"><stop stop-color="#008CD1"/><stop offset="1" stop-color="#7A66F4"/></linearGradient><linearGradient id="aH" x1="92.69" x2="106.06" y1="219.94" y2="237.89" gradientUnits="userSpaceOnUse"><stop stop-color="#4DC3EA"/><stop offset="1" stop-color="#9881F2"/></linearGradient><linearGradient id="aI" x1="103.78" x2="107.4" y1="237.57" y2="242.42" gradientUnits="userSpaceOnUse"><stop stop-color="#0069AB"/><stop offset="1" stop-color="#5E53D9"/></linearGradient><linearGradient id="aJ" x1="85.28" x2="96.12" y1="204.15" y2="218.71" gradientUnits="userSpaceOnUse"><stop stop-color="#83DEFC"/><stop offset="1" stop-color="#D5C6FF"/></linearGradient><linearGradient id="aK" x1="111.95" x2="120.4" y1="220.56" y2="231.9" gradientUnits="userSpaceOnUse"><stop stop-color="#008CD1"/><stop offset="1" stop-color="#7A66F4"/></linearGradient><linearGradient id="aL" x1="118.12" x2="122.54" y1="233.22" y2="239.16" gradientUnits="userSpaceOnUse"><stop stop-color="#0069AB"/><stop offset="1" stop-color="#5E53D9"/></linearGradient><linearGradient id="aM" x1="97.49" x2="111.91" y1="200.84" y2="244.93" gradientUnits="userSpaceOnUse"><stop stop-color="#228AB9" stop-opacity=".3"/><stop offset="1" stop-color="#DCF4FF" stop-opacity="0"/></linearGradient><linearGradient id="aO" x1="82.21" x2="87.53" y1="231.41" y2="242.31" gradientUnits="userSpaceOnUse"><stop stop-color="#4DC3EA"/><stop offset="1" stop-color="#7A66F4"/></linearGradient><linearGradient id="aP" x1="89.62" x2="94.92" y1="227.79" y2="238.64" gradientUnits="userSpaceOnUse"><stop stop-color="#83DEFC"/><stop offset="1" stop-color="#D5C6FF"/></linearGradient><linearGradient id="aQ" x1="96.02" x2="98.67" y1="236.61" y2="242.05" gradientUnits="userSpaceOnUse"><stop stop-color="#0069AB"/><stop offset="1" stop-color="#5E53D9"/></linearGradient><linearGradient id="aR" x1="92.4" x2="95.21" y1="239.87" y2="245.62" gradientUnits="userSpaceOnUse"><stop stop-color="#008CD1"/><stop offset="1" stop-color="#7A66F4"/></linearGradient><linearGradient id="aS" x1="87.83" x2="90.72" y1="241.89" y2="247.81" gradientUnits="userSpaceOnUse"><stop stop-color="#0069AB"/><stop offset="1" stop-color="#5E53D9"/></linearGradient><linearGradient id="aT" x1="86.28" x2="92.48" y1="229.43" y2="242.13" gradientUnits="userSpaceOnUse"><stop stop-color="#4DC3EA"/><stop offset="1" stop-color="#9881F2"/></linearGradient><linearGradient id="aU" x1="97.5" x2="82.78" y1="234.13" y2="241.59" gradientUnits="userSpaceOnUse"><stop stop-color="#228AB9" stop-opacity=".3"/><stop offset="1" stop-color="#DCF4FF" stop-opacity="0"/></linearGradient><linearGradient id="aW" x1="139.53" x2="134.22" y1="222.59" y2="233.49" gradientUnits="userSpaceOnUse"><stop stop-color="#4DC3EA"/><stop offset="1" stop-color="#7A66F4"/></linearGradient><linearGradient id="aX" x1="132.13" x2="126.83" y1="218.97" y2="229.82" gradientUnits="userSpaceOnUse"><stop stop-color="#83DEFC"/><stop offset="1" stop-color="#D5C6FF"/></linearGradient><linearGradient id="aY" x1="125.73" x2="123.08" y1="227.79" y2="233.23" gradientUnits="userSpaceOnUse"><stop stop-color="#0069AB"/><stop offset="1" stop-color="#5E53D9"/></linearGradient><linearGradient id="aZ" x1="129.35" x2="126.54" y1="231.04" y2="236.8" gradientUnits="userSpaceOnUse"><stop stop-color="#008CD1"/><stop offset="1" stop-color="#7A66F4"/></linearGradient><linearGradient id="ba" x1="133.92" x2="131.03" y1="233.07" y2="238.99" gradientUnits="userSpaceOnUse"><stop stop-color="#0069AB"/><stop offset="1" stop-color="#5E53D9"/></linearGradient><linearGradient id="bb" x1="135.47" x2="129.27" y1="220.6" y2="233.31" gradientUnits="userSpaceOnUse"><stop stop-color="#4DC3EA"/><stop offset="1" stop-color="#9881F2"/></linearGradient><linearGradient id="bc" x1="124.25" x2="138.97" y1="225.3" y2="232.77" gradientUnits="userSpaceOnUse"><stop stop-color="#228AB9" stop-opacity=".3"/><stop offset="1" stop-color="#DCF4FF" stop-opacity="0"/></linearGradient><linearGradient id="be" x1="46.08" x2="52.15" y1="210.88" y2="215.61" gradientUnits="userSpaceOnUse"><stop stop-color="#4DC3EA"/><stop offset="1" stop-color="#7A66F4"/></linearGradient><linearGradient id="bf" x1="49.3" x2="55.34" y1="206.75" y2="211.46" gradientUnits="userSpaceOnUse"><stop stop-color="#83DEFC"/><stop offset="1" stop-color="#D5C6FF"/></linearGradient><linearGradient id="bg" x1="55.4" x2="58.43" y1="210" y2="212.36" gradientUnits="userSpaceOnUse"><stop stop-color="#0069AB"/><stop offset="1" stop-color="#5E53D9"/></linearGradient><linearGradient id="bh" x1="54.25" x2="57.45" y1="212.86" y2="215.36" gradientUnits="userSpaceOnUse"><stop stop-color="#008CD1"/><stop offset="1" stop-color="#7A66F4"/></linearGradient><linearGradient id="bi" x1="52.21" x2="55.5" y1="215.29" y2="217.86" gradientUnits="userSpaceOnUse"><stop stop-color="#0069AB"/><stop offset="1" stop-color="#5E53D9"/></linearGradient><linearGradient id="bj" x1="47.85" x2="54.92" y1="208.62" y2="214.13" gradientUnits="userSpaceOnUse"><stop stop-color="#4DC3EA"/><stop offset="1" stop-color="#9881F2"/></linearGradient><linearGradient id="bk" x1="55.55" x2="49.24" y1="208.17" y2="216.53" gradientUnits="userSpaceOnUse"><stop stop-color="#228AB9" stop-opacity=".3"/><stop offset="1" stop-color="#DCF4FF" stop-opacity="0"/></linearGradient><linearGradient id="bn" x1="84.84" x2="98.58" y1="248.81" y2="257.84" gradientUnits="userSpaceOnUse"><stop stop-color="#4DC3EA"/><stop offset="1" stop-color="#7A66F4"/></linearGradient><linearGradient id="bo" x1="88.45" x2="101.79" y1="243.33" y2="252.1" gradientUnits="userSpaceOnUse"><stop stop-color="#83DEFC"/><stop offset="1" stop-color="#D5C6FF"/></linearGradient><linearGradient id="bp" x1="97.16" x2="102.72" y1="252.08" y2="255.73" gradientUnits="userSpaceOnUse"><stop stop-color="#4DC3EA"/><stop offset="1" stop-color="#9881F2"/></linearGradient><linearGradient id="bq" x1="95.74" x2="96.51" y1="245.92" y2="258.8" gradientUnits="userSpaceOnUse"><stop stop-color="#228AB9" stop-opacity=".3"/><stop offset="1" stop-color="#DCF4FF" stop-opacity="0"/></linearGradient><radialGradient id="at" cx="0" cy="0" r="1" gradientTransform="matrix(3.6544 -.4872 2.1893 16.4219 40.07 169.6)" gradientUnits="userSpaceOnUse"><stop stop-color="#5E53D9"/><stop offset="1" stop-color="#322C73"/></radialGradient><radialGradient id="au" cx="0" cy="0" r="1" gradientTransform="matrix(3.5292 -1.0664 4.0979 13.5621 39 174.7)" gradientUnits="userSpaceOnUse"><stop stop-color="#5E53D9"/><stop offset="1" stop-color="#322C73"/></radialGradient><radialGradient id="av" cx="0" cy="0" r="1" gradientTransform="matrix(-11.4075 12.9763 -5.1622 -4.0804 55.78 175)" gradientUnits="userSpaceOnUse"><stop stop-color="#5E53D9"/><stop offset="1" stop-color="#322C73"/></radialGradient><radialGradient id="aw" cx="0" cy="0" r="1" gradientTransform="matrix(-9.5432 24.911 -25.3243 -2.9933 52.53 162.54)" gradientUnits="userSpaceOnUse"><stop stop-color="#5E53D9"/><stop offset="1" stop-color="#322C73"/></radialGradient><radialGradient id="ax" cx="0" cy="0" r="1" gradientTransform="matrix(10.6445 -10.9325 12.7046 7.4472 37.06 184.94)" gradientUnits="userSpaceOnUse"><stop stop-color="#5E53D9"/><stop offset="1" stop-color="#322C73"/></radialGradient><radialGradient id="ay" cx="0" cy="0" r="1" gradientTransform="matrix(15.0022 8.5703 3.558 -5.5352 26.69 184.04)" gradientUnits="userSpaceOnUse"><stop stop-color="#5E53D9"/><stop offset="1" stop-color="#322C73"/></radialGradient><radialGradient id="az" cx="0" cy="0" r="1" gradientTransform="matrix(17.1132 20.4639 22.981 -11.0522 25.72 171.2)" gradientUnits="userSpaceOnUse"><stop stop-color="#5E53D9"/><stop offset="1" stop-color="#322C73"/></radialGradient><radialGradient id="aA" cx="0" cy="0" r="1" gradientTransform="matrix(-13.617 -6.8849 -9.599 11.1682 47.61 187.35)" gradientUnits="userSpaceOnUse"><stop stop-color="#5E53D9"/><stop offset="1" stop-color="#322C73"/></radialGradient><radialGradient id="aB" cx="0" cy="0" r="1" gradientTransform="matrix(-6.9099 1.9738 -7.585 -26.5536 45.58 171.56)" gradientUnits="userSpaceOnUse"><stop stop-color="#5E53D9"/><stop offset="1" stop-color="#322C73"/></radialGradient><radialGradient id="aD" cx="0" cy="0" r="1" gradientTransform="matrix(0 24.6708 -58.6437 0 123.96 270.45)" gradientUnits="userSpaceOnUse"><stop stop-color="#7A66F4"/><stop offset="1" stop-color="#303D8A" stop-opacity="0"/></radialGradient><radialGradient id="bl" cx="0" cy="0" r="1" gradientTransform="rotate(90 -35 118.47) scale(11.4004)" gradientUnits="userSpaceOnUse"><stop stop-color="#0BA6DE"/><stop offset="1" stop-color="#0BA6DE" stop-opacity="0"/></radialGradient><filter id="a" width="154.37" height="251.5" x="31.01" y="47" color-interpolation-filters="sRGB" filterUnits="userSpaceOnUse"><feFlood flood-opacity="0" result="BackgroundImageFix"/><feColorMatrix in="SourceAlpha" result="hardAlpha" values="0 0 0 0 0 0 0 0 0 0 0 0 0 0 0 0 0 0 127 0"/><feOffset/><feGaussianBlur stdDeviation="12"/><feComposite in2="hardAlpha" operator="out"/><feColorMatrix values="0 0 0 0 0 0 0 0 0 0.54902 0 0 0 0 0.819608 0 0 0 0.25 0"/><feBlend in2="BackgroundImageFix" result="effect1_dropShadow_5004_106597"/><feColorMatrix in="SourceAlpha" result="hardAlpha" values="0 0 0 0 0 0 0 0 0 0 0 0 0 0 0 0 0 0 127 0"/><feOffset/><feGaussianBlur stdDeviation="4"/><feComposite in2="hardAlpha" operator="out"/><feColorMatrix values="0 0 0 0 0 0 0 0 0 0.54902 0 0 0 0 0.819608 0 0 0 0.2 0"/><feBlend in2="effect1_dropShadow_5004_106597" result="effect2_dropShadow_5004_106597"/><feColorMatrix in="SourceAlpha" result="hardAlpha" values="0 0 0 0 0 0 0 0 0 0 0 0 0 0 0 0 0 0 127 0"/><feOffset/><feGaussianBlur stdDeviation="2"/><feComposite in2="hardAlpha" operator="out"/><feColorMatrix values="0 0 0 0 0 0 0 0 0 0.54902 0 0 0 0 0.819608 0 0 0 0.5 0"/><feBlend in2="effect2_dropShadow_5004_106597" result="effect3_dropShadow_5004_106597"/><feBlend in="SourceGraphic" in2="effect3_dropShadow_5004_106597" result="shape"/></filter><filter id="aE" width="78.42" height="85.36" x="66.65" y="179" color-interpolation-filters="sRGB" filterUnits="userSpaceOnUse"><feFlood flood-opacity="0" result="BackgroundImageFix"/><feColorMatrix in="SourceAlpha" result="hardAlpha" values="0 0 0 0 0 0 0 0 0 0 0 0 0 0 0 0 0 0 127 0"/><feOffset/><feGaussianBlur stdDeviation="11.18"/><feComposite in2="hardAlpha" operator="out"/><feColorMatrix values="0 0 0 0 0 0 0 0 0 0.54902 0 0 0 0 0.819608 0 0 0 0.25 0"/><feBlend in2="BackgroundImageFix" result="effect1_dropShadow_5004_106597"/><feColorMatrix in="SourceAlpha" result="hardAlpha" values="0 0 0 0 0 0 0 0 0 0 0 0 0 0 0 0 0 0 127 0"/><feOffset/><feGaussianBlur stdDeviation="3.73"/><feComposite in2="hardAlpha" operator="out"/><feColorMatrix values="0 0 0 0 0 0 0 0 0 0.54902 0 0 0 0 0.819608 0 0 0 0.2 0"/><feBlend in2="effect1_dropShadow_5004_106597" result="effect2_dropShadow_5004_106597"/><feColorMatrix in="SourceAlpha" result="hardAlpha" values="0 0 0 0 0 0 0 0 0 0 0 0 0 0 0 0 0 0 127 0"/><feOffset/><feGaussianBlur stdDeviation="1.86"/><feComposite in2="hardAlpha" operator="out"/><feColorMatrix values="0 0 0 0 0 0 0 0 0 0.54902 0 0 0 0 0.819608 0 0 0 0.5 0"/><feBlend in2="effect2_dropShadow_5004_106597" result="effect3_dropShadow_5004_106597"/><feBlend in="SourceGraphic" in2="effect3_dropShadow_5004_106597" result="shape"/></filter><filter id="aN" width="59.04" height="61.99" x="61.55" y="207.33" color-interpolation-filters="sRGB" filterUnits="userSpaceOnUse"><feFlood flood-opacity="0" result="BackgroundImageFix"/><feColorMatrix in="SourceAlpha" result="hardAlpha" values="0 0 0 0 0 0 0 0 0 0 0 0 0 0 0 0 0 0 127 0"/><feOffset/><feGaussianBlur stdDeviation="11.18"/><feComposite in2="hardAlpha" operator="out"/><feColorMatrix values="0 0 0 0 0 0 0 0 0 0.54902 0 0 0 0 0.819608 0 0 0 0.25 0"/><feBlend in2="BackgroundImageFix" result="effect1_dropShadow_5004_106597"/><feColorMatrix in="SourceAlpha" result="hardAlpha" values="0 0 0 0 0 0 0 0 0 0 0 0 0 0 0 0 0 0 127 0"/><feOffset/><feGaussianBlur stdDeviation="3.73"/><feComposite in2="hardAlpha" operator="out"/><feColorMatrix values="0 0 0 0 0 0 0 0 0 0.54902 0 0 0 0 0.819608 0 0 0 0.2 0"/><feBlend in2="effect1_dropShadow_5004_106597" result="effect2_dropShadow_5004_106597"/><feColorMatrix in="SourceAlpha" result="hardAlpha" values="0 0 0 0 0 0 0 0 0 0 0 0 0 0 0 0 0 0 127 0"/><feOffset/><feGaussianBlur stdDeviation="1.86"/><feComposite in2="hardAlpha" operator="out"/><feColorMatrix values="0 0 0 0 0 0 0 0 0 0.54902 0 0 0 0 0.819608 0 0 0 0.5 0"/><feBlend in2="effect2_dropShadow_5004_106597" result="effect3_dropShadow_5004_106597"/><feBlend in="SourceGraphic" in2="effect3_dropShadow_5004_106597" result="shape"/></filter><filter id="aV" width="59.04" height="61.99" x="101.16" y="198.51" color-interpolation-filters="sRGB" filterUnits="userSpaceOnUse"><feFlood flood-opacity="0" result="BackgroundImageFix"/><feColorMatrix in="SourceAlpha" result="hardAlpha" values="0 0 0 0 0 0 0 0 0 0 0 0 0 0 0 0 0 0 127 0"/><feOffset/><feGaussianBlur stdDeviation="11.18"/><feComposite in2="hardAlpha" operator="out"/><feColorMatrix values="0 0 0 0 0 0 0 0 0 0.54902 0 0 0 0 0.819608 0 0 0 0.25 0"/><feBlend in2="BackgroundImageFix" result="effect1_dropShadow_5004_106597"/><feColorMatrix in="SourceAlpha" result="hardAlpha" values="0 0 0 0 0 0 0 0 0 0 0 0 0 0 0 0 0 0 127 0"/><feOffset/><feGaussianBlur stdDeviation="3.73"/><feComposite in2="hardAlpha" operator="out"/><feColorMatrix values="0 0 0 0 0 0 0 0 0 0.54902 0 0 0 0 0.819608 0 0 0 0.2 0"/><feBlend in2="effect1_dropShadow_5004_106597" result="effect2_dropShadow_5004_106597"/><feColorMatrix in="SourceAlpha" result="hardAlpha" values="0 0 0 0 0 0 0 0 0 0 0 0 0 0 0 0 0 0 127 0"/><feOffset/><feGaussianBlur stdDeviation="1.86"/><feComposite in2="hardAlpha" operator="out"/><feColorMatrix values="0 0 0 0 0 0 0 0 0 0.54902 0 0 0 0 0.819608 0 0 0 0.5 0"/><feBlend in2="effect2_dropShadow_5004_106597" result="effect3_dropShadow_5004_106597"/><feBlend in="SourceGraphic" in2="effect3_dropShadow_5004_106597" result="shape"/></filter><filter id="bd" width="55.02" height="53.43" x="25.14" y="186.41" color-interpolation-filters="sRGB" filterUnits="userSpaceOnUse"><feFlood flood-opacity="0" result="BackgroundImageFix"/><feColorMatrix in="SourceAlpha" result="hardAlpha" values="0 0 0 0 0 0 0 0 0 0 0 0 0 0 0 0 0 0 127 0"/><feOffset/><feGaussianBlur stdDeviation="11.18"/><feComposite in2="hardAlpha" operator="out"/><feColorMatrix values="0 0 0 0 0 0 0 0 0 0.54902 0 0 0 0 0.819608 0 0 0 0.25 0"/><feBlend in2="BackgroundImageFix" result="effect1_dropShadow_5004_106597"/><feColorMatrix in="SourceAlpha" result="hardAlpha" values="0 0 0 0 0 0 0 0 0 0 0 0 0 0 0 0 0 0 127 0"/><feOffset/><feGaussianBlur stdDeviation="3.73"/><feComposite in2="hardAlpha" operator="out"/><feColorMatrix values="0 0 0 0 0 0 0 0 0 0.54902 0 0 0 0 0.819608 0 0 0 0.2 0"/><feBlend in2="effect1_dropShadow_5004_106597" result="effect2_dropShadow_5004_106597"/><feColorMatrix in="SourceAlpha" result="hardAlpha" values="0 0 0 0 0 0 0 0 0 0 0 0 0 0 0 0 0 0 127 0"/><feOffset/><feGaussianBlur stdDeviation="1.86"/><feComposite in2="hardAlpha" operator="out"/><feColorMatrix values="0 0 0 0 0 0 0 0 0 0.54902 0 0 0 0 0.819608 0 0 0 0.5 0"/><feBlend in2="effect2_dropShadow_5004_106597" result="effect3_dropShadow_5004_106597"/><feBlend in="SourceGraphic" in2="effect3_dropShadow_5004_106597" result="shape"/></filter><filter id="bm" width="61.47" height="57.67" x="64.05" y="223.61" color-interpolation-filters="sRGB" filterUnits="userSpaceOnUse"><feFlood flood-opacity="0" result="BackgroundImageFix"/><feColorMatrix in="SourceAlpha" result="hardAlpha" values="0 0 0 0 0 0 0 0 0 0 0 0 0 0 0 0 0 0 127 0"/><feOffset/><feGaussianBlur stdDeviation="11.18"/><feComposite in2="hardAlpha" operator="out"/><feColorMatrix values="0 0 0 0 0 0 0 0 0 0.54902 0 0 0 0 0.819608 0 0 0 0.25 0"/><feBlend in2="BackgroundImageFix" result="effect1_dropShadow_5004_106597"/><feColorMatrix in="SourceAlpha" result="hardAlpha" values="0 0 0 0 0 0 0 0 0 0 0 0 0 0 0 0 0 0 127 0"/><feOffset/><feGaussianBlur stdDeviation="3.73"/><feComposite in2="hardAlpha" operator="out"/><feColorMatrix values="0 0 0 0 0 0 0 0 0 0.54902 0 0 0 0 0.819608 0 0 0 0.2 0"/><feBlend in2="effect1_dropShadow_5004_106597" result="effect2_dropShadow_5004_106597"/><feColorMatrix in="SourceAlpha" result="hardAlpha" values="0 0 0 0 0 0 0 0 0 0 0 0 0 0 0 0 0 0 127 0"/><feOffset/><feGaussianBlur stdDeviation="1.86"/><feComposite in2="hardAlpha" operator="out"/><feColorMatrix values="0 0 0 0 0 0 0 0 0 0.54902 0 0 0 0 0.819608 0 0 0 0.5 0"/><feBlend in2="effect2_dropShadow_5004_106597" result="effect3_dropShadow_5004_106597"/><feBlend in="SourceGraphic" in2="effect3_dropShadow_5004_106597" result="shape"/></filter></defs></svg>